<svg xmlns="http://www.w3.org/2000/svg" xmlns:xlink="http://www.w3.org/1999/xlink" viewBox="0 0 510 510"><defs><style>.cls-1{fill:#ef4141;}.cls-10,.cls-2,.cls-4,.cls-5{stroke:#931111;stroke-width:5px;}.cls-2,.cls-4,.cls-5,.cls-7{stroke-miterlimit:10;}.cls-2{fill:url(#Gradiente_sem_nome_6);}.cls-3{fill:#931111;}.cls-4{fill:url(#Gradiente_sem_nome_6-2);}.cls-5{fill:url(#Gradiente_sem_nome_6-3);}.cls-6{fill:#fff;}.cls-7{fill:#ffe08e;stroke:#e8be60;stroke-width:3px;}.cls-8{fill:#ef586b;}.cls-9{fill:#2c1108;}.cls-10{fill:none;stroke-linecap:round;stroke-linejoin:round;}.cls-11{fill:#c40c0c;}</style><linearGradient id="Gradiente_sem_nome_6" x1="232.49" y1="449.92" x2="305.7" y2="449.92" gradientUnits="userSpaceOnUse"><stop offset="0" stop-color="#f00000"/><stop offset="1" stop-color="#dc281e"/></linearGradient><linearGradient id="Gradiente_sem_nome_6-2" x1="236.37" y1="312.81" x2="348.35" y2="358.54" xlink:href="#Gradiente_sem_nome_6"/><linearGradient id="Gradiente_sem_nome_6-3" x1="29.72" y1="414.14" x2="274.16" y2="267.04" xlink:href="#Gradiente_sem_nome_6"/></defs><title>Ativo 4</title><g id="Camada_2" data-name="Camada 2"><g id="Camada_3" data-name="Camada 3"><circle class="cls-1" cx="255" cy="255" r="250"/><path class="cls-2" d="M290.5,394.85H247.69a15.24,15.24,0,0,0-15.2,15.2V504c7.42.66,14.92,1,22.51,1a250.62,250.62,0,0,0,50.7-5.15v-89.8A15.24,15.24,0,0,0,290.5,394.85Z"/><path class="cls-3" d="M342.58,464.69h-6.84a19.42,19.42,0,0,0-10-2.77H286.24a19.49,19.49,0,0,0-10,2.77h-6.85v6.85a19.55,19.55,0,0,0-2.77,10v23.18a248.79,248.79,0,0,0,78.75-16.56v-6.62a19.43,19.43,0,0,0-2.78-10Z"/><path class="cls-4" d="M503.11,285.81c-89.69-95.58-266.61-79.71-286.8,58.82A82,82,0,0,1,214,355.39c-.06.2-.12.39-.17.59a130.76,130.76,0,0,0-5.23,37.9c.54,38.27,20.15,89.87,118,100.7C420.26,466.63,490.89,385.26,503.11,285.81Z"/><g id="manchas"><circle class="cls-3" cx="409.69" cy="310.1" r="8.69"/><circle class="cls-3" cx="352.72" cy="259.42" r="7.37"/><circle class="cls-3" cx="453.36" cy="279.65" r="11.66"/><ellipse class="cls-3" cx="407.75" cy="274.37" rx="20.08" ry="14.95"/><ellipse class="cls-3" cx="360.09" cy="297.34" rx="17.43" ry="14.66"/><ellipse class="cls-3" cx="450.38" cy="312" rx="17.43" ry="14.66" transform="translate(-92.89 241) rotate(-27.27)"/></g><path class="cls-3" d="M492.68,310.1c-10.25,0-18.56,6.2-18.56,13.84,0,7.22,7.4,13.14,16.85,13.78a249.19,249.19,0,0,0,7.76-26.85A24.22,24.22,0,0,0,492.68,310.1Z"/><path class="cls-5" d="M326.35,287.84l-.71-.42a19.86,19.86,0,0,1-6.55-26.74c27.06-47.25,1-73.35,1-73.35s-21.91-23.66-63.15-.17a50.09,50.09,0,0,1-35.52,5.6c-9.46-2.07-21-6.52-33.8-15.39A36,36,0,0,0,168,170.76c-22.47-.5-33.48,17.15-40.95,37.78a17.88,17.88,0,0,1-16.79,12c-6.89-.07-12.61-3.44-21.67-4.44-13.9-1.55-37.9,10,4,73.31a46.12,46.12,0,0,1,7.8,28.41c0,.28,0,.57,0,.85a46.41,46.41,0,0,1-5.05,17.49l0,.1a44.51,44.51,0,0,0-4.61,16.46q-.48,5.31-1.31,10.59c-.34,2.17-.65,4.32-.93,6.39a20.35,20.35,0,0,1-9.23,14.42c-.66.42-1.31.85-1.94,1.31a27.06,27.06,0,0,1-2.91,1.85,52.22,52.22,0,0,0-19.19,17.87,250.49,250.49,0,0,0,122.4,87.62c34.1-22.06,66.43-51.26,71.08-56.27l0,0q1.52-1.9,2.81-3.78s0,0,0,0A53.14,53.14,0,0,0,257,417.86a130.13,130.13,0,0,0,3.14-24.1A24.89,24.89,0,0,1,274.81,370c60.41-27.13,65.45-53.63,62.07-68.32A21.61,21.61,0,0,0,326.35,287.84Z"/><ellipse class="cls-6" cx="202.64" cy="356.21" rx="18.87" ry="27.27"/><ellipse cx="201.69" cy="356.21" rx="10.25" ry="14.83"/><ellipse class="cls-6" cx="209.65" cy="346.07" rx="7.02" ry="10.14"/><ellipse class="cls-6" cx="139.74" cy="356.21" rx="18.87" ry="27.07"/><ellipse cx="138.8" cy="356.21" rx="10.25" ry="14.72"/><ellipse class="cls-6" cx="146.76" cy="346.14" rx="7.02" ry="10.07"/><path class="cls-7" d="M236.85,282.4a10.53,10.53,0,0,1,5,10.38c-1.56,12.33-6.91,33.93-25.15,20.59-20.47-15-18.08-38.63-16.63-46.42a19.09,19.09,0,0,1,2.18-6.08c1.58-2.71,4.25-5.65,7.76-3.41C215.11,260.72,224.3,275,236.85,282.4Z"/><path class="cls-7" d="M62.39,379.47c-13.29-1.65-21.11-39.38-28.2-35.31A31.1,31.1,0,0,0,26.7,357a250.2,250.2,0,0,0,45.48,68.5C102.76,396.71,62.39,379.47,62.39,379.47Z"/><path class="cls-8" d="M147.16,456.67c-5.64,4.22-11.87,9.12-18,14.37q7.41,4.32,15.13,8.14a52.65,52.65,0,0,0,12.27-14.5,5.84,5.84,0,0,0,.31-.61C159.46,458.23,152.28,452.84,147.16,456.67Z"/><path class="cls-9" d="M150.93,453.88a6.9,6.9,0,0,0-3.37.52c-10.66,4.33-23,6.45-32.95,7.48a249.26,249.26,0,0,0,29.66,17.3,52.65,52.65,0,0,0,12.27-14.5A7.27,7.27,0,0,0,150.93,453.88Z"/><path class="cls-3" d="M151.05,452.77a8.11,8.11,0,0,0-3.9.6C136,457.89,122.93,460,113.2,460.9c.94.65,1.88,1.3,2.82,1.93,9.55-1.07,21.58-3.19,32-7.41a6.23,6.23,0,0,1,2.31-.47,5.07,5.07,0,0,1,.55,0,6.16,6.16,0,0,1,4.82,3.26,6.09,6.09,0,0,1-.09,5.91h0a51.9,51.9,0,0,1-12.38,14.49l2.15,1.07a53.39,53.39,0,0,0,12.17-14.49,8.26,8.26,0,0,0,.11-8A8.4,8.4,0,0,0,151.05,452.77Z"/><path class="cls-10" d="M165.28,436.44a31,31,0,0,1-8,9.61c-18,14.67-33.35,14.58-45.08,14.14"/><path class="cls-7" d="M124.14,286.82a10.51,10.51,0,0,1,5,10.39c-1.55,12.33-6.9,33.93-25.14,20.58-20.47-15-18.08-38.63-16.63-46.41a19.06,19.06,0,0,1,2.18-6.09c1.58-2.7,4.25-5.64,7.76-3.41C102.41,265.14,111.6,279.39,124.14,286.82Z"/><path class="cls-11" d="M255,510A255,255,0,0,1,74.69,74.69,255,255,0,1,1,435.31,435.31,253.3,253.3,0,0,1,255,510Zm0-500C119.91,10,10,119.91,10,255S119.91,500,255,500,500,390.09,500,255,390.09,10,255,10Z"/></g></g></svg>