<svg xmlns="http://www.w3.org/2000/svg" viewBox="0 0 510 510"><defs><style>.cls-1{fill:#48bce0;}.cls-2{fill:#057c79;}.cls-3{fill:#00d2d3;}.cls-4{fill:#01a3a4;}.cls-5{fill:#fff;}.cls-6{fill:none;stroke:#057c76;stroke-miterlimit:10;stroke-width:5px;}.cls-7{fill:#12489e;}</style></defs><title>Ativo 5</title><g id="Camada_2" data-name="Camada 2"><g id="Camada_4" data-name="Camada 4"><circle class="cls-1" cx="255" cy="255" r="250"/><path class="cls-2" d="M101.47,273.79l-66.29-29.6s65.53-56.28,145.11-65.78Z"/><path class="cls-3" d="M450.49,360.7c-21.69,3.9-37.75-11.37-53-20.32-15.75-9.24-206.55-60.71-244.66,127.13a35.71,35.71,0,0,0-.54,10.75c-42-38.28-13.77-113.52,35.81-156.55C259.78,259.51,347.31,292.64,450.49,360.7Z"/><path class="cls-4" d="M450.49,360.7c1.23-.22,2.48-.5,3.75-.85,23.61-6.5,9.71-44.57-1.66-54s-13.17-28.24-13.17-28.24c-14.76-164.88-182.1-148.67-216.64-131a106.28,106.28,0,0,1-10,4.55C197.26,157.23,162,177.37,97,271c-37.52,54-32,115-16.83,162.73a250.31,250.31,0,0,0,73,49.68,34.1,34.1,0,0,1-.91-5.12c-40.93-37.3-15.17-109.67,32-153.16-8,23.95-18.61,77.45,44.15,83.3a38.62,38.62,0,0,0,14.31-3.29,11,11,0,0,0,5-15.78C237.85,372.65,220,334,237.55,293.9,298.93,275.72,369.94,307.57,450.49,360.7Z"/><circle class="cls-5" cx="341.52" cy="216.38" r="30.67"/><circle cx="350.92" cy="215.12" r="14.95"/><circle class="cls-5" cx="347.11" cy="210.3" r="3.43"/><path class="cls-6" d="M452.58,305.85c-11.37-9.42-13.17-28.24-13.17-28.24-14.76-164.88-182.1-148.67-216.64-131a106.28,106.28,0,0,1-10,4.55c-7.93,3.09-21.05,9.88-40.7,28.36C96.23,191.76,35.18,244.19,35.18,244.19l61.41,27.42c-37,53.87-31.5,114.5-16.39,162.09a250.31,250.31,0,0,0,73,49.68,34.1,34.1,0,0,1-.91-5.12c-.65-.59-1.28-1.19-1.9-1.8.62.61,1.25,1.21,1.9,1.8a35.71,35.71,0,0,1,.54-10.75c6.83-33.69,18.58-59.69,33.35-79.6,7.23,10.48,20.22,18.43,42.29,20.49a38.62,38.62,0,0,0,14.31-3.29,11,11,0,0,0,5-15.78,129,129,0,0,1-15.92-41.53c68.66-38,155.24-13.52,165.63-7.42,15.26,8.95,31.32,24.22,53,20.32h0c1.23-.22,2.48-.5,3.75-.85C477.85,353.35,464,315.28,452.58,305.85Zm-6.46,52,4.32,2.84Z"/><path class="cls-7" d="M255,510A255,255,0,0,1,74.69,74.69,255,255,0,1,1,435.31,435.31,253.3,253.3,0,0,1,255,510Zm0-500C119.91,10,10,119.91,10,255S119.91,500,255,500,500,390.09,500,255,390.09,10,255,10Z"/></g></g></svg>