<svg xmlns="http://www.w3.org/2000/svg" xmlns:xlink="http://www.w3.org/1999/xlink" viewBox="0 0 510 510"><defs><style>.cls-1{fill:#f969b9;stroke-width:10px;}.cls-1,.cls-11,.cls-14,.cls-2,.cls-3,.cls-4,.cls-5{stroke:#6f1e51;}.cls-1,.cls-11,.cls-14,.cls-2,.cls-3,.cls-4,.cls-5,.cls-7{stroke-miterlimit:10;}.cls-11,.cls-2,.cls-3,.cls-4,.cls-5{stroke-width:5px;}.cls-2{fill:url(#Gradiente_sem_nome_7);}.cls-3{fill:url(#Gradiente_sem_nome_7-2);}.cls-10,.cls-4{fill:#fff;}.cls-5{fill:#fcfcfc;}.cls-6{fill:#d980fa;}.cls-14,.cls-7{fill:none;stroke-width:3px;}.cls-7{stroke:#722691;}.cls-8{fill:#6f1e51;}.cls-9{fill:#33072e;}.cls-11{fill:url(#Gradiente_sem_nome_7-3);}.cls-12{fill:#d05aa6;}.cls-13{fill:#dd92b9;}.cls-15{fill:#9c55a5;}.cls-16{fill:#bfa6ce;}</style><linearGradient id="Gradiente_sem_nome_7" x1="53.11" y1="459.6" x2="171.88" y2="395.79" gradientUnits="userSpaceOnUse"><stop offset="0" stop-color="#f23c5a"/><stop offset="1" stop-color="#f252a4"/></linearGradient><linearGradient id="Gradiente_sem_nome_7-2" x1="252.02" y1="526.73" x2="255.39" y2="231.62" xlink:href="#Gradiente_sem_nome_7"/><linearGradient id="Gradiente_sem_nome_7-3" x1="436.43" y1="469.03" x2="347.68" y2="381.58" xlink:href="#Gradiente_sem_nome_7"/></defs><title>Ativo 1</title><g id="Camada_2" data-name="Camada 2"><g id="Camada_1-2" data-name="Camada 1"><circle class="cls-1" cx="255" cy="255" r="250"/><path class="cls-2" d="M176.05,372.85c-36.9-15.78-80,33.34-90.72,43.19,0,0-4.78,5.41-10,12.8a252,252,0,0,0,39.79,33.41c1.78-.56,3.6-1.15,5.49-1.78C170.12,443.94,217.63,390.63,176.05,372.85Z"/><path class="cls-3" d="M309.79,145.52c3.28-5.06,7.31-15.09,7.31-33.87-6.84,3.62-14.19,10.31-19.2,22.53-5-12.22-12.35-18.91-19.2-22.53,0,10.57,1.28,18.36,3,24.07A124.37,124.37,0,0,0,255,132.83c-70.86,0-128.31,59.44-128.31,132.76a134.72,134.72,0,0,0,36,92.2c-16.12,12.42-26.87,29.95-30.09,49.37a317.8,317.8,0,0,0-4.3,63.38,250.24,250.24,0,0,0,246.14,4.13,312.07,312.07,0,0,0-3.8-65.62s1.12-43.27-18.38-56.88a134.9,134.9,0,0,0,31.05-86.58C383.31,212.55,353.24,166.78,309.79,145.52Z"/><path class="cls-4" d="M252.65,340.59c-51,0-92.25,54.12-92.25,120.87a157.26,157.26,0,0,0,2.13,25.87,250.84,250.84,0,0,0,179.91,1.94,157.73,157.73,0,0,0,2.46-27.81C344.9,394.71,303.6,340.59,252.65,340.59Z"/><g id="face"><path class="cls-5" d="M383.31,265.59a132.74,132.74,0,0,0-6.21-40.24c-3.69-11.6-13.61-20.35-25.69-21.81-20.54-2.47-50.37,14.57-63.42,123-2.45,24.51-5.69,38.58-22.89,43.57a36.32,36.32,0,0,1-20.2,0c-17.2-5-20.44-19.06-22.89-43.57-13-108.45-42.88-125.49-63.42-123-12.08,1.46-22,10.21-25.69,21.81A132.86,132.86,0,0,0,254.69,398.26v0h.62v0A132.76,132.76,0,0,0,383.31,265.59Z"/><g id="bico"><path class="cls-6" d="M285.85,341.12a30.85,30.85,0,0,1-61.7,0c0-17,13.81-43.12,30.85-43.12S285.85,324.09,285.85,341.12Z"/><path class="cls-7" d="M224.22,339s30.09,15,61.56,0"/><path class="cls-8" d="M255,374.47a33.39,33.39,0,0,1-33.35-33.35c0-17.94,14.32-45.62,33.35-45.62s33.35,27.68,33.35,45.62A33.39,33.39,0,0,1,255,374.47Zm0-74c-15.38,0-28.35,24.95-28.35,40.62a28.35,28.35,0,0,0,56.7,0C283.35,325.45,270.38,300.5,255,300.5Z"/></g><g id="olho_dir" data-name="olho dir"><rect class="cls-9" x="331.58" y="223.96" width="36.72" height="62.08" rx="18.36"/><rect class="cls-10" x="339.85" y="232.72" width="10.09" height="20.16" rx="5.05"/></g><g id="olho_esq" data-name="olho esq"><rect class="cls-9" x="146.58" y="223.96" width="36.72" height="62.08" rx="18.36" transform="translate(329.89 510) rotate(-180)"/><rect class="cls-10" x="164.94" y="232.72" width="10.09" height="20.16" rx="5.05" transform="translate(339.98 485.61) rotate(180)"/></g></g><path class="cls-11" d="M355.76,386.5c-35.69,15.26-5.73,56.71,34.77,78.6a251.18,251.18,0,0,0,49.38-41.85C423.43,407,387.31,373,355.76,386.5Z"/><g id="cachecol"><g id="b"><path class="cls-12" d="M317.2,431.32a110.84,110.84,0,0,1-2.35,17.35,16,16,0,0,1-14.1,12.26c-13,1.23-21.82-1.42-26.92-3.84A5.64,5.64,0,0,1,271.5,449a161.84,161.84,0,0,0,8.92-16.14Z"/><path class="cls-13" d="M317.2,431.32l-36.78,1.54c12.48-26.19,11.14-44.54,6.67-53.61a5.68,5.68,0,0,1,2.73-7.73,37.43,37.43,0,0,1,9.76-2.9A5.54,5.54,0,0,1,304.2,370C315.52,380.74,318.64,409.15,317.2,431.32Z"/><path class="cls-14" d="M304.2,370a5.54,5.54,0,0,0-4.62-1.42,37.43,37.43,0,0,0-9.76,2.9,5.68,5.68,0,0,0-2.73,7.73c4.47,9.07,5.81,27.42-6.67,53.61A161.84,161.84,0,0,1,271.5,449a5.64,5.64,0,0,0,2.33,8.09c5.1,2.42,13.92,5.07,26.92,3.84a16,16,0,0,0,14.1-12.26,110.84,110.84,0,0,0,2.35-17.35C318.64,409.15,315.52,380.74,304.2,370Z"/></g><g id="base"><path class="cls-12" d="M172.65,358v46.11c-18.6-3.28-30.8-5.87-32.15-6.78-13.81-9.39-12-22.22-5.52-33.63s12.23-12.1,29-7.7C164.29,356,167.38,356.82,172.65,358Z"/><path class="cls-13" d="M227.22,366.34v44.6c-21.06-1.58-39.88-4.29-54.57-6.88V358A473.48,473.48,0,0,0,227.22,366.34Z"/><path class="cls-15" d="M288.35,367.13v44.46c-8.43.52-16.78.75-25,.75-12.52,0-24.67-.53-36.15-1.4v-44.6C246.07,368.11,267.33,368.89,288.35,367.13Z"/><path class="cls-16" d="M339.85,356.36v48.12a319.87,319.87,0,0,1-51.5,7.11V367.13c17.08-1.41,34-4.49,49.36-10.06C338.42,356.81,339.13,356.58,339.85,356.36Z"/><path class="cls-12" d="M368.37,396.17a241.57,241.57,0,0,1-28.52,8.31V356.36c15.46-4.66,18.79-7,26.87,3.33C375.19,370.49,384.24,390.41,368.37,396.17Z"/><path class="cls-14" d="M366.72,359.69c-8.08-10.31-11.41-8-26.87-3.33-.72.22-1.43.45-2.14.71-15.35,5.57-32.28,8.65-49.36,10.06-21,1.76-42.28,1-61.13-.79A473.48,473.48,0,0,1,172.65,358c-5.27-1.13-8.36-1.92-8.67-2-16.77-4.4-22.51-3.7-29,7.7s-8.29,24.24,5.52,33.63c1.35.91,13.55,3.5,32.15,6.78,14.69,2.59,33.51,5.3,54.57,6.88,11.48.87,23.63,1.4,36.15,1.4,8.2,0,16.55-.23,25-.75a319.87,319.87,0,0,0,51.5-7.11,241.57,241.57,0,0,0,28.52-8.31C384.24,390.41,375.19,370.49,366.72,359.69Z"/></g><g id="a"><path class="cls-12" d="M327.59,398,295,406.46c-.27-15.56-4.34-26.3-9-32.42a6.94,6.94,0,0,1,1.45-9.91,45.43,45.43,0,0,1,11-5.78,6.77,6.77,0,0,1,5.86.62C314.38,365.32,322.25,380.76,327.59,398Z"/><path class="cls-15" d="M289.46,444.28c4.2-14.8,5.73-27.39,5.55-37.82L327.59,398a189.55,189.55,0,0,1,7.82,41.73Z"/><path class="cls-13" d="M335.64,450.6a19.56,19.56,0,0,1-14,18c-15.28,4.54-26.47,3.46-33.15,1.77a6.9,6.9,0,0,1-4.71-9.14c2.27-5.95,4.14-11.6,5.66-17l46-4.52C335.67,443.68,335.75,447.33,335.64,450.6Z"/><path class="cls-14" d="M335.41,439.76A189.55,189.55,0,0,0,327.59,398c-5.34-17.27-13.21-32.71-23.3-39.06a6.77,6.77,0,0,0-5.86-.62,45.43,45.43,0,0,0-11,5.78A6.94,6.94,0,0,0,286,374c4.69,6.12,8.76,16.86,9,32.42.18,10.43-1.35,23-5.55,37.82-1.52,5.37-3.39,11-5.66,17a6.9,6.9,0,0,0,4.71,9.14c6.68,1.69,17.87,2.77,33.15-1.77a19.56,19.56,0,0,0,14-18C335.75,447.33,335.67,443.68,335.41,439.76Z"/></g></g></g></g></svg>