<svg xmlns="http://www.w3.org/2000/svg" viewBox="0 0 510 510"><defs><style>.cls-1{fill:#f7c72d;stroke-width:10px;}.cls-1,.cls-10,.cls-2{stroke:#ff3600;stroke-miterlimit:10;}.cls-2,.cls-4{fill:#f79f1f;}.cls-3{fill:#ee5a24;}.cls-5{fill:#df7b26;}.cls-6{fill:#de7621;}.cls-7{fill:#ffc312;}.cls-8{fill:#fafcf7;}.cls-9{fill:#f6f6f6;}.cls-10{fill:none;stroke-width:5px;}</style></defs><title>Ativo 2</title><g id="Camada_2" data-name="Camada 2"><g id="Camada_2-2" data-name="Camada 2"><circle class="cls-1" cx="255" cy="255" r="250"/><path class="cls-2" d="M255.53,254.71c-71.2,0-128.92,65.45-128.92,146.18a159.88,159.88,0,0,0,21,79.9,250.48,250.48,0,0,0,216.33-.7,159.79,159.79,0,0,0,20.55-79.2C384.44,320.16,326.73,254.71,255.53,254.71Z"/><path class="cls-3" d="M190,465.06l-6.73,11.33L171,482.6l12.3,6.2,4.13,6.95c1.49.42,3,.83,4.48,1.22l4.84-8.17,12.3-6.2-12.3-6.21Z"/><polygon class="cls-3" points="212.51 349.17 213.62 358.97 219.91 366.72 209.97 367.64 202.19 373.71 201.09 363.91 194.79 356.15 204.74 355.23 212.51 349.17"/><polygon class="cls-3" points="307.34 374.76 308.45 384.56 314.74 392.31 304.8 393.24 297.02 399.3 295.91 389.5 289.62 381.74 299.56 380.82 307.34 374.76"/><polygon class="cls-3" points="336.57 426.2 337.68 436 343.97 443.75 334.03 444.67 326.25 450.74 325.14 440.94 318.85 433.18 328.79 432.26 336.57 426.2"/><polygon class="cls-3" points="186.76 405.48 187.86 415.28 194.16 423.03 184.21 423.95 176.44 430.01 175.33 420.21 169.03 412.46 178.98 411.54 186.76 405.48"/><polygon class="cls-3" points="223.02 404.79 238.75 414.6 257.53 414.38 247.28 430.11 247.13 448.65 231.4 438.83 212.62 439.06 222.88 423.33 223.02 404.79"/><path class="cls-3" d="M294.76,501.26l-2-12.39L283.25,497l-12.59,1.77,4.79,5.35q10-.81,19.76-2.4Z"/><polygon class="cls-3" points="255.2 371.1 255.99 375.99 259.33 379.73 254.36 380.43 250.6 383.65 249.82 378.76 246.47 375.02 251.44 374.32 255.2 371.1"/><polygon class="cls-3" points="289.25 437.88 290.03 442.77 293.37 446.51 288.41 447.21 284.65 450.43 283.86 445.54 280.52 441.8 285.49 441.1 289.25 437.88"/><polygon class="cls-3" points="327.57 476.32 328.36 481.21 331.7 484.95 326.73 485.65 322.98 488.87 322.19 483.98 318.85 480.24 323.81 479.54 327.57 476.32"/><polygon class="cls-3" points="237.38 476.32 238.16 481.21 241.5 484.95 236.54 485.65 232.78 488.87 231.99 483.98 228.65 480.24 233.62 479.54 237.38 476.32"/><path class="cls-3" d="M319.62,311.44c-29.33,17.83-33.22,121.29,81.91,146.12a251.61,251.61,0,0,0,40.86-37.1C437.41,375.93,413.83,312,319.62,311.44Z"/><path class="cls-3" d="M186.19,311.44C94.93,312,70,372,63.94,416.21a250.76,250.76,0,0,0,43.55,40.63C219.33,430.79,215.24,329.11,186.19,311.44Z"/><g id="cabeca"><path id="cabelo" class="cls-4" d="M400,242.7c0,3.84-.16,7.65-.45,11.42A78.44,78.44,0,0,0,253,232.23a78.44,78.44,0,0,0-146.59,21.89q-.45-5.66-.45-11.42c0-44.88,21-85,53.78-111.4,19.65,29.51,55.09,48.61,94.89,47.27,38-1.26,70.75-20.83,89-49.34C378,155.6,400,196.62,400,242.7Z"/><g id="bicp"><polygon class="cls-5" points="253 353.88 242.75 336.12 232.49 318.36 253 318.36 273.51 318.36 263.25 336.12 253 353.88"/><polygon class="cls-6" points="253 304.99 247.69 314.19 242.38 323.39 253 323.39 263.62 323.39 258.31 314.19 253 304.99"/></g><path id="base_olho" data-name="base olho" class="cls-7" d="M400.93,268.61A78.44,78.44,0,0,1,253,305a78.45,78.45,0,0,1-146.59-50.85v0A78.44,78.44,0,0,1,253,232.23a78.44,78.44,0,0,1,146.59,21.89v0A78.44,78.44,0,0,1,400.93,268.61Z"/></g><g id="olho_dir" data-name="olho dir"><circle class="cls-8" cx="318.85" cy="270.55" r="41.77"/><circle cx="318.85" cy="270.55" r="31.9"/><circle class="cls-9" cx="302.51" cy="246.54" r="7.89"/></g><g id="olho_esq" data-name="olho esq"><circle class="cls-8" cx="181.6" cy="270.55" r="41.77"/><circle cx="181.6" cy="270.55" r="31.9"/><circle class="cls-9" cx="197.93" cy="246.54" r="7.89"/></g><path class="cls-10" d="M379,323a78.49,78.49,0,0,0,20.57-68.84v0c.29-3.77.45-7.58.45-11.42,0-46.08-22.07-87.1-56.42-113.47-18.24,28.51-51,48.08-89,49.34-39.8,1.34-75.24-17.76-94.88-47.27C126.91,157.72,106,197.82,106,242.7q0,5.76.45,11.42v0a78.51,78.51,0,0,0,20.5,68.78c-43.84,19.64-58.55,60.73-63,93.29a250.76,250.76,0,0,0,43.55,40.63,172.5,172.5,0,0,0,26.15-8.24,154.81,154.81,0,0,0,13.92,32.19,247.25,247.25,0,0,0,39.87,14.94v0c1.49.42,3,.83,4.48,1.22h0A250.35,250.35,0,0,0,255,505q10.32,0,20.44-.84h.17c1.14-.09,2.29-.2,3.43-.31l2.58-.26,3.59-.4,1.61-.21q3.63-.47,7.23-1c.39-.06.78-.11,1.16-.18h0a248.2,248.2,0,0,0,68.68-21.67,154.07,154.07,0,0,0,12.94-29.66,180,180,0,0,0,24.7,7.13,251.61,251.61,0,0,0,40.86-37.1C438.69,387.34,424.69,343.52,379,323Z"/></g></g></svg>