<svg xmlns="http://www.w3.org/2000/svg" viewBox="0 0 318.08 356.85"><defs><style>.cls-1{fill:none;stroke:#ff3600;stroke-miterlimit:10;stroke-width:5px;}.cls-2{fill:#f79f1f;}.cls-3{fill:#ee5a24;}.cls-4{fill:#df7b26;}.cls-5{fill:#de7621;}.cls-6{fill:#ffc312;}.cls-7{fill:#fafcf7;}.cls-8{fill:#f6f6f6;}</style></defs><title>Ativo 1</title><g id="Camada_2" data-name="Camada 2"><g id="Camada_2-2" data-name="Camada 2"><path class="cls-1" d="M262.57,162.72a64.44,64.44,0,0,0,16.9-56.53v0c.24-3.09.37-6.22.37-9.37,0-37.83-18.12-71.51-46.32-93.16-15,23.41-41.88,39.47-73.06,40.51-32.68,1.1-61.77-14.58-77.9-38.81A117.15,117.15,0,0,0,38.4,96.8c0,3.15.13,6.28.37,9.37v0a64.44,64.44,0,0,0,16.85,56.48C-9,191.63,3.47,277.35,3.47,277.35c23.27-1,42.27-5.23,57.66-11.51,9.43,31,29.72,56.2,55.72,69.82a54.43,54.43,0,0,0-5.08,5.31c-6.54,7.38,1,4.61,3.6,5.22,1.74.42-1.86,6.9,1.68,7.92,6.24,1.8,10.32-7.38,12.42-4.68,5.41,7,9.09,1.89,10.71-5.12a94.55,94.55,0,0,0,37.19,1c1.73,6.48,5.31,10.77,10.47,4.14,2.1-2.7,6.18,6.48,12.42,4.68,3.54-1-.06-7.5,1.68-7.92,2.54-.61,10.14,2.16,3.6-5.22-1-1.08-2-2.34-3.31-3.64,27.15-13,48.53-38.4,58.57-70,14.68,5.44,32.44,9.07,53.81,10C314.61,277.35,327.09,191.73,262.57,162.72Z"/><g id="base"><ellipse id="corpo" class="cls-2" cx="161.2" cy="226.67" rx="105.84" ry="120.01"/><polygon class="cls-3" points="107.43 279.35 112.95 288.66 123.05 293.75 112.95 298.84 107.43 308.15 101.91 298.84 91.81 293.75 101.91 288.66 107.43 279.35"/><polygon class="cls-3" points="125.88 184.21 126.79 192.25 131.96 198.62 123.79 199.38 117.41 204.35 116.5 196.31 111.33 189.94 119.5 189.19 125.88 184.21"/><polygon class="cls-3" points="203.73 205.22 204.64 213.26 209.81 219.63 201.65 220.39 195.26 225.36 194.35 217.32 189.18 210.95 197.35 210.2 203.73 205.22"/><polygon class="cls-3" points="227.73 247.45 228.64 255.49 233.81 261.86 225.64 262.62 219.26 267.59 218.35 259.55 213.18 253.18 221.34 252.43 227.73 247.45"/><polygon class="cls-3" points="104.74 230.44 105.64 238.48 110.81 244.85 102.65 245.6 96.26 250.58 95.36 242.54 90.19 236.17 98.35 235.41 104.74 230.44"/><polygon class="cls-3" points="134.51 229.88 147.42 237.93 162.84 237.74 154.42 250.66 154.3 265.88 141.39 257.82 125.97 258.01 134.39 245.09 134.51 229.88"/><polygon class="cls-3" points="191.77 298.9 193.41 309.07 200.36 316.85 190.03 318.3 182.21 325.01 180.57 314.84 173.62 307.06 183.95 305.61 191.77 298.9"/><polygon class="cls-3" points="160.93 202.21 161.57 206.23 164.32 209.3 160.24 209.87 157.15 212.52 156.51 208.5 153.76 205.43 157.84 204.86 160.93 202.21"/><polygon class="cls-3" points="188.88 257.04 189.52 261.05 192.27 264.12 188.19 264.7 185.1 267.35 184.46 263.33 181.71 260.26 185.79 259.69 188.88 257.04"/><polygon class="cls-3" points="220.34 288.6 220.99 292.61 223.73 295.68 219.66 296.25 216.57 298.9 215.92 294.89 213.18 291.82 217.26 291.25 220.34 288.6"/><polygon class="cls-3" points="146.29 288.6 146.94 292.61 149.68 295.68 145.6 296.25 142.52 298.9 141.87 294.89 139.13 291.82 143.21 291.25 146.29 288.6"/></g><path id="mao_dir" data-name="mao dir" class="cls-3" d="M314.61,277.35s18-123.4-100.8-124.12C187.17,169.43,186.09,271.67,314.61,277.35Z"/><path id="mao_esq" data-name="mao esq" class="cls-3" d="M3.47,277.35s-18-123.4,100.8-124.12C130.91,169.43,132,271.67,3.47,277.35Z"/><g id="cabeca"><path id="cabelo" class="cls-2" d="M279.84,96.8c0,3.15-.13,6.28-.37,9.37a64.4,64.4,0,0,0-120.35-18,64.4,64.4,0,0,0-120.35,18c-.24-3.09-.37-6.22-.37-9.37A117.15,117.15,0,0,1,82.56,5.34c16.13,24.23,45.22,39.91,77.9,38.81,31.18-1,58.08-17.1,73.06-40.51C261.72,25.29,279.84,59,279.84,96.8Z"/><g id="bicp"><polygon class="cls-4" points="159.12 188.08 150.7 173.5 142.28 158.92 159.12 158.92 175.96 158.92 167.54 173.5 159.12 188.08"/><polygon class="cls-5" points="159.12 147.94 154.76 155.49 150.4 163.04 159.12 163.04 167.84 163.04 163.48 155.49 159.12 147.94"/></g><path id="base_olho" data-name="base olho" class="cls-6" d="M280.57,118.07a64.4,64.4,0,0,1-121.45,29.87A64.4,64.4,0,0,1,38.77,106.19v0a64.4,64.4,0,0,1,120.35-18,64.4,64.4,0,0,1,120.35,18v0A64.57,64.57,0,0,1,280.57,118.07Z"/></g><g id="pes"><path class="cls-3" d="M137.08,328a3.27,3.27,0,0,1,3.42,2.33c2.32,8.28-1.88,30.91-11,19.14-2.1-2.7-6.18,6.48-12.42,4.68-3.54-1,.06-7.5-1.68-7.92-2.55-.61-10.14,2.16-3.6-5.22C115.66,336.59,121.3,329.2,137.08,328Z"/><path class="cls-3" d="M180.23,328a3.26,3.26,0,0,0-3.42,2.33c-2.32,8.28,1.88,30.91,11,19.14,2.1-2.7,6.18,6.48,12.42,4.68,3.54-1-.06-7.5,1.68-7.92,2.54-.61,10.14,2.16,3.6-5.22C201.65,336.59,196,329.2,180.23,328Z"/></g><g id="olho_dir" data-name="olho dir"><circle class="cls-7" cx="213.18" cy="119.66" r="34.29"/><circle cx="213.18" cy="119.66" r="26.19"/><circle class="cls-8" cx="199.77" cy="99.95" r="6.48"/></g><g id="olho_esq" data-name="olho esq"><circle class="cls-7" cx="100.5" cy="119.66" r="34.29"/><circle cx="100.5" cy="119.66" r="26.19"/><circle class="cls-8" cx="113.91" cy="99.95" r="6.48"/></g></g></g></svg>