<svg xmlns="http://www.w3.org/2000/svg" viewBox="0 0 80.17 80.17"><defs><style>.cls-1{fill:#fff;}.cls-2{fill:#58575c;}.cls-3{fill:#f41822;}.cls-4{fill:#26a9e1;}.cls-5{fill:#f4951d;}.cls-6{fill:#49c1ea;}.cls-7{fill:#9eed4a;}.cls-8{fill:#eb237c;}.cls-9{fill:none;stroke:#fff;stroke-miterlimit:10;}</style></defs><title>Ativo 2</title><g id="Camada_2" data-name="Camada 2"><g id="Camada_1-2" data-name="Camada 1"><g id="Logo"><path class="cls-1" d="M39.94,43.25a3.11,3.11,0,0,1-1.65-.47,3.17,3.17,0,0,1-1-4.35C38.55,36.31,50.34,17.59,63,15.78a13.17,13.17,0,0,1,11,3.5A3.16,3.16,0,0,1,69.79,24a6.78,6.78,0,0,0-5.87-1.92c-8.27,1.18-18.16,14.61-21.28,19.69A3.18,3.18,0,0,1,39.94,43.25Z"/><path class="cls-1" d="M40.08,80.17a3.17,3.17,0,0,1-1-6.18,6.81,6.81,0,0,0,4.6-4.12c3.12-7.77-3.57-23-6.42-28.27a3.17,3.17,0,1,1,5.57-3c1.19,2.2,11.5,21.76,6.72,33.66A13.21,13.21,0,0,1,41.05,80,3.27,3.27,0,0,1,40.08,80.17Z"/><path class="cls-1" d="M14.91,64.53a13.31,13.31,0,0,1-9.07-3.64A3.17,3.17,0,0,1,10.1,56.2,6.77,6.77,0,0,0,16,58.12c8.29-1.18,18.17-14.61,21.27-19.69a3.17,3.17,0,0,1,5.4,3.31c-1.3,2.13-13.09,20.84-25.78,22.65A14.44,14.44,0,0,1,14.91,64.53Z"/><path class="cls-1" d="M72.06,61.71a3.05,3.05,0,0,1-.67-.07A3.17,3.17,0,0,1,69,57.87a6.8,6.8,0,0,0-1.26-6C62.54,45.26,46,43.41,40,43.25a3.17,3.17,0,0,1,.17-6.33c2.49.07,24.59.92,32.5,11a13.19,13.19,0,0,1,2.48,11.3A3.16,3.16,0,0,1,72.06,61.71Z"/><path class="cls-1" d="M40.09,43.25H40c-2.49-.06-24.59-.92-32.5-11A13.19,13.19,0,0,1,5,21,3.16,3.16,0,1,1,11.2,22.3a6.8,6.8,0,0,0,1.27,6c5.16,6.57,21.74,8.42,27.7,8.58a3.17,3.17,0,0,1-.08,6.33Z"/><path class="cls-1" d="M40.09,43.25A3.18,3.18,0,0,1,37.3,41.6C36.11,39.4,25.8,19.84,30.58,8A13.17,13.17,0,0,1,39.12.15a3.17,3.17,0,1,1,1.93,6,6.81,6.81,0,0,0-4.6,4.12C33.33,18.07,40,33.35,42.87,38.57a3.16,3.16,0,0,1-2.78,4.68Z"/><circle class="cls-1" cx="40.08" cy="40.09" r="40.08"/><path class="cls-2" d="M40.08,40.09s35.78.92,32,18.46A36.91,36.91,0,0,1,40.08,77C57.18,71.54,40.08,40.09,40.08,40.09Z"/><path class="cls-3" d="M72.06,58.55c3.8-17.54-32-18.46-32-18.46A.49.49,0,0,0,40,40c1.29-2.07,19.1-30,31.89-18.34l.11-.07a37,37,0,0,1,0,37Z"/><path class="cls-4" d="M72,21.56l-.11.07C59.12,10,41.31,37.9,40,40c-1.12-2.11-16.41-31.53.06-36.8A36.88,36.88,0,0,1,72,21.56Z"/><path class="cls-5" d="M40.08,40.09s17.1,31.45,0,36.92A36.9,36.9,0,0,1,8.25,58.79C21.52,70.17,40,40.09,40,40.09h.13Z"/><path class="cls-6" d="M40.08,40.09H40L40,40A.49.49,0,0,1,40.08,40.09Z"/><path class="cls-7" d="M40,40l-.07.11C37.53,40,4.44,38.52,8.11,21.63a36.88,36.88,0,0,1,32-18.46C23.61,8.44,38.9,37.86,40,40Z"/><path class="cls-8" d="M40,40.08h0S21.52,70.17,8.25,58.79a37,37,0,0,1-.14-37.16C4.44,38.52,37.53,40,40,40.08Z"/><path class="cls-9" d="M72,21.56A36.92,36.92,0,1,1,3.17,40.09,36.92,36.92,0,0,1,72,21.56Z"/><path class="cls-9" d="M40.08,40.09A.49.49,0,0,0,40,40c-1.12-2.11-16.41-31.53.06-36.8"/><path class="cls-9" d="M40.08,40.09H40C37.53,40,4.44,38.52,8.11,21.63"/><path class="cls-9" d="M40.08,40.09s35.78.92,32,18.46"/><path class="cls-9" d="M40,40.09S21.52,70.17,8.25,58.79L8,58.55"/><path class="cls-9" d="M40.08,40.09s17.1,31.45,0,36.92"/><path class="cls-9" d="M40,40.09h0L40,40c1.29-2.07,19.1-30,31.89-18.34"/></g></g></g></svg>