<svg xmlns="http://www.w3.org/2000/svg" viewBox="0 0 471.34 153.43"><defs><style>.cls-1{fill:#fff;}.cls-1,.cls-2,.cls-3,.cls-5,.cls-6{isolation:isolate;}.cls-2{fill:#26a9e1;}.cls-3{fill:#f41822;}.cls-4{fill:#9eed4a;}.cls-5{fill:#f4951d;}.cls-6{fill:#eb237c;}</style></defs><title>Ativo 3</title><g id="Camada_2" data-name="Camada 2"><g id="Camada_1-2" data-name="Camada 1"><path class="cls-1" d="M25.39,148.36a10,10,0,0,1-6.19-2.15L3.81,134.08A10,10,0,0,1,0,125.76L5.44,11.7a10,10,0,0,1,10-9.53h.46L40.14,3.27a10,10,0,0,1,9.54,10.47L45.65,97l18.61-5.36a10,10,0,0,1,12.37,6.81l6.7,23a10,10,0,0,1-6.8,12.4L28.19,148A9.92,9.92,0,0,1,25.39,148.36Z"/><path class="cls-2" d="M73.73,124.24,25.39,138.36,10,126.23,15.43,12.17l24.26,1.09L35,110.48,67,101.25Z"/><path class="cls-1" d="M134.38,153.43c-14.33,0-29.51-2-43.46-16.69l-.07-.08C60.86,104.42,70.27,35,71.44,27.17l2.35-16.41a10,10,0,0,1,9.9-8.59,10.64,10.64,0,0,1,1.48.11l32.59,4.89a10,10,0,0,1,8.39,11.45l-2.52,16c-3.75,27.24-1,58.53,5.85,65.68l.27.29a12.81,12.81,0,0,1,1.44-.12c5.53-.43,8-2.2,10-4.73,9.19-11.62,8.42-39.15,6.65-49.93l-2.54-16.37a10,10,0,0,1,8.28-11.41L186,12.8a9.8,9.8,0,0,1,1.61-.13A10,10,0,0,1,197.47,21l2.72,16.29c0,.11.09.66.09.66,2.36,17.49,5.39,61.31-17.48,90.44-11.87,14.9-28.34,23.51-47.66,25Z"/><path class="cls-3" d="M174.93,122.25c-10,12.49-23.9,19.91-40.55,21.18-14.67,0-25.71-2.53-36.21-13.58-26.43-28.42-17.92-94-16.84-101.2l2.36-16.48,32.58,4.89-2.53,16.11c-3.26,23.54-2.9,62.1,8.51,74.05a9.23,9.23,0,0,0,7.6,3.44c.55,0,1.09-.18,1.81-.18,7.79-.54,13.22-3.26,17.38-8.51,12.31-15.57,10.32-47.79,8.69-57.75l-2.53-16.3,32.41-5.25L190.32,39C191.05,44.4,198.11,92.74,174.93,122.25Z"/><path class="cls-1" d="M226.17,151.62c-3.92,0-6.83-.26-7.92-.37l-3.81-.19a9.75,9.75,0,0,1-3.59-.86l-6.84-1a10,10,0,0,1-8.38-11.33l3.8-26.07a10,10,0,0,1,6-7.78l.87-52.26-.25.08a10.09,10.09,0,0,1-2.92.44,10,10,0,0,1-9.57-7.13L186,19.75A10,10,0,0,1,192.7,7.3l12.67-3.8c.15,0,.3-.09.45-.12l.06,0A102,102,0,0,1,231.6,0c17.06,0,32.15,4.74,43.63,13.71C292.56,27,301.11,49.25,299.89,78c-1.27,36.63-20.45,62.74-51.65,70.75a10,10,0,0,1-6.87,2.73h-8.66C230.29,151.62,228,151.62,226.17,151.62ZM252.11,86.7a54.74,54.74,0,0,0,1.36-10.64,61.55,61.55,0,0,0-1-15.21Z"/><path class="cls-4" d="M289.89,77.53C288.81,109,273.24,134,241.37,140v1.45h-9.05c-2.17.18-4.34.18-6.15.18-4.35,0-7.25-.36-7.43-.36h-.18l-3.62-.18v-.37l-9.41-1.44,3.8-26.07,6,.9,1.27-75.86c-.36,0-.54.18-.9.18l-12.5,3.81-7.6-25.35,12.67-3.8A91.7,91.7,0,0,1,231.6,10c11.77,0,25.89,2.54,37.47,11.59C283.92,33,291,52,289.89,77.53ZM253,42.41a23.35,23.35,0,0,0-10.14-4.53l-1.08,74.77a36.7,36.7,0,0,0,9.77-5.43c7.43-6.34,11.41-16.65,11.95-30.78C264.19,59.79,260.75,48.38,253,42.41Z"/><path class="cls-1" d="M335.19,151.43l-32.95-1.08A10,10,0,0,1,292.57,140l4.71-128.18a10,10,0,0,1,10-9.64h.34l32.58,1.08a10,10,0,0,1,9.67,10.34l-4.35,128.18a10,10,0,0,1-10,9.66Z"/><path class="cls-5" d="M335.52,141.44l-32.95-1.09,4.7-128.18,32.59,1.09Z"/><path class="cls-1" d="M390.19,150.9a10,10,0,0,1-10-9.82l-1.64-89.91-26.91-.94A10,10,0,0,1,342,40l.73-28.06a10,10,0,0,1,10-9.75H353L461.61,5.07a10,10,0,0,1,9.73,10.26l-.73,28.24a10,10,0,0,1-10,9.74h-.25l-33.54-.83,1.78,87.67a10,10,0,0,1-9.81,10.2Z"/><path class="cls-6" d="M460.62,43.31l-44-1.08,2,98.12-28.42.55-1.81-99.4L352,40.24l.72-28.07,108.63,2.9Z"/></g></g></svg>