<svg xmlns="http://www.w3.org/2000/svg" viewBox="0 0 928.6 302.28"><defs><style>.cls-1{fill:#fff;}.cls-1,.cls-2,.cls-3,.cls-5,.cls-6{isolation:isolate;}.cls-2{fill:#26a9e1;}.cls-3{fill:#f41822;}.cls-4{fill:#b734f4;}.cls-5{fill:#f4951d;}.cls-6{fill:#eb237c;}</style></defs><title>Ativo 3</title><g id="Camada_2" data-name="Camada 2"><g id="Camada_1-2" data-name="Camada 1"><path class="cls-1" d="M50,292.29a19.74,19.74,0,0,1-12.2-4.23L7.51,264.16A19.71,19.71,0,0,1,0,247.75l10.7-224.7A19.71,19.71,0,0,1,30.39,4.28l.89,0,47.8,2.14a19.7,19.7,0,0,1,18.8,20.63l-7.95,164,36.67-10.56A19.66,19.66,0,0,1,151,194l13.2,45.3a19.7,19.7,0,0,1-13.39,24.42L55.54,291.5A19.64,19.64,0,0,1,50,292.29Z"/><path class="cls-2" d="M145.34,244.71,50.13,272.62,19.79,248.75,30.29,24l47.8,2.1L69,217.67l63.12-18.24Z"/><path class="cls-1" d="M264.74,302.28c-28.23,0-58.14-4-85.61-32.88l-.15-.16c-59.07-63.52-40.54-200.33-38.23-215.72l4.62-32.32a19.71,19.71,0,0,1,19.5-16.92,19.14,19.14,0,0,1,2.92.22L232,14.13a19.69,19.69,0,0,1,16.53,22.54l-5,31.57c-7.4,53.67-1.92,115.31,11.53,129.4l.52.56c.77-.1,1.74-.19,2.84-.23,10.9-.84,15.79-4.33,19.74-9.32,18.1-22.89,16.58-77.13,13.11-98.35l-5-32.26a19.7,19.7,0,0,1,16.32-22.47l63.84-10.35a20.23,20.23,0,0,1,3.18-.25A19.71,19.71,0,0,1,389,41.43l5.35,32.1.18,1.3c4.66,34.46,10.63,120.79-34.44,178.18-23.38,29.34-55.82,46.32-93.9,49.21C265.74,302.26,265.24,302.28,264.74,302.28Z"/><path class="cls-3" d="M344.64,240.85c-19.62,24.61-47.08,39.23-79.9,41.73-28.89,0-50.65-5-71.34-26.76-52.07-56-35.31-185.11-33.17-199.38L164.87,24l64.2,9.63-5,31.75c-6.42,46.37-5.71,122.34,16.76,145.88,3.21,3.57,7.14,6.78,15,6.78,1.07,0,2.14-.36,3.57-.36,15.34-1.07,26-6.42,34.24-16.76,24.26-30.68,20.33-94.17,17.12-113.79l-5-32.1,63.85-10.34L375,76.77C376.38,87.47,390.29,182.71,344.64,240.85Z"/><path class="cls-1" d="M445.58,298.71c-7.72,0-13.45-.52-15.61-.72l-7.5-.38a19.72,19.72,0,0,1-7.08-1.69l-13.47-2.08a19.69,19.69,0,0,1-16.5-22.31l7.49-51.36a19.72,19.72,0,0,1,7.76-13,20.16,20.16,0,0,1,4.13-2.35l1.72-103L406,102a19.69,19.69,0,0,1-24.6-13.19l-15-49.93a19.69,19.69,0,0,1,13.2-24.53l25-7.49c.3-.09.6-.18.9-.25l.1,0A200.73,200.73,0,0,1,456.28,0c33.62,0,63.34,9.34,86,27,34.14,26.23,51,70,48.57,126.58C588.32,225.76,550.53,277.19,489.07,293a19.61,19.61,0,0,1-13.53,5.38H458.48C453.7,298.71,449.22,298.71,445.58,298.71ZM496.7,170.8a108.79,108.79,0,0,0,2.66-21c.42-9.46.16-20.38-1.92-30Z"/><path class="cls-4" d="M571.13,152.74C569,214.81,538.31,264,475.54,275.8v2.85H457.7c-4.28.36-8.56.36-12.12.36-8.56,0-14.27-.71-14.63-.71h-.35l-7.14-.36v-.72l-18.55-2.85L412.4,223l11.78,1.78,2.49-149.45c-.71,0-1.07.36-1.78.36l-24.61,7.49-15-49.93,25-7.49a180.33,180.33,0,0,1,46-6.07c23.18,0,51,5,73.83,22.83C559.36,65,573.27,102.45,571.13,152.74Zm-61-69.19a30.6,30.6,0,0,0-14.72-8.92l-1.57,147.31a52.38,52.38,0,0,0,14.19-10.7c10.77-12.49,16.55-32.82,17.34-60.64C526.44,117.79,521.45,95.32,510.15,83.55Z"/><path class="cls-1" d="M660.36,298.34l-64.92-2.14a19.69,19.69,0,0,1-19-20.41l9.28-252.53a19.69,19.69,0,0,1,19.67-19H606l64.2,2.14a19.71,19.71,0,0,1,19,20.36L680.7,279.32a19.7,19.7,0,0,1-19.68,19Z"/><path class="cls-5" d="M661,278.65l-64.92-2.14L605.37,24l64.2,2.14Z"/><path class="cls-1" d="M768.72,297.28A19.7,19.7,0,0,1,749,277.94L745.79,100.8l-53-1.84a19.71,19.71,0,0,1-19-20.2l1.43-55.29a19.71,19.71,0,0,1,19.7-19.19h.52l214,5.7a19.7,19.7,0,0,1,19.17,20.2l-1.43,55.64A19.69,19.69,0,0,1,907.48,105H907l-66.07-1.64,3.51,172.72a19.7,19.7,0,0,1-19.32,20.1Z"/><path class="cls-6" d="M907.47,85.33l-86.68-2.14,3.93,193.32-56,1.07L765.15,81.76l-71.69-2.49L694.89,24l214,5.71Z"/></g></g></svg>