<svg xmlns="http://www.w3.org/2000/svg" viewBox="0 0 928.6 571.14"><defs><style>.cls-1,.cls-8{fill:#fff;}.cls-1,.cls-3,.cls-4,.cls-6,.cls-7{isolation:isolate;}.cls-2{fill:#9eed4a;}.cls-10,.cls-3{fill:#26a9e1;}.cls-4,.cls-9{fill:#f41822;}.cls-5{fill:#b734f4;}.cls-11,.cls-6{fill:#f4951d;}.cls-13,.cls-7{fill:#eb237c;}.cls-12{fill:#49c1ea;}.cls-14{fill:none;stroke:#fff;stroke-miterlimit:10;}</style></defs><title>Ativo 1</title><g id="Camada_2" data-name="Camada 2"><g id="Camada_1-2" data-name="Camada 1"><ellipse class="cls-1" cx="434.31" cy="549.87" rx="434.31" ry="21.28"/><ellipse class="cls-2" cx="434.31" cy="549.87" rx="400.26" ry="14.18"/><path class="cls-1" d="M50,478.43a19.74,19.74,0,0,1-12.2-4.23L7.51,450.3A19.71,19.71,0,0,1,0,433.89l10.7-224.7a19.71,19.71,0,0,1,19.67-18.77l.89,0,47.8,2.14a19.7,19.7,0,0,1,18.8,20.63l-7.95,164,36.67-10.56A19.66,19.66,0,0,1,151,380.1l13.2,45.3a19.7,19.7,0,0,1-13.39,24.42L55.54,477.64A19.64,19.64,0,0,1,50,478.43Z"/><path class="cls-3" d="M145.25,430.91,50,458.73,19.7,434.83,30.4,210.12l47.8,2.14L68.92,403.8l63.14-18.19Z"/><path class="cls-1" d="M264.74,488.42c-28.23,0-58.14-4-85.61-32.88l-.15-.16c-59.07-63.52-40.54-200.33-38.23-215.72l4.62-32.32a19.71,19.71,0,0,1,19.5-16.92,19.14,19.14,0,0,1,2.92.22L232,200.27a19.69,19.69,0,0,1,16.53,22.54l-5,31.57c-7.4,53.67-1.92,115.31,11.53,129.4l.52.57c.77-.1,1.74-.2,2.84-.24,10.9-.84,15.79-4.33,19.74-9.32,18.1-22.89,16.58-77.13,13.11-98.35l-5-32.26a19.7,19.7,0,0,1,16.32-22.47l63.84-10.35a20.23,20.23,0,0,1,3.18-.25A19.71,19.71,0,0,1,389,227.57l5.35,32.1.18,1.3c4.66,34.46,10.63,120.79-34.44,178.18-23.38,29.34-55.82,46.32-93.9,49.21C265.74,488.4,265.24,488.42,264.74,488.42Z"/><path class="cls-4" d="M344.64,427c-19.62,24.61-47.08,39.23-79.9,41.73-28.89,0-50.65-5-71.34-26.75-52.07-56-35.31-185.12-33.17-199.39l4.64-32.46,64.2,9.63-5,31.75c-6.42,46.37-5.71,122.34,16.76,145.88,3.21,3.57,7.14,6.78,15,6.78,1.07,0,2.14-.36,3.57-.36,15.34-1.07,26-6.42,34.24-16.76,24.26-30.68,20.33-94.17,17.12-113.79l-5-32.1,63.85-10.34,5.35,32.1C376.38,273.61,390.29,368.85,344.64,427Z"/><path class="cls-1" d="M445.58,484.85c-7.72,0-13.45-.52-15.61-.72l-7.5-.37a19.94,19.94,0,0,1-7.08-1.7L401.92,480a19.69,19.69,0,0,1-16.5-22.31l7.49-51.36a19.72,19.72,0,0,1,7.76-13A20.16,20.16,0,0,1,404.8,391l1.72-103-.51.16A19.69,19.69,0,0,1,381.41,275l-15-49.93a19.69,19.69,0,0,1,13.2-24.53l25-7.49c.3-.09.6-.18.9-.25l.1,0a200.73,200.73,0,0,1,50.68-6.62c33.62,0,63.34,9.34,86,27,34.14,26.23,51,70,48.57,126.58-2.49,72.18-40.28,123.61-101.74,139.39a19.61,19.61,0,0,1-13.53,5.38H458.48C453.7,484.85,449.22,484.85,445.58,484.85ZM496.7,356.94A108.79,108.79,0,0,0,499.36,336c.42-9.46.16-20.38-1.92-30Z"/><path class="cls-5" d="M571.13,338.88C569,401,538.31,450.17,475.54,461.94v2.85H457.7c-4.28.36-8.56.36-12.12.36-8.56,0-14.27-.71-14.63-.71h-.35l-7.14-.36v-.71l-18.55-2.86,7.49-51.36,11.78,1.78,2.49-149.45c-.71,0-1.07.36-1.78.36l-24.61,7.49-15-49.93,25-7.49a180.33,180.33,0,0,1,46-6.07c23.18,0,51,5,73.83,22.83C559.36,251.14,573.27,288.59,571.13,338.88Zm-61-69.19a30.6,30.6,0,0,0-14.72-8.92l-1.57,147.31a52.38,52.38,0,0,0,14.19-10.7c10.77-12.48,16.55-32.82,17.34-60.64C526.44,303.93,521.45,281.46,510.15,269.69Z"/><path class="cls-1" d="M660.36,484.48l-64.92-2.14a19.69,19.69,0,0,1-19-20.41l9.28-252.53a19.69,19.69,0,0,1,19.67-19H606l64.2,2.14a19.71,19.71,0,0,1,19,20.36L680.7,465.46a19.7,19.7,0,0,1-19.68,19Z"/><path class="cls-6" d="M661,464.79l-64.92-2.14,9.28-252.53,64.2,2.14Z"/><path class="cls-1" d="M768.72,483.42A19.7,19.7,0,0,1,749,464.08l-3.23-177.14-53-1.84a19.71,19.71,0,0,1-19-20.2l1.43-55.29a19.71,19.71,0,0,1,19.7-19.19h.52l214,5.71a19.69,19.69,0,0,1,19.17,20.19L927.16,272a19.69,19.69,0,0,1-19.68,19.19H907l-66.07-1.64,3.51,172.72a19.7,19.7,0,0,1-19.32,20.1Z"/><path class="cls-7" d="M907.47,271.47l-86.68-2.14,3.93,193.32-56,1.07L765.15,267.9l-71.69-2.49,1.43-55.29,214,5.71Z"/><g id="Logo"><path class="cls-8" d="M656.46,85.21a6.24,6.24,0,0,1-5.31-9.49c2.57-4.19,25.79-41.06,50.79-44.63A26,26,0,0,1,723.65,38a6.23,6.23,0,0,1-8.38,9.23c-3.53-3.2-7.2-4.41-11.56-3.78-16.29,2.32-35.79,28.79-41.93,38.79A6.22,6.22,0,0,1,656.46,85.21Z"/><path class="cls-8" d="M656.75,158a6.24,6.24,0,0,1-1.9-12.18c4.54-1.45,7.41-4,9.06-8.12,6.14-15.31-7-45.4-12.64-55.7a6.24,6.24,0,1,1,11-6c2.34,4.31,22.65,42.86,13.25,66.29a26,26,0,0,1-16.83,15.36A6.28,6.28,0,0,1,656.75,158Z"/><path class="cls-8" d="M607.14,127.13A26.2,26.2,0,0,1,589.28,120a6.24,6.24,0,1,1,8.39-9.23c3.53,3.2,7.2,4.41,11.56,3.78,16.33-2.33,35.8-28.79,41.92-38.79a6.24,6.24,0,1,1,10.64,6.51c-2.57,4.19-25.8,41.05-50.79,44.63A28.15,28.15,0,0,1,607.14,127.13Z"/><path class="cls-8" d="M719.74,121.58a6.16,6.16,0,0,1-1.33-.15,6.24,6.24,0,0,1-4.77-7.41c1-4.66.22-8.44-2.49-11.9-10.16-13-42.83-16.6-54.57-16.91a6.24,6.24,0,0,1,.33-12.47c4.91.13,48.45,1.81,64,21.67a26,26,0,0,1,4.88,22.26A6.24,6.24,0,0,1,719.74,121.58Z"/><path class="cls-8" d="M656.75,85.21h-.16c-4.92-.13-48.45-1.81-64.05-21.67a26.06,26.06,0,0,1-4.88-22.26,6.24,6.24,0,1,1,12.19,2.65c-1,4.65-.22,8.43,2.5,11.9,10.16,13,42.83,16.6,54.56,16.91a6.24,6.24,0,0,1-.16,12.47Z"/><path class="cls-8" d="M656.75,85.21A6.23,6.23,0,0,1,651.27,82c-2.35-4.32-22.66-42.86-13.25-66.3A26,26,0,0,1,654.85.3a6.24,6.24,0,1,1,3.8,11.88c-4.54,1.45-7.42,4-9.06,8.12-6.15,15.31,7,45.4,12.64,55.7a6.24,6.24,0,0,1-2.5,8.45A6.17,6.17,0,0,1,656.75,85.21Z"/><circle class="cls-8" cx="656.75" cy="78.97" r="78.97"/><path class="cls-5" d="M656.75,79s70.49,1.82,63,36.36v0a72.7,72.7,0,0,1-63,36.35C690.43,140.94,656.75,79,656.75,79Z"/><path class="cls-9" d="M719.74,115.34c7.5-34.54-63-36.36-63-36.36l-.13-.25c2.63-4.19,37.67-59,62.84-36.12l.21-.13a72.78,72.78,0,0,1,.08,72.88Z"/><path class="cls-10" d="M719.67,42.48l-.21.13c-25.17-22.88-60.21,31.93-62.84,36.12-2.26-4.26-32.29-62.11.13-72.49A72.67,72.67,0,0,1,719.67,42.48Z"/><path class="cls-11" d="M656.75,79s33.68,62,0,72.73A72.69,72.69,0,0,1,594,115.84C620.19,138.24,656.47,79,656.47,79v0Z"/><path class="cls-12" d="M656.75,79l-.28,0a2.26,2.26,0,0,0,.15-.23Z"/><path class="cls-2" d="M656.62,78.73a2.26,2.26,0,0,1-.15.23c-4.87-.17-70-3.09-62.71-36.35a72.68,72.68,0,0,1,63-36.37C624.33,16.62,654.36,74.47,656.62,78.73Z"/><path class="cls-13" d="M656.47,79v0S620.19,138.24,594,115.84a72.79,72.79,0,0,1-.28-73.23C586.52,75.87,651.6,78.79,656.47,79Z"/><path class="cls-14" d="M719.67,42.48A72.74,72.74,0,1,1,656.75,6.24,72.26,72.26,0,0,1,719.67,42.48Z"/><path class="cls-14" d="M656.75,79l-.13-.25c-2.26-4.26-32.29-62.11.13-72.49"/><path class="cls-14" d="M656.75,79l-.28,0c-4.87-.17-70-3.09-62.71-36.35"/><path class="cls-14" d="M656.75,79s70.49,1.82,63,36.36"/><path class="cls-14" d="M656.47,79S620.19,138.24,594,115.84c-.18-.15-.38-.32-.57-.5"/><path class="cls-14" d="M656.75,79s33.68,62,0,72.73"/><path class="cls-14" d="M656.47,79v0a2.26,2.26,0,0,0,.15-.23c2.63-4.19,37.67-59,62.84-36.12"/></g></g></g></svg>