<svg xmlns="http://www.w3.org/2000/svg" viewBox="0 0 157.94 157.95"><defs><style>.cls-1{fill:#fff;}.cls-2{fill:#b734f4;}.cls-3{fill:#f41822;}.cls-4{fill:#26a9e1;}.cls-5{fill:#f4951d;}.cls-6{fill:#49c1ea;}.cls-7{fill:#9eed4a;}.cls-8{fill:#eb237c;}.cls-9{fill:none;stroke:#fff;stroke-miterlimit:10;}</style></defs><title>Ativo 2</title><g id="Camada_2" data-name="Camada 2"><g id="Camada_1-2" data-name="Camada 1"><g id="Logo"><path class="cls-1" d="M78.69,85.21a6.24,6.24,0,0,1-5.32-9.49c2.57-4.19,25.8-41.06,50.79-44.63A26,26,0,0,1,145.88,38a6.24,6.24,0,1,1-8.39,9.23c-3.53-3.2-7.2-4.41-11.55-3.78C109.64,45.76,90.15,72.23,84,82.23A6.24,6.24,0,0,1,78.69,85.21Z"/><path class="cls-1" d="M79,158a6.24,6.24,0,0,1-1.9-12.18c4.54-1.45,7.42-4,9.06-8.12,6.14-15.31-7-45.4-12.64-55.7a6.24,6.24,0,1,1,11-6c2.35,4.31,22.66,42.86,13.25,66.29a26,26,0,0,1-16.83,15.36A6.28,6.28,0,0,1,79,158Z"/><path class="cls-1" d="M29.37,127.13A26.18,26.18,0,0,1,11.51,120a6.23,6.23,0,0,1,8.38-9.23c3.53,3.2,7.21,4.41,11.57,3.78,16.33-2.33,35.79-28.79,41.91-38.79A6.24,6.24,0,1,1,84,82.23c-2.57,4.19-25.79,41.05-50.79,44.63A28,28,0,0,1,29.37,127.13Z"/><path class="cls-1" d="M142,121.58a6,6,0,0,1-1.33-.15,6.23,6.23,0,0,1-4.77-7.41c1-4.66.22-8.44-2.5-11.9-10.16-13-42.83-16.6-54.56-16.91a6.24,6.24,0,0,1,.32-12.47c4.92.13,48.45,1.81,64,21.67a26,26,0,0,1,4.89,22.26A6.25,6.25,0,0,1,142,121.58Z"/><path class="cls-1" d="M79,85.21h-.16c-4.91-.13-48.45-1.81-64-21.67A26,26,0,0,1,9.89,41.28a6.23,6.23,0,1,1,12.18,2.65c-1,4.65-.21,8.43,2.5,11.9,10.16,13,42.83,16.6,54.57,16.91A6.24,6.24,0,0,1,79,85.21Z"/><path class="cls-1" d="M79,85.21A6.25,6.25,0,0,1,73.49,82c-2.34-4.32-22.65-42.86-13.25-66.3A26,26,0,0,1,77.07.3a6.24,6.24,0,0,1,3.8,11.88c-4.54,1.45-7.42,4-9.06,8.12-6.14,15.31,7,45.4,12.64,55.7A6.24,6.24,0,0,1,79,85.21Z"/><circle class="cls-1" cx="78.97" cy="78.97" r="78.97"/><path class="cls-2" d="M79,79s70.49,1.82,63,36.36v0a72.69,72.69,0,0,1-63,36.35C112.65,140.94,79,79,79,79Z"/><path class="cls-3" d="M142,115.34C149.47,80.8,79,79,79,79l-.14-.25c2.63-4.19,37.68-59,62.85-36.12l.21-.13a72.81,72.81,0,0,1,.07,72.88Z"/><path class="cls-4" d="M141.9,42.48l-.21.13C116.52,19.73,81.47,74.54,78.84,78.73,76.58,74.47,46.55,16.62,79,6.24A72.69,72.69,0,0,1,141.9,42.48Z"/><path class="cls-5" d="M79,79s33.67,62,0,72.73a72.66,72.66,0,0,1-62.71-35.87C42.41,138.24,78.69,79,78.69,79v0Z"/><path class="cls-6" d="M79,79l-.29,0a.86.86,0,0,0,.15-.23Z"/><path class="cls-7" d="M78.84,78.73a.86.86,0,0,1-.15.23C73.83,78.79,8.75,75.87,16,42.61A72.69,72.69,0,0,1,79,6.24C46.55,16.62,76.58,74.47,78.84,78.73Z"/><path class="cls-8" d="M78.69,79v0s-36.28,59.26-62.42,36.86A72.76,72.76,0,0,1,16,42.61C8.75,75.87,73.83,78.79,78.69,79Z"/><path class="cls-9" d="M141.9,42.48A72.74,72.74,0,0,1,16.27,115.84,72.74,72.74,0,1,1,141.9,42.48Z"/><path class="cls-9" d="M79,79l-.14-.25C76.58,74.47,46.55,16.62,79,6.24"/><path class="cls-9" d="M79,79l-.29,0C73.83,78.79,8.75,75.87,16,42.61"/><path class="cls-9" d="M79,79s70.49,1.82,63,36.36"/><path class="cls-9" d="M78.69,79s-36.28,59.26-62.42,36.86a6.58,6.58,0,0,1-.57-.5"/><path class="cls-9" d="M79,79s33.67,62,0,72.73"/><path class="cls-9" d="M78.69,79v0a.86.86,0,0,0,.15-.23c2.63-4.19,37.68-59,62.85-36.12"/></g></g></g></svg>