<svg xmlns="http://www.w3.org/2000/svg" viewBox="0 0 471.34 289.9"><defs><style>.cls-1,.cls-8{fill:#fff;}.cls-1,.cls-3,.cls-4,.cls-6,.cls-7{isolation:isolate;}.cls-2{fill:#58575c;}.cls-10,.cls-3{fill:#26a9e1;}.cls-4,.cls-9{fill:#f41822;}.cls-5{fill:#9eed4a;}.cls-11,.cls-6{fill:#f4951d;}.cls-13,.cls-7{fill:#eb237c;}.cls-12{fill:#49c1ea;}.cls-14{fill:none;stroke:#fff;stroke-miterlimit:10;}</style></defs><title>Ativo 1</title><g id="Camada_2" data-name="Camada 2"><g id="Camada_1-2" data-name="Camada 1"><ellipse class="cls-1" cx="220.45" cy="279.1" rx="220.45" ry="10.8"/><ellipse class="cls-2" cx="220.45" cy="279.1" rx="203.17" ry="7.2"/><path class="cls-1" d="M25.39,242.84a10,10,0,0,1-6.19-2.14L3.81,228.57A10,10,0,0,1,0,220.24L5.44,106.18a10,10,0,0,1,10-9.53h.46l24.26,1.09a10,10,0,0,1,9.54,10.47l-4,83.26,18.61-5.36a10,10,0,0,1,12.37,6.81l6.7,23a10,10,0,0,1-6.8,12.39L28.19,242.44A9.92,9.92,0,0,1,25.39,242.84Z"/><path class="cls-3" d="M73.73,218.72,25.39,232.84,10,220.71l5.43-114.06,24.26,1.09L35,205,67,195.73Z"/><path class="cls-1" d="M134.38,247.91c-14.33,0-29.51-2-43.46-16.69l-.07-.08c-30-32.24-20.58-101.68-19.41-109.49l2.35-16.41a10,10,0,0,1,9.9-8.59,10.64,10.64,0,0,1,1.48.11l32.59,4.89a10,10,0,0,1,8.39,11.45l-2.52,16c-3.75,27.24-1,58.53,5.85,65.68l.27.29c.39-.05.88-.1,1.44-.12,5.53-.43,8-2.2,10-4.73,9.19-11.62,8.42-39.15,6.65-49.93l-2.54-16.37a10,10,0,0,1,8.28-11.41L186,107.28a11,11,0,0,1,1.61-.13,10,10,0,0,1,9.85,8.36l2.72,16.29c0,.11.09.67.09.67,2.36,17.48,5.39,61.31-17.48,90.44-11.87,14.89-28.34,23.5-47.66,25Z"/><path class="cls-4" d="M174.93,216.73c-10,12.49-23.9,19.92-40.55,21.18-14.67,0-25.71-2.53-36.21-13.58-26.43-28.42-17.92-94-16.84-101.2l2.36-16.48,32.58,4.89-2.53,16.12c-3.26,23.53-2.9,62.09,8.51,74a9.23,9.23,0,0,0,7.6,3.44c.55,0,1.09-.18,1.81-.18,7.79-.54,13.22-3.26,17.38-8.51,12.31-15.57,10.32-47.79,8.69-57.75l-2.53-16.29,32.41-5.25,2.71,16.29C191.05,138.88,198.11,187.22,174.93,216.73Z"/><path class="cls-1" d="M226.17,246.1c-3.92,0-6.83-.26-7.92-.36l-3.81-.19a10,10,0,0,1-3.59-.87L204,243.63a10,10,0,0,1-8.38-11.33l3.8-26.07a10,10,0,0,1,6-7.78l.87-52.25-.25.07a10.09,10.09,0,0,1-2.92.44,10,10,0,0,1-9.57-7.13L186,114.23a10,10,0,0,1,6.71-12.45L205.37,98c.15,0,.3-.09.45-.12l.06,0a102,102,0,0,1,25.72-3.36c17.06,0,32.15,4.74,43.63,13.71,17.33,13.31,25.88,35.55,24.66,64.25-1.27,36.63-20.45,62.74-51.65,70.75a10,10,0,0,1-6.87,2.73h-8.66C230.29,246.1,228,246.1,226.17,246.1Zm25.94-64.92a54.74,54.74,0,0,0,1.36-10.64,61.55,61.55,0,0,0-1-15.21Z"/><path class="cls-5" d="M289.89,172c-1.08,31.5-16.65,56.49-48.52,62.46v1.45h-9.05c-2.17.18-4.34.18-6.15.18-4.35,0-7.25-.36-7.43-.36h-.18l-3.62-.18v-.36l-9.41-1.45,3.8-26.07,6,.9,1.27-75.86c-.36,0-.54.19-.9.19l-12.5,3.8-7.6-25.35,12.67-3.8a91.7,91.7,0,0,1,23.36-3.08c11.77,0,25.89,2.54,37.47,11.59C283.92,127.47,291,146.48,289.89,172ZM253,136.89a23.47,23.47,0,0,0-10.14-4.53l-1.08,74.78a37,37,0,0,0,9.77-5.44c7.43-6.33,11.41-16.65,11.95-30.77C264.19,154.27,260.75,142.86,253,136.89Z"/><path class="cls-1" d="M335.19,245.92l-32.95-1.09a10,10,0,0,1-9.67-10.36l4.71-128.18a10,10,0,0,1,10-9.64h.34l32.58,1.09a10,10,0,0,1,9.67,10.33l-4.35,128.18a10,10,0,0,1-10,9.66Z"/><path class="cls-6" d="M335.52,235.92l-32.95-1.08,4.7-128.19,32.59,1.09Z"/><path class="cls-1" d="M390.19,245.38a10,10,0,0,1-10-9.82l-1.64-89.91-26.91-.94A10,10,0,0,1,342,134.46l.73-28.06a10,10,0,0,1,10-9.75H353l108.63,2.89a10,10,0,0,1,9.73,10.26l-.73,28.24a10,10,0,0,1-10,9.74h-.25L426.83,147l1.78,87.67a10,10,0,0,1-9.81,10.2Z"/><path class="cls-7" d="M460.62,137.79l-44-1.08,2,98.13-28.42.54L388.38,136,352,134.72l.72-28.07,108.63,2.9Z"/><g id="Logo"><path class="cls-8" d="M333.21,43.25a3.11,3.11,0,0,1-1.65-.47,3.17,3.17,0,0,1-1.05-4.35c1.31-2.12,13.1-20.84,25.78-22.65a13.18,13.18,0,0,1,11,3.5A3.16,3.16,0,0,1,363.06,24a6.78,6.78,0,0,0-5.87-1.92c-8.27,1.18-18.16,14.61-21.28,19.69A3.18,3.18,0,0,1,333.21,43.25Z"/><path class="cls-8" d="M333.35,80.17a3.17,3.17,0,0,1-1-6.18,6.83,6.83,0,0,0,4.6-4.12c3.12-7.77-3.58-23-6.42-28.27a3.17,3.17,0,0,1,5.57-3c1.19,2.2,11.5,21.76,6.72,33.66A13.21,13.21,0,0,1,334.32,80,3.27,3.27,0,0,1,333.35,80.17Z"/><path class="cls-8" d="M308.18,64.53a13.31,13.31,0,0,1-9.07-3.64,3.17,3.17,0,0,1,4.26-4.69,6.77,6.77,0,0,0,5.87,1.92c8.29-1.18,18.17-14.61,21.27-19.69a3.17,3.17,0,0,1,5.4,3.31c-1.3,2.13-13.09,20.84-25.78,22.65A14.44,14.44,0,0,1,308.18,64.53Z"/><path class="cls-8" d="M365.33,61.71a3.05,3.05,0,0,1-.67-.07,3.17,3.17,0,0,1-2.43-3.77,6.8,6.8,0,0,0-1.26-6c-5.16-6.57-21.74-8.42-27.7-8.58a3.17,3.17,0,0,1,.17-6.33c2.49.07,24.59.92,32.5,11a13.19,13.19,0,0,1,2.48,11.3A3.16,3.16,0,0,1,365.33,61.71Z"/><path class="cls-8" d="M333.36,43.25h-.09c-2.49-.06-24.59-.92-32.5-11A13.19,13.19,0,0,1,298.29,21a3.16,3.16,0,1,1,6.18,1.35,6.8,6.8,0,0,0,1.27,6c5.16,6.57,21.74,8.42,27.7,8.58a3.17,3.17,0,0,1-.08,6.33Z"/><path class="cls-8" d="M333.36,43.25a3.18,3.18,0,0,1-2.79-1.65c-1.19-2.2-11.5-21.76-6.72-33.65a13.17,13.17,0,0,1,8.54-7.8,3.17,3.17,0,0,1,1.93,6,6.79,6.79,0,0,0-4.6,4.12c-3.12,7.77,3.57,23.05,6.42,28.27a3.16,3.16,0,0,1-2.78,4.68Z"/><circle class="cls-8" cx="333.35" cy="40.09" r="40.08"/><path class="cls-2" d="M333.35,40.09s35.78.92,32,18.46a36.91,36.91,0,0,1-32,18.46C350.45,71.54,333.35,40.09,333.35,40.09Z"/><path class="cls-9" d="M365.33,58.55c3.8-17.54-32-18.46-32-18.46a.49.49,0,0,0-.06-.12c1.29-2.07,19.1-30,31.89-18.34l.11-.07a37,37,0,0,1,0,37Z"/><path class="cls-10" d="M365.29,21.56l-.11.07C352.39,10,334.58,37.9,333.29,40c-1.12-2.11-16.41-31.53.06-36.8A36.88,36.88,0,0,1,365.29,21.56Z"/><path class="cls-11" d="M333.35,40.09s17.1,31.45,0,36.92a36.9,36.9,0,0,1-31.83-18.22c13.27,11.38,31.69-18.7,31.69-18.7h.14Z"/><path class="cls-12" d="M333.35,40.09h-.14s0,0,.08-.11A.49.49,0,0,1,333.35,40.09Z"/><path class="cls-5" d="M333.29,40c0,.06-.06.1-.08.11-2.41-.08-35.5-1.56-31.83-18.45a36.88,36.88,0,0,1,32-18.46C316.88,8.44,332.17,37.86,333.29,40Z"/><path class="cls-13" d="M333.21,40.08h0s-18.42,30.08-31.69,18.7a36.9,36.9,0,0,1-.14-37.16C297.71,38.52,330.8,40,333.21,40.08Z"/><path class="cls-14" d="M365.29,21.56A36.92,36.92,0,1,1,333.35,3.17,36.73,36.73,0,0,1,365.29,21.56Z"/><path class="cls-14" d="M333.35,40.09a.49.49,0,0,0-.06-.12c-1.12-2.11-16.41-31.53.06-36.8"/><path class="cls-14" d="M333.35,40.09h-.14c-2.41-.08-35.5-1.56-31.83-18.45"/><path class="cls-14" d="M333.35,40.09s35.78.92,32,18.46"/><path class="cls-14" d="M333.21,40.09s-18.42,30.08-31.69,18.7l-.28-.24"/><path class="cls-14" d="M333.35,40.09s17.1,31.45,0,36.92"/><path class="cls-14" d="M333.21,40.09h0s0,0,.08-.11c1.29-2.07,19.1-30,31.89-18.34"/></g></g></g></svg>