<svg xmlns="http://www.w3.org/2000/svg" viewBox="0 0 327.05 318.6"><defs><style>.cls-1{fill:#f8b54d;}.cls-2{fill:#ffd05c;}.cls-3{fill:#f8b54c;}.cls-4{fill:#3c586e;}</style></defs><title>Ativo 1</title><g id="Camada_2" data-name="Camada 2"><g id="Camada_1-2" data-name="Camada 1"><path class="cls-1" d="M84.61,134.67h0C23.7,123.57,21.93,41,21.93,41l39.76.36c.18-6.7-1.29-13.91-.12-20.88H0s3,127,105.05,144.13C105.05,164.65,95.17,153.48,84.61,134.67Z"/><path class="cls-1" d="M242.43,134.67h0C303.35,123.57,305.11,41,305.11,41l-39.75.36c-.18-6.7,1.29-13.91.12-20.88h61.57s-3,127-105,144.13C222,164.65,231.88,153.48,242.43,134.67Z"/><path class="cls-2" d="M193.25,193C288.45,117,263,0,263,0H63.13S37.7,117,132.9,193a27.49,27.49,0,0,1,9.33,29.15c-3.56,12.16-12.58,20.62-17.54,26.29h76.77c-5-5.67-14-14.13-17.54-26.29A27.49,27.49,0,0,1,193.25,193Z"/><rect class="cls-3" x="128.53" y="191.47" width="69.12" height="19.01" rx="9.5"/><rect class="cls-3" x="104.05" y="245.12" width="119.04" height="34.08" rx="15.84"/><polygon class="cls-3" points="163.57 25.34 179.63 57.88 215.54 63.1 189.55 88.43 195.69 124.2 163.57 107.31 131.44 124.2 137.58 88.43 111.59 63.1 147.51 57.88 163.57 25.34"/><path class="cls-4" d="M108.09,266.16H219a23.72,23.72,0,0,1,23.72,23.72V318.6a0,0,0,0,1,0,0H84.37a0,0,0,0,1,0,0V289.88A23.72,23.72,0,0,1,108.09,266.16Z"/></g></g></svg>