<svg xmlns="http://www.w3.org/2000/svg" xmlns:xlink="http://www.w3.org/1999/xlink" viewBox="0 0 587.98 354.38"><defs><style>.cls-1,.cls-49{fill:none;}.cls-2,.cls-41,.cls-42,.cls-44,.cls-49{stroke:#931111;stroke-width:5px;}.cls-2,.cls-41,.cls-42,.cls-44,.cls-46{stroke-miterlimit:10;}.cls-2{fill:url(#Gradiente_sem_nome_6);}.cls-3{clip-path:url(#clip-path);}.cls-4{fill:#ed0504;}.cls-5{fill:#ed0605;}.cls-6{fill:#ec0705;}.cls-7{fill:#ec0806;}.cls-8{fill:#eb0907;}.cls-9{fill:#eb0a08;}.cls-10{fill:#ea0b08;}.cls-11{fill:#ea0c09;}.cls-12{fill:#e90d0a;}.cls-13{fill:#e90e0b;}.cls-14{fill:#e80f0c;}.cls-15{fill:#e8100c;}.cls-16{fill:#e7110d;}.cls-17{fill:#e7120e;}.cls-18{fill:#e6130f;}.cls-19{fill:#e6150f;}.cls-20{fill:#e51610;}.cls-21{fill:#e51711;}.cls-22{fill:#e41812;}.cls-23{fill:#e41912;}.cls-24{fill:#e31a13;}.cls-25{fill:#e31b14;}.cls-26{fill:#e21c15;}.cls-27{fill:#e21d16;}.cls-28{fill:#e11e16;}.cls-29{fill:#e11f17;}.cls-30{fill:#e02018;}.cls-31{fill:#e02119;}.cls-32{fill:#df2219;}.cls-33{fill:#df231a;}.cls-34{fill:#de241b;}.cls-35{fill:#de251c;}.cls-36{fill:#dd261c;}.cls-37{fill:#dd271d;}.cls-38{fill:#dc281e;}.cls-39{fill:#fcdd8d;}.cls-40{fill:#931111;}.cls-41{fill:url(#Gradiente_sem_nome_6-2);}.cls-42{fill:url(#Gradiente_sem_nome_6-3);}.cls-43{clip-path:url(#clip-path-2);}.cls-44{fill:url(#Gradiente_sem_nome_6-4);}.cls-45{fill:#fff;}.cls-46{fill:#ffe08e;stroke:#e8be60;stroke-width:3px;}.cls-47{fill:#2c1108;}.cls-48{fill:#ef586b;}.cls-49{stroke-linecap:round;stroke-linejoin:round;}</style><linearGradient id="Gradiente_sem_nome_6" x1="189.29" y1="272.69" x2="255.32" y2="272.69" gradientUnits="userSpaceOnUse"><stop offset="0" stop-color="#f00000"/><stop offset="1" stop-color="#dc281e"/></linearGradient><clipPath id="clip-path"><path class="cls-1" d="M288.6,282.85v53.84a15.25,15.25,0,0,1-8.44,13.61,15,15,0,0,1-6.75,1.59H237.77a15.22,15.22,0,0,1-15.2-15.2V282.85a15.24,15.24,0,0,1,15.2-15.2h35.64A15.24,15.24,0,0,1,288.6,282.85Z"/></clipPath><linearGradient id="Gradiente_sem_nome_6-2" x1="349.13" y1="298.61" x2="415.16" y2="298.61" xlink:href="#Gradiente_sem_nome_6"/><linearGradient id="Gradiente_sem_nome_6-3" x1="204.77" y1="120.22" x2="377.57" y2="190.78" xlink:href="#Gradiente_sem_nome_6"/><clipPath id="clip-path-2"><path class="cls-1" d="M449.37,282.85v53.84a15.2,15.2,0,0,1-15.2,15.2H398.53a15.07,15.07,0,0,1-5.86-1.18,15.25,15.25,0,0,1-9.33-14V282.85a15.24,15.24,0,0,1,15.19-15.2h35.64A15.24,15.24,0,0,1,449.37,282.85Z"/></clipPath><linearGradient id="Gradiente_sem_nome_6-4" x1="-16.94" y1="236.17" x2="221.74" y2="92.53" xlink:href="#Gradiente_sem_nome_6"/></defs><title>Ativo 1</title><g id="Camada_2" data-name="Camada 2"><g id="Camada_1-2" data-name="Camada 1"><rect id="pé_esq_atras" data-name="pé esq atras" class="cls-2" x="189.29" y="204.65" width="66.03" height="136.08" rx="15.2"/><g id="pe_esq_frente" data-name="pe esq frente"><g class="cls-3"><polygon class="cls-4" points="222.57 351.08 225.63 351.88 222.57 351.88 222.57 351.08"/><polygon class="cls-5" points="222.57 348.88 233.97 351.88 225.63 351.88 222.57 351.08 222.57 348.88"/><polygon class="cls-6" points="222.57 346.69 242.3 351.88 233.97 351.88 222.57 348.88 222.57 346.69"/><polygon class="cls-7" points="222.57 344.5 250.64 351.88 242.3 351.88 222.57 346.69 222.57 344.5"/><polygon class="cls-8" points="222.57 342.3 258.98 351.88 250.64 351.88 222.57 344.5 222.57 342.3"/><polygon class="cls-9" points="222.57 340.11 267.32 351.88 258.98 351.88 222.57 342.3 222.57 340.11"/><polygon class="cls-10" points="222.57 337.92 275.65 351.88 267.32 351.88 222.57 340.11 222.57 337.92"/><polygon class="cls-11" points="222.57 335.72 283.99 351.88 275.65 351.88 222.57 337.92 222.57 335.72"/><polygon class="cls-12" points="222.57 333.53 288.49 350.88 288.23 351.88 283.99 351.88 222.57 335.72 222.57 333.53"/><polygon class="cls-13" points="222.57 331.33 288.6 348.71 288.6 350.48 288.49 350.88 222.57 333.53 222.57 331.33"/><polygon class="cls-14" points="222.57 329.14 288.6 346.51 288.6 348.71 222.57 331.33 222.57 329.14"/><polygon class="cls-15" points="222.57 326.94 288.6 344.32 288.6 346.51 222.57 329.14 222.57 326.94"/><polygon class="cls-16" points="222.57 324.75 288.6 342.13 288.6 344.32 222.57 326.94 222.57 324.75"/><polygon class="cls-17" points="222.57 322.56 288.6 339.93 288.6 342.13 222.57 324.75 222.57 322.56"/><polygon class="cls-18" points="222.57 320.36 288.6 337.74 288.6 339.93 222.57 322.56 222.57 320.36"/><polygon class="cls-19" points="222.57 318.17 288.6 335.54 288.6 337.74 222.57 320.36 222.57 318.17"/><polygon class="cls-20" points="222.57 315.97 288.6 333.35 288.6 335.54 222.57 318.17 222.57 315.97"/><polygon class="cls-21" points="222.57 313.78 288.6 331.16 288.6 333.35 222.57 315.97 222.57 313.78"/><polygon class="cls-22" points="222.57 311.58 288.6 328.96 288.6 331.16 222.57 313.78 222.57 311.58"/><polygon class="cls-23" points="222.57 309.39 288.6 326.77 288.6 328.96 222.57 311.58 222.57 309.39"/><polygon class="cls-24" points="222.57 307.2 288.6 324.57 288.6 326.77 222.57 309.39 222.57 307.2"/><polygon class="cls-25" points="222.57 305 288.6 322.38 288.6 324.57 222.57 307.2 222.57 305"/><polygon class="cls-26" points="222.57 302.81 288.6 320.19 288.6 322.38 222.57 305 222.57 302.81"/><polygon class="cls-27" points="222.57 300.62 288.6 317.99 288.6 320.19 222.57 302.81 222.57 300.62"/><polygon class="cls-28" points="222.57 298.42 288.6 315.8 288.6 317.99 222.57 300.62 222.57 298.42"/><polygon class="cls-29" points="222.57 296.23 288.6 313.6 288.6 315.8 222.57 298.42 222.57 296.23"/><polygon class="cls-30" points="222.57 294.03 288.6 311.41 288.6 313.6 222.57 296.23 222.57 294.03"/><polygon class="cls-31" points="222.57 291.84 288.6 309.21 288.6 311.41 222.57 294.03 222.57 291.84"/><polygon class="cls-32" points="222.57 289.64 288.6 307.02 288.6 309.21 222.57 291.84 222.57 289.64"/><polygon class="cls-33" points="222.57 287.45 288.6 304.83 288.6 307.02 222.57 289.64 222.57 287.45"/><polygon class="cls-34" points="222.57 285.26 288.6 302.63 288.6 304.83 222.57 287.45 222.57 285.26"/><polygon class="cls-35" points="222.57 283.06 288.6 300.44 288.6 302.63 222.57 285.26 222.57 283.06"/><polygon class="cls-36" points="222.57 280.87 288.6 298.24 288.6 300.44 222.57 283.06 222.57 280.87"/><polygon class="cls-37" points="222.57 278.67 288.6 296.05 288.6 298.24 222.57 280.87 222.57 278.67"/><polygon class="cls-38" points="222.57 276.48 288.6 293.86 288.6 296.05 222.57 278.67 222.57 276.48"/><polygon class="cls-38" points="288.6 293.86 222.57 276.48 222.57 267.64 288.6 267.64 288.6 293.86"/></g><path class="cls-39" d="M263.61,333.93v16.12a4.35,4.35,0,0,1-.41,1.84H250.35a4.21,4.21,0,0,1-.42-1.84V333.93a4.37,4.37,0,0,1,4.36-4.36h5A4.37,4.37,0,0,1,263.61,333.93Z"/><path class="cls-39" d="M280.17,333.93v16.12a2,2,0,0,1,0,.25,15,15,0,0,1-6.75,1.59h-6.5a4.21,4.21,0,0,1-.42-1.84V333.93a4.37,4.37,0,0,1,4.36-4.36h5A4.37,4.37,0,0,1,280.17,333.93Z"/><path class="cls-39" d="M245.43,335.19v16.12a3.69,3.69,0,0,1,0,.58h-7.62a15.12,15.12,0,0,1-6-1.25V335.19a4.37,4.37,0,0,1,4.36-4.36h5A4.37,4.37,0,0,1,245.43,335.19Z"/><path class="cls-40" d="M273.41,354.38H237.77a17.7,17.7,0,0,1-17.7-17.69V282.85a17.73,17.73,0,0,1,17.7-17.71h35.64a17.73,17.73,0,0,1,17.69,17.71v53.84a17.7,17.7,0,0,1-17.69,17.69Zm-35.64-84.24a12.71,12.71,0,0,0-12.7,12.71v53.84a12.7,12.7,0,0,0,12.7,12.69h35.64a12.49,12.49,0,0,0,5.62-1.32,12.67,12.67,0,0,0,7.07-11.37V282.85a12.72,12.72,0,0,0-12.69-12.71Z"/></g><rect id="pé_dir_atras" data-name="pé dir atras" class="cls-41" x="349.13" y="256.49" width="66.03" height="84.24" rx="15.2"/><path class="cls-42" d="M548.83,247.22c-30.27,24.48-71.57,31-92.54,32.76a312.88,312.88,0,0,0-31.7,4.23c-221,41.42-256.13-31.57-256.82-80.44a118.27,118.27,0,0,1,4.72-34.19l.15-.53a72.71,72.71,0,0,0,2.05-9.7c18.45-126.57,181.93-139.63,261.79-49.7a119.57,119.57,0,0,1,17.73,26.88c31,63.35,60.09,65,80,53.63,16.22-9.25,25.46-27.13,24.62-45.79-.71-15.61.79-34.58,13.17-28.8a15.93,15.93,0,0,1,8.65,10.94C594.71,188.05,576.3,225,548.83,247.22Z"/><g id="pe_dir_frente" data-name="pe dir frente"><g class="cls-43"><polygon class="cls-8" points="383.34 350.99 387.75 351.88 383.34 351.88 383.34 350.99"/><polygon class="cls-9" points="383.34 347.85 403.3 351.88 387.75 351.88 383.34 350.99 383.34 347.85"/><polygon class="cls-10" points="383.34 344.7 418.85 351.88 403.3 351.88 383.34 347.85 383.34 344.7"/><polygon class="cls-11" points="383.34 341.55 434.41 351.88 418.85 351.88 383.34 344.7 383.34 341.55"/><polygon class="cls-12" points="383.34 338.4 449.37 351.76 449.37 351.88 434.41 351.88 383.34 341.55 383.34 338.4"/><polygon class="cls-13" points="383.34 335.25 449.37 348.62 449.37 351.76 383.34 338.4 383.34 335.25"/><polygon class="cls-14" points="383.34 332.11 449.37 345.47 449.37 348.62 383.34 335.25 383.34 332.11"/><polygon class="cls-15" points="383.34 328.96 449.37 342.32 449.37 345.47 383.34 332.11 383.34 328.96"/><polygon class="cls-16" points="383.34 325.81 449.37 339.17 449.37 342.32 383.34 328.96 383.34 325.81"/><polygon class="cls-17" points="383.34 322.66 449.37 336.02 449.37 339.17 383.34 325.81 383.34 322.66"/><polygon class="cls-18" points="383.34 319.51 449.37 332.88 449.37 336.02 383.34 322.66 383.34 319.51"/><polygon class="cls-19" points="383.34 316.37 449.37 329.73 449.37 332.88 383.34 319.51 383.34 316.37"/><polygon class="cls-20" points="383.34 313.22 449.37 326.58 449.37 329.73 383.34 316.37 383.34 313.22"/><polygon class="cls-21" points="383.34 310.07 449.37 323.43 449.37 326.58 383.34 313.22 383.34 310.07"/><polygon class="cls-22" points="383.34 306.92 449.37 320.29 449.37 323.43 383.34 310.07 383.34 306.92"/><polygon class="cls-23" points="383.34 303.77 449.37 317.14 449.37 320.29 383.34 306.92 383.34 303.77"/><polygon class="cls-24" points="383.34 300.63 449.37 313.99 449.37 317.14 383.34 303.77 383.34 300.63"/><polygon class="cls-25" points="383.34 297.48 449.37 310.84 449.37 313.99 383.34 300.63 383.34 297.48"/><polygon class="cls-26" points="383.34 294.33 449.37 307.69 449.37 310.84 383.34 297.48 383.34 294.33"/><polygon class="cls-27" points="383.34 291.18 449.37 304.55 449.37 307.69 383.34 294.33 383.34 291.18"/><polygon class="cls-28" points="383.34 288.04 449.37 301.4 449.37 304.55 383.34 291.18 383.34 288.04"/><polygon class="cls-29" points="383.34 284.89 449.37 298.25 449.37 301.4 383.34 288.04 383.34 284.89"/><polygon class="cls-30" points="383.34 281.74 449.37 295.1 449.37 298.25 383.34 284.89 383.34 281.74"/><polygon class="cls-31" points="383.34 278.59 449.37 291.95 449.37 295.1 383.34 281.74 383.34 278.59"/><polygon class="cls-32" points="383.34 275.44 449.37 288.81 449.37 291.95 383.34 278.59 383.34 275.44"/><polygon class="cls-33" points="383.34 272.3 449.37 285.66 449.37 288.81 383.34 275.44 383.34 272.3"/><polygon class="cls-34" points="383.34 269.15 449.37 282.51 449.37 285.66 383.34 272.3 383.34 269.15"/><polygon class="cls-35" points="391.46 267.64 449.37 279.36 449.37 282.51 383.34 269.15 383.34 267.64 391.46 267.64"/><polygon class="cls-36" points="407.02 267.64 449.37 276.22 449.37 279.36 391.46 267.64 407.02 267.64"/><polygon class="cls-37" points="422.57 267.64 449.37 273.07 449.37 276.22 407.02 267.64 422.57 267.64"/><polygon class="cls-38" points="438.13 267.64 449.37 269.92 449.37 273.07 422.57 267.64 438.13 267.64"/></g><path class="cls-39" d="M405.61,335.78v15.46a3.82,3.82,0,0,1-.06.68H398.1a14.46,14.46,0,0,1-5.62-1.13v-15a4.19,4.19,0,0,1,4.18-4.18h4.75A4.2,4.2,0,0,1,405.61,335.78Z"/><path class="cls-39" d="M424,335.07v16.11a4.17,4.17,0,0,1-.06.71H410.37a4.17,4.17,0,0,1-.06-.71V335.07a4.37,4.37,0,0,1,4.36-4.36h5A4.37,4.37,0,0,1,424,335.07Z"/><path class="cls-39" d="M440.73,335.07V350.4a15.21,15.21,0,0,1-6.56,1.49h-7.06a4.17,4.17,0,0,1-.06-.71V335.07a4.37,4.37,0,0,1,4.36-4.36h5A4.37,4.37,0,0,1,440.73,335.07Z"/><path class="cls-40" d="M434.17,354.38H398.53A17.5,17.5,0,0,1,391.7,353a17.7,17.7,0,0,1-10.86-16.32V282.85a17.72,17.72,0,0,1,17.69-17.71h35.64a17.73,17.73,0,0,1,17.7,17.71v53.84a17.69,17.69,0,0,1-17.7,17.69Zm-35.64-84.24a12.71,12.71,0,0,0-12.69,12.71v53.84a12.7,12.7,0,0,0,7.8,11.71,12.52,12.52,0,0,0,4.89,1h35.64a12.58,12.58,0,0,0,5.48-1.24,12.8,12.8,0,0,0,7.22-11.45V282.85a12.72,12.72,0,0,0-12.7-12.71Z"/></g><g id="manchas"><circle class="cls-40" cx="349.13" cy="128.2" r="7.84"/><circle class="cls-40" cx="297.74" cy="82.48" r="6.65"/><circle class="cls-40" cx="388.52" cy="100.73" r="10.52"/><ellipse class="cls-40" cx="423.99" cy="140.69" rx="16.74" ry="12.49"/><ellipse class="cls-40" cx="347.38" cy="95.97" rx="18.11" ry="13.49"/><ellipse class="cls-40" cx="304.39" cy="116.69" rx="15.72" ry="13.22"/><ellipse class="cls-40" cx="385.84" cy="129.91" rx="15.72" ry="13.22" transform="translate(-16.64 191.2) rotate(-27.27)"/></g><path class="cls-44" d="M227.46,182.2a22.47,22.47,0,0,0-13.23,21.46,117.17,117.17,0,0,1-2.83,21.74,48,48,0,0,1-5.06,13.32l0,0c-.77,1.13-1.62,2.27-2.53,3.41l0,0C197.58,248.85,137,303,97.2,313.92c-9,1.57-17.83,1.14-25.81-2.45,0,0-.32-.14-.88-.42-4.52-2.34-24.34-14.65-7.63-44.29.59-1.05,1.23-2.13,1.92-3.23a292.53,292.53,0,0,1-29.24-2.85A18.46,18.46,0,0,1,24,254.15l0,0c-4.43-6.58-5.16-17.08,1.84-33.64a46.63,46.63,0,0,1,20.76-22.7,23.06,23.06,0,0,0,2.63-1.67c.57-.41,1.16-.8,1.75-1.18a18.37,18.37,0,0,0,8.32-13c.25-1.86.53-3.8.84-5.76q.75-4.75,1.19-9.56a39.78,39.78,0,0,1,4.16-14.84l0-.09A41.86,41.86,0,0,0,70,135.89c0-.25,0-.51,0-.76a41.61,41.61,0,0,0-7-25.63C25.27,52.38,46.92,42,59.46,43.37c8.17.9,13.33,3.94,19.55,4A16.11,16.11,0,0,0,94.15,36.59C100.89,18,110.82,2.06,131.09,2.51a32.4,32.4,0,0,1,17.67,6c11.56,8,22,12,30.49,13.88a45.17,45.17,0,0,0,32-5.05c37.2-21.19,57,.15,57,.15S291.82,41,267.4,83.61a17.92,17.92,0,0,0,5.91,24.12l.64.39a19.5,19.5,0,0,1,9.5,12.46C286.5,133.83,282,157.73,227.46,182.2Z"/><ellipse class="cls-45" cx="162.36" cy="169.79" rx="17.02" ry="24.6"/><ellipse cx="161.51" cy="169.79" rx="9.25" ry="13.37"/><ellipse class="cls-45" cx="168.69" cy="160.64" rx="6.33" ry="9.15"/><ellipse class="cls-45" cx="105.62" cy="169.79" rx="17.02" ry="24.42"/><ellipse cx="104.77" cy="169.79" rx="9.25" ry="13.28"/><ellipse class="cls-45" cx="111.95" cy="160.71" rx="6.33" ry="9.08"/><path class="cls-46" d="M193.22,103.21a9.5,9.5,0,0,1,4.49,9.37c-1.41,11.12-6.23,30.6-22.69,18.57-18.46-13.51-16.3-34.85-15-41.87a16.93,16.93,0,0,1,2-5.49c1.43-2.44,3.84-5.09,7-3.08C173.61,83.65,181.9,96.5,193.22,103.21Z"/><path class="cls-46" d="M35.85,190.77s39.36,16.8,5.28,44.64c-29.28,16.32-53.28-54.1-30.72-76.49C16.8,155.25,23.86,189.29,35.85,190.77Z"/><path class="cls-47" d="M120.78,267.64c-9.87,17.82-33.76,27.05-43.89,30.27a6.52,6.52,0,0,1-4.47-.19A6.44,6.44,0,0,1,69,294.33c-3.33-7.66-1.67-17.76-.19-23.64a6.51,6.51,0,0,1,6-4.93c9.35-.51,25-2.16,37.93-7.4a6.35,6.35,0,0,1,3-.47A6.57,6.57,0,0,1,120.78,267.64Z"/><path class="cls-48" d="M120.78,267.64c-9.87,17.82-33.76,27.05-43.89,30.27h0a2,2,0,0,1-2.12-3.23c9.84-12.34,25.3-25.07,37.6-34.28,4.61-3.46,11.09,1.41,8.74,6.67C121,267.27,120.88,267.46,120.78,267.64Z"/><path class="cls-40" d="M74.92,299.21a7.51,7.51,0,0,1-2.88-.57,7.4,7.4,0,0,1-4-3.91c-3.5-8.06-1.65-18.67-.24-24.28a7.47,7.47,0,0,1,6.89-5.69c8.45-.46,24.57-2,37.61-7.33a7.42,7.42,0,0,1,9.45,3.46,7.44,7.44,0,0,1-.1,7.23h0c-10.07,18.19-34.45,27.56-44.46,30.74A7.36,7.36,0,0,1,74.92,299.21Zm40.22-40.35a5.47,5.47,0,0,0-2.09.43c-13.31,5.41-29.68,7-38.25,7.47a5.48,5.48,0,0,0-5.06,4.17c-1.35,5.37-3.13,15.49.14,23a5.43,5.43,0,0,0,2.92,2.87,5.61,5.61,0,0,0,3.79.16c9.78-3.11,33.59-12.24,43.31-29.81h0a5.47,5.47,0,0,0,.07-5.32,5.53,5.53,0,0,0-4.34-2.94Z"/><path class="cls-49" d="M128.66,242.16a28.14,28.14,0,0,1-7.25,8.67c-16.23,13.23-47,13.3-57.58,12.9-2.33-.09-3.68-.2-3.68-.2"/><path class="cls-46" d="M91.55,107.2a9.49,9.49,0,0,1,4.5,9.37c-1.41,11.12-6.24,30.6-22.69,18.57-18.46-13.51-16.31-34.85-15-41.87a17.19,17.19,0,0,1,2-5.49c1.42-2.44,3.83-5.09,7-3.08C72,87.64,80.24,100.49,91.55,107.2Z"/></g></g></svg>