<svg xmlns="http://www.w3.org/2000/svg" viewBox="0 0 1089 911.34"><defs><style>.cls-1{fill:#e0e0e0;opacity:0.5;}.cls-2{fill:#38bcd3;}.cls-2,.cls-3,.cls-5{stroke:#2c5f8a;}.cls-2,.cls-3{stroke-linecap:round;stroke-linejoin:round;stroke-width:5px;}.cls-3{fill:#7e6acd;}.cls-4{fill:#2c5f8a;}.cls-5{fill:none;stroke-miterlimit:10;stroke-width:10px;}</style></defs><title>Ativo 5</title><g id="Camada_2" data-name="Camada 2"><g id="Camada_2-2" data-name="Camada 2"><rect class="cls-1" y="572.34" width="814" height="115" rx="57.5"/><rect class="cls-1" x="275" y="796.34" width="814" height="115" rx="57.5"/><rect class="cls-1" x="339" y="344.34" width="562" height="134" rx="57.5"/><rect class="cls-1" x="20" y="134.34" width="562" height="134" rx="57.5"/><path class="cls-2" d="M401.84,145.34V439.59c-19.56-3.28-46.27.91-72.95,13-44.78,20.25-72.34,54.84-61.55,77.26s55.82,24.18,100.6,3.94,72.33-54.84,61.55-77.26l-.06-.1V255.32C545.93,244.42,555.12,399,555.12,399,616.44,170.11,401.84,145.34,401.84,145.34Z"/><path class="cls-3" d="M812.32,558.12l-5.81-254.41L589.87,375.05V593.13c-18.18-5.12-43.57-2.42-68.45,8.82-39.71,18-63.07,50.89-52.17,73.55S521.17,702,560.88,684c37.6-17,60.49-47.41,53.58-69.83h0l-.1-168.41,174.36-56.85V540.68c-18.15-5-43.36-2.25-68.06,8.92-39.71,18-63.07,50.88-52.17,73.54s51.92,26.48,91.63,8.53S823.22,580.79,812.32,558.12Z"/><polygon class="cls-4" points="142.28 249.42 139.06 217.1 118.92 191.62 151.24 188.4 176.72 168.26 179.94 200.58 200.08 226.06 167.76 229.27 142.28 249.42"/><polygon class="cls-4" points="562.4 100 558.44 60.18 533.62 28.78 573.44 24.82 604.83 0 608.79 39.82 633.62 71.22 593.79 75.18 562.4 100"/><circle class="cls-5" cx="302.5" cy="49.84" r="36.5"/><circle class="cls-5" cx="964" cy="402.34" r="18"/><circle class="cls-4" cx="215" cy="402.34" r="18"/><circle class="cls-4" cx="872" cy="137.34" r="25"/><path class="cls-4" d="M674.54,178.38H663.46V167.29a7,7,0,0,0-13.92,0v11.09H638.46a7,7,0,0,0-7,7h0a7,7,0,0,0,7,6.95h11.08v11.09a7,7,0,0,0,13.92,0V192.29h11.08a7,7,0,0,0,7-6.95h0A7,7,0,0,0,674.54,178.38Z"/><path class="cls-4" d="M993.37,238.21H975.63V220.47a11.13,11.13,0,0,0-22.26,0v17.74H935.63a11.16,11.16,0,0,0-11.13,11.13h0a11.16,11.16,0,0,0,11.13,11.13h17.74v17.74a11.13,11.13,0,0,0,22.26,0V260.47h17.74a11.16,11.16,0,0,0,11.13-11.13h0A11.16,11.16,0,0,0,993.37,238.21Z"/></g></g></svg>