<svg xmlns="http://www.w3.org/2000/svg" viewBox="0 0 1089 911.34"><defs><style>.cls-1{fill:#e0e0e0;opacity:0.5;}.cls-2{fill:#2c5f8a;}.cls-3,.cls-8{fill:none;}.cls-3,.cls-4,.cls-8{stroke:#2c5f8a;}.cls-3{stroke-miterlimit:10;stroke-width:10px;}.cls-4{fill:#7e6acd;}.cls-4,.cls-8{stroke-linecap:round;stroke-linejoin:round;stroke-width:5px;}.cls-5{fill:#fff;}.cls-6{fill:#39bbd5;}.cls-7{fill:#43c9e2;}.cls-9{fill:#38bcd3;}</style></defs><title>Ativo 7</title><g id="Camada_2" data-name="Camada 2"><g id="Camada_4" data-name="Camada 4"><rect class="cls-1" y="572.34" width="814" height="115" rx="57.5"/><rect class="cls-1" x="275" y="796.34" width="814" height="115" rx="57.5"/><rect class="cls-1" x="339" y="344.34" width="562" height="134" rx="57.5"/><rect class="cls-1" x="20" y="134.34" width="562" height="134" rx="57.5"/><polygon class="cls-2" points="142.28 249.42 139.06 217.1 118.92 191.62 151.24 188.4 176.72 168.26 179.94 200.58 200.08 226.06 167.76 229.27 142.28 249.42"/><polygon class="cls-2" points="562.4 100 558.44 60.18 533.62 28.78 573.44 24.82 604.83 0 608.79 39.82 633.62 71.22 593.79 75.18 562.4 100"/><circle class="cls-3" cx="302.5" cy="49.84" r="36.5"/><circle class="cls-3" cx="964" cy="402.34" r="18"/><circle class="cls-2" cx="215" cy="402.34" r="18"/><circle class="cls-2" cx="872" cy="137.34" r="25"/><path class="cls-2" d="M674.54,178.38H663.46V167.29a7,7,0,0,0-13.92,0v11.09H638.46a7,7,0,0,0-7,7h0a7,7,0,0,0,7,6.95h11.08v11.09a7,7,0,0,0,13.92,0V192.29h11.08a7,7,0,0,0,7-6.95h0A7,7,0,0,0,674.54,178.38Z"/><path class="cls-2" d="M993.37,238.21H975.63V220.47a11.13,11.13,0,0,0-22.26,0v17.74H935.63a11.16,11.16,0,0,0-11.13,11.13h0a11.16,11.16,0,0,0,11.13,11.13h17.74v17.74a11.13,11.13,0,0,0,22.26,0V260.47h17.74a11.16,11.16,0,0,0,11.13-11.13h0A11.16,11.16,0,0,0,993.37,238.21Z"/><rect class="cls-4" x="308.52" y="289.34" width="547.16" height="473.72"/><rect class="cls-5" x="359.52" y="324.84" width="42.84" height="34.27"/><rect class="cls-5" x="359.52" y="399.51" width="42.84" height="34.27"/><rect class="cls-5" x="359.52" y="472.95" width="42.84" height="34.27"/><rect class="cls-5" x="359.52" y="546.4" width="42.84" height="34.27"/><rect class="cls-5" x="359.52" y="619.84" width="42.84" height="34.27"/><rect class="cls-5" x="359.52" y="693.29" width="42.84" height="34.27"/><rect class="cls-5" x="761.84" y="324.84" width="42.84" height="34.27"/><rect class="cls-5" x="761.84" y="399.51" width="42.84" height="34.27"/><rect class="cls-5" x="761.84" y="472.95" width="42.84" height="34.27"/><rect class="cls-5" x="761.84" y="546.4" width="42.84" height="34.27"/><rect class="cls-5" x="761.84" y="619.84" width="42.84" height="34.27"/><rect class="cls-5" x="761.84" y="693.29" width="42.84" height="34.27"/><rect class="cls-6" x="582.1" y="289.34" width="123.63" height="274.19"/><rect class="cls-7" x="456.02" y="289.34" width="126.08" height="274.19"/><polygon class="cls-8" points="582.1 289.34 705.74 289.34 705.74 563.53 582.1 563.53 456.02 563.53 456.02 289.34 582.1 289.34"/><polygon class="cls-9" points="705.74 606.38 705.74 763.06 580.88 763.06 582.1 606.38 705.74 606.38"/><polygon class="cls-7" points="582.1 606.38 580.88 763.06 456.02 763.06 456.02 606.38 582.1 606.38"/><polygon class="cls-8" points="582.1 606.38 705.74 606.38 705.74 763.06 580.88 763.06 456.02 763.06 456.02 606.38 582.1 606.38"/></g></g></svg>