<svg xmlns="http://www.w3.org/2000/svg" viewBox="0 0 1089 911.34"><defs><style>.cls-1{fill:#e0e0e0;opacity:0.5;}.cls-2{fill:#2c5f8a;}.cls-3,.cls-8{fill:none;}.cls-3,.cls-5,.cls-6,.cls-7,.cls-8{stroke:#2c5f8a;}.cls-3{stroke-miterlimit:10;stroke-width:10px;}.cls-4,.cls-5{fill:#38bcd3;}.cls-5,.cls-6,.cls-7,.cls-8{stroke-linecap:round;stroke-linejoin:round;stroke-width:5px;}.cls-6{fill:#3d9fb3;}.cls-7,.cls-9{fill:#39d5e5;}</style></defs><title>Ativo 8</title><g id="Camada_2" data-name="Camada 2"><g id="Camada_5" data-name="Camada 5"><rect class="cls-1" x="275" y="572.34" width="814" height="115" rx="57.5" transform="translate(1364 1259.68) rotate(-180)"/><rect class="cls-1" y="796.34" width="814" height="115" rx="57.5" transform="translate(814 1707.68) rotate(-180)"/><rect class="cls-1" x="188" y="344.34" width="562" height="134" rx="57.5" transform="translate(938 822.68) rotate(-180)"/><rect class="cls-1" x="507" y="134.34" width="562" height="134" rx="57.5" transform="translate(1576 402.68) rotate(-180)"/><polygon class="cls-2" points="142.28 249.42 139.06 217.1 118.92 191.62 151.24 188.4 176.72 168.26 179.94 200.58 200.08 226.06 167.76 229.27 142.28 249.42"/><polygon class="cls-2" points="208.01 404.84 206.43 388.91 196.5 376.35 212.43 374.77 224.99 364.84 226.57 380.77 236.5 393.32 220.57 394.91 208.01 404.84"/><polygon class="cls-2" points="562.4 100 558.44 60.18 533.62 28.78 573.44 24.82 604.83 0 608.79 39.82 633.62 71.22 593.79 75.18 562.4 100"/><circle class="cls-3" cx="375.5" cy="210.84" r="36.5"/><circle class="cls-3" cx="964" cy="402.34" r="18"/><circle class="cls-2" cx="119" cy="557.34" r="18"/><circle class="cls-2" cx="872" cy="137.34" r="25"/><circle class="cls-2" cx="276" cy="74.34" r="25"/><path class="cls-2" d="M674.54,178.38H663.46V167.29a7,7,0,0,0-13.92,0v11.09H638.46a7,7,0,0,0-7,7h0a7,7,0,0,0,7,6.95h11.08v11.09a7,7,0,0,0,13.92,0V192.29h11.08a7,7,0,0,0,7-6.95h0A7,7,0,0,0,674.54,178.38Z"/><path class="cls-2" d="M993.37,238.21H975.63V220.47a11.13,11.13,0,0,0-22.26,0v17.74H935.63a11.16,11.16,0,0,0-11.13,11.13h0a11.16,11.16,0,0,0,11.13,11.13h17.74v17.74a11.13,11.13,0,0,0,22.26,0V260.47h17.74a11.16,11.16,0,0,0,11.13-11.13h0A11.16,11.16,0,0,0,993.37,238.21Z"/><rect class="cls-4" x="410.31" y="717.82" width="174.23" height="98.88" rx="9.26"/><polygon class="cls-5" points="327.04 395.62 276.12 446.55 276.12 843.36 329.44 790.04 327.04 395.62"/><polygon class="cls-6" points="329.44 790.04 892 790.04 892 843.36 276.12 843.36 329.44 790.04"/><path class="cls-7" d="M444.26,768.42C366.43,793.4,329.44,790,329.44,790L327,395.62s76.87,0,117.22-25,115.3-30.74,140.28,25v392s-23.23-33.95-66.63-38.5"/><path class="cls-8" d="M497.32,749.26a116.34,116.34,0,0,0-29.2,7.39"/><polygon class="cls-4" points="892 703.09 892 787.64 584.54 787.64 584.54 395.62 892 703.09"/><polygon class="cls-9" points="892 395.62 892 703.09 584.54 395.62 892 395.62"/><polygon class="cls-8" points="892 703.09 892 787.64 584.54 787.64 584.54 395.62 892 395.62 892 703.09"/><line class="cls-8" x1="628.1" y1="458.82" x2="833.07" y2="458.82"/><line class="cls-8" x1="628.1" y1="512.84" x2="833.07" y2="512.84"/><line class="cls-8" x1="628.1" y1="571.31" x2="833.07" y2="571.31"/><line class="cls-8" x1="628.1" y1="624.43" x2="833.07" y2="624.43"/><line class="cls-8" x1="628.1" y1="680.67" x2="833.07" y2="680.67"/><line class="cls-8" x1="628.1" y1="735.36" x2="833.07" y2="735.36"/></g></g></svg>