<svg xmlns="http://www.w3.org/2000/svg" viewBox="0 0 1089 911.34"><defs><style>.cls-1{fill:#e0e0e0;opacity:0.5;}.cls-2,.cls-5{fill:#2c5f8a;}.cls-3{fill:none;stroke-width:10px;}.cls-3,.cls-4,.cls-6,.cls-7,.cls-8{stroke:#2c5f8a;stroke-miterlimit:10;}.cls-4{fill:#43c9e2;}.cls-4,.cls-6,.cls-7,.cls-8{stroke-width:5px;}.cls-5{font-size:109.16px;font-family:BerlinSansFBDemi-Bold, Berlin Sans FB Demi;font-weight:700;}.cls-6{fill:#f38b94;}.cls-7{fill:#8ee49b;}.cls-8{fill:#f5eb94;}</style></defs><title>Ativo 6</title><g id="Camada_2" data-name="Camada 2"><g id="Camada_3" data-name="Camada 3"><rect class="cls-1" x="275" y="572.34" width="814" height="115" rx="57.5" transform="translate(1364 1259.68) rotate(-180)"/><rect class="cls-1" y="796.34" width="814" height="115" rx="57.5" transform="translate(814 1707.68) rotate(-180)"/><rect class="cls-1" x="188" y="344.34" width="562" height="134" rx="57.5" transform="translate(938 822.68) rotate(-180)"/><rect class="cls-1" x="507" y="134.34" width="562" height="134" rx="57.5" transform="translate(1576 402.68) rotate(-180)"/><polygon class="cls-2" points="142.28 249.42 139.06 217.1 118.92 191.62 151.24 188.4 176.72 168.26 179.94 200.58 200.08 226.06 167.76 229.27 142.28 249.42"/><polygon class="cls-2" points="208.01 404.84 206.43 388.91 196.5 376.35 212.43 374.77 224.99 364.84 226.57 380.77 236.5 393.32 220.57 394.91 208.01 404.84"/><polygon class="cls-2" points="562.4 100 558.44 60.18 533.62 28.78 573.44 24.82 604.83 0 608.79 39.82 633.62 71.22 593.79 75.18 562.4 100"/><circle class="cls-3" cx="375.5" cy="210.84" r="36.5"/><circle class="cls-3" cx="964" cy="402.34" r="18"/><circle class="cls-2" cx="119" cy="557.34" r="18"/><circle class="cls-2" cx="872" cy="137.34" r="25"/><circle class="cls-2" cx="276" cy="74.34" r="25"/><path class="cls-2" d="M674.54,178.38H663.46V167.29a7,7,0,0,0-13.92,0v11.09H638.46a7,7,0,0,0-7,7h0a7,7,0,0,0,7,6.95h11.08v11.09a7,7,0,0,0,13.92,0V192.29h11.08a7,7,0,0,0,7-6.95h0A7,7,0,0,0,674.54,178.38Z"/><path class="cls-2" d="M993.37,238.21H975.63V220.47a11.13,11.13,0,0,0-22.26,0v17.74H935.63a11.16,11.16,0,0,0-11.13,11.13h0a11.16,11.16,0,0,0,11.13,11.13h17.74v17.74a11.13,11.13,0,0,0,22.26,0V260.47h17.74a11.16,11.16,0,0,0,11.13-11.13h0A11.16,11.16,0,0,0,993.37,238.21Z"/><circle class="cls-4" cx="326.31" cy="576.4" r="109.44"/><text class="cls-5" transform="translate(292.41 611.22)">Y</text><circle class="cls-6" cx="815.97" cy="576.4" r="109.44"/><text class="cls-5" transform="translate(778.11 611.22)">A</text><circle class="cls-7" cx="571.14" cy="757.58" r="109.44"/><text class="cls-5" transform="translate(536.26 792.39)">B</text><circle class="cls-8" cx="571.14" cy="392.78" r="109.44"/><text class="cls-5" transform="translate(537.51 427.6)">X</text></g></g></svg>