<svg xmlns="http://www.w3.org/2000/svg" viewBox="0 0 50 120.96"><defs><style>.cls-1{fill:#c1c1c1;}.cls-2{fill:#cdcdcd;}.cls-3{fill:none;stroke:#fff;stroke-miterlimit:10;stroke-width:3px;}</style></defs><title>glass_4</title><g id="Camada_2" data-name="Camada 2"><g id="Camada_5" data-name="Camada 5"><path class="cls-1" d="M30.76,9.69C27.52,28.77,50.2,48.93,48.4,104c-.47,13.77-10.17,15.74-16.93,15.42H25V12.21l3.24,2.52Z"/><path class="cls-2" d="M25,12.21V119.43H18.53c-6.76.32-16.46-1.65-16.93-15.42C-.2,48.93,22.48,28.77,19.24,9.69l2.52,5Z"/><path class="cls-3" d="M25,119.43h6.47c6.76.32,16.46-1.65,16.93-15.42C50.2,48.93,27.52,28.77,30.76,9.69l-2.52,5L25,12.21l-3.24,2.52-2.52-5C22.48,28.77-.2,48.93,1.6,104c.47,13.77,10.17,15.74,16.93,15.42Z"/></g></g></svg>