<svg xmlns="http://www.w3.org/2000/svg" viewBox="0 0 50.25 87.09"><defs><style>.cls-1{fill:#ffbe24;}.cls-2,.cls-7{fill:none;stroke-miterlimit:10;stroke-width:3px;}.cls-2{stroke:#f0a71d;}.cls-3{fill:#f29303;}.cls-4{fill:#e68503;}.cls-5{fill:#f29e18;}.cls-6{fill:#e58f18;}.cls-7{stroke:#fff;}</style></defs><title>glass_2</title><g id="Camada_2" data-name="Camada 2"><g id="Camada_7" data-name="Camada 7"><path class="cls-1" d="M47.81,18.62c-4.68-13-16.2-17.46-22.68-17.1-6.48-.36-18,4.14-22.68,17.1s9.72,39.6,5.58,47h34.2C38.09,58.22,52.49,31.58,47.81,18.62Z"/><path class="cls-2" d="M13.07,27.8c-3.06,14.4,8.1,38.7,8.1,38.7h4V38.06c-5-7.38,0-14.58,0-14.58S16.13,13.4,13.07,27.8Z"/><path class="cls-2" d="M38.3,27.8c-3.06-14.4-12.06-4.32-12.06-4.32s5,7.2,0,14.58V66.5h4S41.36,42.2,38.3,27.8Z"/><path class="cls-3" d="M45.74,78.56v4.33a2.71,2.71,0,0,1-2.7,2.7H25.13v-7Z"/><rect class="cls-4" x="25.13" y="72.98" width="20.61" height="5.58"/><path class="cls-3" d="M45.74,68.31V73H25.13V65.61H43A2.7,2.7,0,0,1,45.74,68.31Z"/><path class="cls-5" d="M25.13,78.56v7H7.22a2.71,2.71,0,0,1-2.7-2.7V78.56Z"/><rect class="cls-6" x="4.52" y="72.98" width="20.61" height="5.58"/><path class="cls-5" d="M25.13,65.61V73H4.52V68.31a2.7,2.7,0,0,1,2.7-2.7Z"/><path class="cls-7" d="M43,65.61h-.81c-4.14-7.39,10.26-34,5.58-47S31.61,1.16,25.13,1.52c-6.48-.36-18,4.14-22.68,17.1s9.72,39.6,5.58,47H7.22a2.7,2.7,0,0,0-2.7,2.7V82.89a2.71,2.71,0,0,0,2.7,2.7H43a2.71,2.71,0,0,0,2.7-2.7V68.31A2.71,2.71,0,0,0,43,65.61Z"/></g></g></svg>