<svg xmlns="http://www.w3.org/2000/svg" viewBox="0 0 45.39 117.59"><defs><style>.cls-1{fill:#fff;}.cls-2{fill:#47510a;}.cls-3{fill:#098c24;}.cls-4{fill:#1a9b37;}</style></defs><title>glass_1</title><g id="Camada_2" data-name="Camada 2"><g id="Camada_9" data-name="Camada 9"><path class="cls-1" d="M23.44,117.59h-1.5A17.17,17.17,0,0,1,9,112.16C-1.68,100.88-.27,74.83.57,59.26c.18-3.37.34-6.29.3-8.07C.77,46.43,2.76,41.47,7,36c6.71-8.7,7.42-21,7.33-26.7-2.52-1.11-3.12-2.72-3.12-4C11.17.52,19.23,0,22.69,0S34.21.52,34.21,5.34c0,1.27-.6,2.88-3.12,4-.08,5.75.62,18,7.33,26.7,4.2,5.44,6.19,10.4,6.09,15.16,0,1.78.12,4.7.3,8.08.85,15.56,2.26,41.62-8.42,52.89a17.15,17.15,0,0,1-12.94,5.43Z"/><path class="cls-2" d="M41.51,51.13c.1-4.86-2.49-9.42-5.46-13.27-8.27-10.71-8.15-26-7.89-30.73C30,6.7,31.21,6.06,31.21,5.34,31.21,4.05,27.4,3,22.69,3s-8.52,1-8.52,2.34c0,.72,1.19,1.36,3,1.79.26,4.73.38,20-7.88,30.73-3,3.85-5.57,8.41-5.47,13.27.26,12.06-7.46,64.47,18.82,63.45C49,115.6,41.26,63.19,41.51,51.13Z"/><path class="cls-3" d="M36,37.86c3,3.85,5.57,8.41,5.47,13.27C41.25,63.19,49,115.6,22.69,114.58V6.58l5.58-.9S26.16,25.05,36,37.86Z"/><path class="cls-4" d="M22.69,6.58v108c-26.28,1-18.56-51.39-18.82-63.45-.1-4.86,2.5-9.42,5.47-13.27,9.88-12.81,7.77-32.18,7.77-32.18Z"/><ellipse class="cls-2" cx="22.69" cy="5.34" rx="8.52" ry="2.34"/></g></g></svg>