<svg xmlns="http://www.w3.org/2000/svg" viewBox="0 0 112.53 101.41"><defs><style>.cls-1{fill:#99aaba;}.cls-2{fill:#fe4a39;}.cls-3{fill:#a3b7c2;}.cls-4{fill:#fd5b4e;}.cls-5{fill:none;stroke:#fff;stroke-miterlimit:10;stroke-width:3px;}</style></defs><title>metal_2</title><g id="Camada_2" data-name="Camada 2"><g id="Camada_14" data-name="Camada 14"><path class="cls-1" d="M110.49,54.23a8.26,8.26,0,0,1-1,7.68L97.23,79.54,90.55,75l17.09-25.26A13.57,13.57,0,0,1,110.49,54.23Z"/><path class="cls-2" d="M107.64,49.69,90.55,75,21.17,27.23l17.5-25C47,5.23,50.06,16.55,54.1,22.79a6.61,6.61,0,0,0,5.2,3c18.63,1.13,22,8.7,25.66,14.32a11.34,11.34,0,0,0,9.87,5.27C101.26,45.14,105.22,47.15,107.64,49.69Z"/><path class="cls-3" d="M97.23,79.54,85.65,96.16a8.66,8.66,0,0,1-7.49,3.74,16.12,16.12,0,0,1-4-.71L90.55,75Z"/><path class="cls-4" d="M21.17,27.23,90.55,75,74.14,99.19C64.53,96.26,58.54,85.05,56.2,79a5.24,5.24,0,0,0-4.81-3.35C26.48,75.33,23.05,53.3,17.44,54.45c-5.83,2.54-10,0-12.7-3.77Z"/><path class="cls-1" d="M38.67,2.24l-17.5,25-7.89-5.42C17.09,16.33,21,10.88,23.5,7.3A13.4,13.4,0,0,1,36,1.59,12.29,12.29,0,0,1,38.67,2.24Z"/><path class="cls-3" d="M21.17,27.23,4.74,50.68a19.56,19.56,0,0,1-3.18-8.25A7,7,0,0,1,2.51,38c2.1-3.52,6.4-9.85,10.77-16.15Z"/><path class="cls-5" d="M38.67,2.24A12.29,12.29,0,0,0,36,1.59,13.4,13.4,0,0,0,23.5,7.3c-2.55,3.58-6.41,9-10.22,14.51C8.91,28.11,4.61,34.44,2.51,38a7,7,0,0,0-.95,4.47,19.56,19.56,0,0,0,3.18,8.25c2.65,3.79,6.87,6.31,12.7,3.77,5.61-1.15,9,20.88,34,21.22A5.24,5.24,0,0,1,56.2,79c2.34,6,8.33,17.24,17.94,20.17a16.12,16.12,0,0,0,4,.71,8.66,8.66,0,0,0,7.49-3.74L97.23,79.54l12.29-17.63a8.26,8.26,0,0,0,1-7.68,13.57,13.57,0,0,0-2.85-4.54c-2.42-2.54-6.38-4.55-12.81-4.33A11.34,11.34,0,0,1,85,40.09c-3.62-5.62-7-13.19-25.66-14.32a6.61,6.61,0,0,1-5.2-3C50.06,16.55,47,5.23,38.67,2.24Z"/></g></g></svg>