<svg xmlns="http://www.w3.org/2000/svg" viewBox="0 0 416.22 783.2"><defs><style>.cls-1{fill:#fff;}.cls-2{fill:#737b86;}.cls-3,.cls-4{fill:none;}.cls-4{stroke:#98a5ae;stroke-miterlimit:10;}.cls-5{fill:#a2b4c2;}.cls-6{fill:#7b8891;}</style></defs><title>metal_3</title><g id="Camada_2" data-name="Camada 2"><g id="Camada_15" data-name="Camada 15"><polygon class="cls-1" points="44.31 783.2 44.31 288.5 0 253.46 56.99 224.58 5.03 161.14 66.29 130.07 43.76 57.71 137.19 74.39 172.64 2.42 218.53 60.18 275.17 0 292.8 66.39 389.96 45.67 345 129.32 416.22 154.57 362.91 198.26 413.19 232.84 366.21 261.67 414.25 286.84 373.78 316.16 373.78 783.2 44.31 783.2"/><polygon class="cls-2" points="355.92 247.25 330.41 262.93 348.61 272.41 380.78 289.26 327.34 327.97 122.72 327.97 32.64 256.74 84.61 230.4 32.64 166.95 87.61 139.08 69.29 80.22 147.18 94.13 176.16 35.27 216.7 86.29 217.4 87.18 218.23 86.29 266.25 35.27 280.03 87.18 356.33 70.92 323.75 131.54 319.68 139.08 333.59 144.03 380.78 160.76 352.74 183.74 333.47 199.47 358.16 216.44 380.78 231.99 355.92 247.25"/><path class="cls-3" d="M333.59,144l-13.91-4.95,4.07-7.54A127.39,127.39,0,0,1,333.59,144Z"/><polygon class="cls-2" points="355.92 247.25 330.41 262.93 348.61 272.41 380.78 289.26 327.34 327.97 122.72 327.97 32.64 256.74 84.61 230.4 32.64 166.95 87.61 139.08 69.29 80.22 147.18 94.13 176.16 35.27 216.7 86.29 217.4 87.18 218.23 86.29 266.25 35.27 280.03 87.18 356.33 70.92 323.75 131.54 319.68 139.08 333.59 144.03 380.78 160.76 352.74 183.74 333.47 199.47 358.16 216.44 380.78 231.99 355.92 247.25"/><circle class="cls-4" cx="222.41" cy="222.08" r="69.75"/><circle class="cls-4" cx="222.41" cy="222.08" r="45.45"/><path class="cls-4" d="M348.61,272.41A135.87,135.87,0,1,1,216.7,86.29a13,13,0,0,1,1.53,0c1.41-.11,2.77-.11,4.18-.11a135.54,135.54,0,0,1,101.34,45.36"/><path class="cls-4" d="M358.16,216.44c.06,1.89.11,3.77.11,5.66a136,136,0,0,1-2.35,25.15"/><path class="cls-4" d="M333.59,144a132.84,132.84,0,0,1,19.15,39.71"/><circle class="cls-4" cx="222.41" cy="222.08" r="106.19"/><rect class="cls-5" x="61.99" y="291.83" width="294.11" height="473.69"/><rect class="cls-6" x="61.99" y="348.67" width="291.42" height="31.54"/><rect class="cls-6" x="61.99" y="428.61" width="291.42" height="31.54"/><rect class="cls-6" x="61.99" y="510.37" width="291.42" height="31.54"/><rect class="cls-6" x="61.99" y="592.12" width="291.42" height="31.54"/><rect class="cls-6" x="61.99" y="683.79" width="291.42" height="31.54"/></g></g></svg>