<svg xmlns="http://www.w3.org/2000/svg" viewBox="0 0 123.57 120.71"><defs><style>.cls-1{fill:#fff;}.cls-2{fill:#d88b01;}.cls-3{fill:#f6a822;}.cls-4{fill:#fdcb50;}.cls-5{fill:#febf26;}</style></defs><title>metal_3</title><g id="Camada_2" data-name="Camada 2"><g id="Camada_13" data-name="Camada 13"><path class="cls-1" d="M109.83,120.71h-.57l-97.11-4.34A12.74,12.74,0,0,1,0,103.09l1-23A12.7,12.7,0,0,1,13.75,67.92h.57l29.59,1.32c13.92-2.93,45.5-11.7,50-31.66-2.72-6.91-9.58-25.85-6.26-32.72A5.59,5.59,0,0,1,91.16,1.8l1-.32A25.24,25.24,0,0,1,99.57,0,9.34,9.34,0,0,1,107,3.28c4,4.73,4.73,14.47,2.17,30.66l0,.15-.07.27c1,10.07-3.16,24.84-17.32,37l19.64.88a12.75,12.75,0,0,1,12.14,13.27l-1,23a12.69,12.69,0,0,1-12.7,12.15ZM97.67,8.87c-1.79,0-2.88.94-2.88,1.44s1.09,1.44,2.88,1.44,2.88-.93,2.88-1.44S99.45,8.87,97.67,8.87Z"/><path class="cls-2" d="M92,4.67c-7.2,2.16,5,32.64,5,32.64s3.84,16.32,9.16-3.84C112-3.25,99.23,2.51,92,4.67Zm5.64,10.08c-3.25,0-5.88-2-5.88-4.44s2.63-4.44,5.88-4.44,5.88,2,5.88,4.44S100.91,14.75,97.67,14.75Z"/><path class="cls-3" d="M35.39,73.79s56.16-7,61.68-36.48S121.31,51.23,81,75.47Z"/><path class="cls-4" d="M111.29,75.26a9.76,9.76,0,0,1,9.28,10.14l-.5,11.2L3.48,92.7,4,80.2a9.76,9.76,0,0,1,10.15-9.28Z"/><path class="cls-5" d="M120.07,96.6l-.53,11.82a9.76,9.76,0,0,1-10.15,9.28l-97.1-4.34A9.76,9.76,0,0,1,3,103.22L3.48,92.7Z"/></g></g></svg>