<svg xmlns="http://www.w3.org/2000/svg" viewBox="0 0 70.64 132.93"><defs><style>.cls-1{fill:#fff;}.cls-2{fill:#737b86;}.cls-3,.cls-4{fill:none;}.cls-4{stroke:#98a5ae;stroke-miterlimit:10;}.cls-5{fill:#a2b4c2;}.cls-6{fill:#7b8891;}</style></defs><title>metal_1</title><g id="Camada_2" data-name="Camada 2"><g id="Camada_15" data-name="Camada 15"><polygon class="cls-1" points="7.52 132.93 7.52 48.97 0 43.02 9.67 38.12 0.85 27.35 11.25 22.08 7.43 9.8 23.29 12.63 29.3 0.41 37.09 10.21 46.7 0 49.7 11.27 66.19 7.75 58.56 21.95 70.64 26.23 61.6 33.65 70.13 39.52 62.16 44.41 70.31 48.69 63.44 53.66 63.44 132.93 7.52 132.93"/><polygon class="cls-2" points="60.41 41.97 56.08 44.63 59.17 46.24 64.63 49.1 55.56 55.67 20.83 55.67 5.54 43.58 14.36 39.11 5.54 28.34 14.87 23.61 11.76 13.62 24.98 15.98 29.9 5.99 36.78 14.65 36.9 14.8 37.04 14.65 45.19 5.99 47.53 14.8 60.48 12.04 54.95 22.33 54.26 23.61 56.62 24.45 64.63 27.29 59.87 31.19 56.6 33.86 60.79 36.74 64.63 39.38 60.41 41.97"/><path class="cls-3" d="M56.62,24.45l-2.36-.84L55,22.33A21.31,21.31,0,0,1,56.62,24.45Z"/><polygon class="cls-2" points="60.41 41.97 56.08 44.63 59.17 46.24 64.63 49.1 55.56 55.67 20.83 55.67 5.54 43.58 14.36 39.11 5.54 28.34 14.87 23.61 11.76 13.62 24.98 15.98 29.9 5.99 36.78 14.65 36.9 14.8 37.04 14.65 45.19 5.99 47.53 14.8 60.48 12.04 54.95 22.33 54.26 23.61 56.62 24.45 64.63 27.29 59.87 31.19 56.6 33.86 60.79 36.74 64.63 39.38 60.41 41.97"/><circle class="cls-4" cx="37.75" cy="37.69" r="11.84"/><circle class="cls-4" cx="37.75" cy="37.69" r="7.71"/><path class="cls-4" d="M59.17,46.24A23.06,23.06,0,1,1,36.78,14.65H37c.24,0,.47,0,.71,0A23,23,0,0,1,55,22.33"/><path class="cls-4" d="M60.79,36.74c0,.32,0,.64,0,1a23.07,23.07,0,0,1-.4,4.27"/><path class="cls-4" d="M56.62,24.45a22.49,22.49,0,0,1,3.25,6.74"/><circle class="cls-4" cx="37.75" cy="37.69" r="18.02"/><rect class="cls-5" x="10.52" y="49.53" width="49.92" height="80.4"/><rect class="cls-6" x="10.52" y="59.18" width="49.46" height="5.35"/><rect class="cls-6" x="10.52" y="72.75" width="49.46" height="5.35"/><rect class="cls-6" x="10.52" y="86.62" width="49.46" height="5.35"/><rect class="cls-6" x="10.52" y="100.5" width="49.46" height="5.35"/><rect class="cls-6" x="10.52" y="116.06" width="49.46" height="5.35"/></g></g></svg>