<svg xmlns="http://www.w3.org/2000/svg" viewBox="0 0 648.31 582.82"><defs><style>.cls-1{fill:#99aaba;}.cls-2{fill:#fe4a39;}.cls-3{fill:#a3b7c2;}.cls-4{fill:#fd5b4e;}.cls-5{fill:none;stroke:#fff;stroke-miterlimit:10;stroke-width:3px;}</style></defs><title>metal_2</title><g id="Camada_2" data-name="Camada 2"><g id="Camada_14" data-name="Camada 14"><path class="cls-1" d="M643.63,312.19a48.64,48.64,0,0,1-5.72,45.25l-72.4,103.87-39.36-27L626.84,285.44A80,80,0,0,1,643.63,312.19Z"/><path class="cls-2" d="M626.84,285.44,526.15,434.27,117.38,153.12,220.49,5.88C269.74,23.5,287.59,90.19,311.4,127A39,39,0,0,0,342,144.51c109.77,6.66,129.86,51.26,151.18,84.37,12.73,19.74,34.71,31.88,58.16,31.05C589.25,258.64,612.58,270.48,626.84,285.44Z"/><path class="cls-3" d="M565.51,461.31l-68.23,97.92a51.05,51.05,0,0,1-44.13,22,95.14,95.14,0,0,1-23.68-4.19l96.68-142.81Z"/><path class="cls-4" d="M117.38,153.12,526.15,434.27,429.47,577.08c-56.62-17.26-91.91-83.31-105.7-118.83a30.86,30.86,0,0,0-28.34-19.74c-146.76-2-167-131.8-200-125-34.35,15-59.21.12-74.83-22.21Z"/><path class="cls-1" d="M220.49,5.88,117.38,153.12,70.9,121.18c22.44-32.28,45.19-64.39,60.21-85.49,16.67-23.5,44.72-37.17,73.35-33.64A73,73,0,0,1,220.49,5.88Z"/><path class="cls-3" d="M117.38,153.12,20.58,291.28A115.34,115.34,0,0,1,1.85,242.67a41,41,0,0,1,5.59-26.34c12.38-20.73,37.71-58,63.46-95.15Z"/><path class="cls-5" d="M220.49,5.88a73,73,0,0,0-16-3.83c-28.63-3.53-56.68,10.14-73.35,33.64-15,21.1-37.77,53.21-60.21,85.49C45.15,158.3,19.82,195.6,7.44,216.33a41,41,0,0,0-5.59,26.34,115.34,115.34,0,0,0,18.73,48.61c15.62,22.33,40.48,37.17,74.83,22.21,33.05-6.78,53.26,123,200,125a30.86,30.86,0,0,1,28.34,19.74c13.79,35.52,49.08,101.57,105.7,118.83a95.14,95.14,0,0,0,23.68,4.19,51.05,51.05,0,0,0,44.13-22l68.23-97.92,72.4-103.87a48.64,48.64,0,0,0,5.72-45.25,80,80,0,0,0-16.79-26.75c-14.26-15-37.59-26.8-75.47-25.51-23.45.83-45.43-11.31-58.16-31.05C471.89,195.77,451.8,151.17,342,144.51A39,39,0,0,1,311.4,127C287.59,90.19,269.74,23.5,220.49,5.88Z"/></g></g></svg>