<svg xmlns="http://www.w3.org/2000/svg" viewBox="0 0 728.05 711.19"><defs><style>.cls-1{fill:#fff;}.cls-2{fill:#d88b01;}.cls-3{fill:#f6a822;}.cls-4{fill:#fdcb50;}.cls-5{fill:#febf26;}</style></defs><title>metal_1</title><g id="Camada_2" data-name="Camada 2"><g id="Camada_13" data-name="Camada 13"><path class="cls-1" d="M647.06,711.19c-1.11,0-2.24,0-3.36-.08L71.6,685.57A75,75,0,0,1,.08,607.36L6.13,471.75A74.81,74.81,0,0,1,81,400.15c1.11,0,2.23,0,3.35.07L258.68,408c82.05-17.25,268.11-68.94,294.82-186.57-16-40.7-56.42-152.27-36.87-192.78,5.55-11.51,14.2-16.17,20.48-18,2-.59,4-1.24,6.13-1.89C555.67,4.83,571.15,0,586.66,0c18.14,0,32.9,6.5,43.86,19.33C654.34,47.21,658.4,104.61,643.33,200l-.14.87-.42,1.59c5.88,59.32-18.59,146.36-102,218.16l115.71,5.17A75.1,75.1,0,0,1,728,504l-6.06,135.61a74.79,74.79,0,0,1-74.84,71.6ZM575.41,52.28c-10.52,0-17,5.49-17,8.48s6.44,8.49,17,8.49,17-5.49,17-8.49S585.94,52.28,575.41,52.28Z"/><path class="cls-2" d="M542.19,27.54c-42.42,12.72,29.69,192.3,29.69,192.3s22.63,96.15,54-22.62C660.07-19.12,584.61,14.81,542.19,27.54Zm33.23,59.39c-19.14,0-34.65-11.72-34.65-26.16s15.51-26.16,34.65-26.16,34.64,11.71,34.64,26.16S594.55,86.93,575.42,86.93Z"/><path class="cls-3" d="M208.48,434.77s330.88-41,363.4-214.93,142.82,82-94.74,224.83Z"/><path class="cls-4" d="M703.15,445.55a9.75,9.75,0,0,1,9.31,10.14l-5.07,113.47-686.91-23L25.9,425.05A9.78,9.78,0,0,1,36,415.74Z"/><path class="cls-5" d="M707.39,569.16l-5.24,117.13A9.79,9.79,0,0,1,692,695.6L24.9,665.78a9.73,9.73,0,0,1-9.31-10.13l4.89-109.47Z"/></g></g></svg>