<svg xmlns="http://www.w3.org/2000/svg" viewBox="0 0 697.63 819.38"><defs><style>.cls-1{fill:#d9d9d9;stroke:#fff;stroke-miterlimit:10;stroke-width:3px;}.cls-2{fill:#ffcb53;}.cls-3{fill:none;stroke:#895f47;stroke-linecap:round;stroke-linejoin:round;stroke-width:2px;}</style></defs><title>papel_2</title><g id="Camada_2" data-name="Camada 2"><g id="Camada_4" data-name="Camada 4"><path class="cls-1" d="M347.38,816.13s84.84-182.4,347.84-214.22L358,1.67S63.16,54.69,1.65,220.13Z"/><path class="cls-2" d="M149.42,380.62,69.52,244.17s30.41-82.72,125.85-91.91L280.92,297.9S215.17,300.73,149.42,380.62Z"/><path class="cls-3" d="M249.81,163.57s53-55.15,125.14-47.37"/><path class="cls-3" d="M270,215.28s53-55.14,125.14-47.37"/><path class="cls-3" d="M299.33,263.4s53-55.14,125.14-47.37"/><path class="cls-3" d="M175.22,435.06S287.28,286.59,466.86,282.35"/><path class="cls-3" d="M202.62,485.26S314.68,336.78,494.26,332.54"/><path class="cls-3" d="M240.64,543.1S352.7,394.63,532.28,390.39"/><path class="cls-3" d="M270,600.72S382.05,452.25,561.63,448"/><path class="cls-3" d="M299.33,657.76S411.39,509.29,591,505.05"/><path class="cls-3" d="M332.56,712.74S444.62,564.27,624.2,560"/></g></g></svg>