<svg xmlns="http://www.w3.org/2000/svg" viewBox="0 0 127.82 99.17"><defs><style>.cls-1{fill:#fff;}.cls-2{fill:#36b86e;}.cls-3{fill:#03a943;}.cls-4{fill:#e6e6e6;}.cls-5{fill:#e0e0e0;}</style></defs><title>papel_3</title><g id="Camada_2" data-name="Camada 2"><g id="Camada_3" data-name="Camada 3"><path class="cls-1" d="M115.81,95.93c-10.4-7.88-21.7-11.88-33.58-11.88A48.34,48.34,0,0,0,61.9,88.27L57,90.83l7.32-71.65.77-.76c8.17-8,17.45-12,27.59-12,18.7,0,33.48,13.74,34.1,14.32l1.07,1-7.75,77.42Z"/><path class="cls-1" d="M72.35,19.23C64.44,6.65,52.81,0,38.71,0,24.33,0,12.34,6.78,11.83,7.07l-1.28.73L0,84.89l4.9-2.15A58.07,58.07,0,0,1,28.26,77.6,50.94,50.94,0,0,1,59.11,87.89l4.19,3.64,9.63-71.38Z"/><path class="cls-2" d="M68.69,19.14c26.64-23.91,56,3.78,56,3.78L117.47,30l.56-4.86s-25.43-21.89-46.36-1l-2.28-.31.42-3.07C69.44,20.25,69.07,19.68,68.69,19.14Z"/><path class="cls-3" d="M124.69,22.92l-7.07,70.62c-26-19.7-50.59-10.8-56-8.45l8.1-8c7.41-1.58,24.54-3.63,41.68,5.58L117.47,30Z"/><path class="cls-4" d="M71.67,24.21c20.93-20.93,46.36,1,46.36,1L117.47,30,69.71,77.12a38.63,38.63,0,0,0-3.83,1Z"/><path class="cls-5" d="M117.47,30,111.39,82.7c-17.14-9.21-34.27-7.16-41.68-5.58Z"/><path class="cls-2" d="M13.32,9.67s35.05-20.08,55.37,9.47c-.52.46-1,.93-1.53,1.42l-.3,2.9L64.25,25.8l.32-2.48c-15.45-25.24-45.3-9.9-45.3-9.9l-7,57.49c.73-.19,1.44-.36,2.15-.52L3.7,80Z"/><path class="cls-2" d="M68.69,19.14c.38.54.75,1.11,1.12,1.69l-3,2.63.3-2.9C67.67,20.07,68.17,19.6,68.69,19.14Z"/><path class="cls-2" d="M69.81,20.83l-.42,3.07L61.11,85.32l-.27.13c-.07-.07-.16-.14-.28-.24l6.3-61.75Z"/><path class="cls-2" d="M69.39,23.9l2.28.31L65.88,78.09a38.63,38.63,0,0,1,3.83-1l-8.1,8-.5.23Z"/><path class="cls-3" d="M66.86,23.46l-6.3,61.75C56.94,82.37,34.61,66.44,3.7,80l10.73-9.61c24-5.33,43.18,6.68,43.18,6.68L64.25,25.8Z"/><path class="cls-4" d="M19.27,13.42s29.85-15.34,45.3,9.9l-.32,2.48L14.43,70.39c-.71.16-1.42.33-2.15.52Z"/><path class="cls-5" d="M64.25,25.8,57.61,77.07s-19.19-12-43.18-6.68Z"/><path class="cls-3" d="M61.11,85.32l0,.31a1.79,1.79,0,0,0-.23-.18Z"/><path class="cls-3" d="M60.56,85.21c.12.1.21.17.28.24l-.32.15Z"/></g></g></svg>