<svg xmlns="http://www.w3.org/2000/svg" viewBox="0 0 753.09 584.27"><defs><style>.cls-1{fill:#fff;}.cls-2{fill:#36b86e;}.cls-3{fill:#03a943;}.cls-4{fill:#e6e6e6;}.cls-5{fill:#e0e0e0;}</style></defs><title>papel_1</title><g id="Camada_2" data-name="Camada 2"><g id="Camada_3" data-name="Camada 3"><path class="cls-1" d="M682.29,565.2c-61.23-46.46-127.79-70-197.84-70-71,0-119.27,24.65-119.75,24.89l-29.06,15.1L378.75,113l4.59-4.48c48.08-46.95,102.77-70.76,162.55-70.76,110.12,0,197.22,81,200.87,84.4l6.33,6L707.42,584.27Z"/><path class="cls-1" d="M426.27,113.29C379.65,39.17,311.13,0,228.09,0,143.35,0,72.69,39.93,69.72,41.63L62.17,46,0,500.14l28.89-12.67c45.82-20.09,92.11-30.28,137.59-30.28,109.58,0,180.52,59.56,181.77,60.63L373,539.27l56.72-420.56Z"/><path class="cls-2" d="M404.68,112.76C561.66-28.1,734.62,135,734.62,135L692.1,177l3.31-28.63s-149.87-129-273.15-5.67l-13.42-1.81,2.46-18.11Q408,117.56,404.68,112.76Z"/><path class="cls-3" d="M734.62,135,693,551.12c-153-116.1-298-63.66-330-49.79l47.68-47c43.65-9.32,144.6-21.38,245.56,32.87L692.1,177Z"/><path class="cls-4" d="M422.26,142.65c123.28-123.32,273.15,5.67,273.15,5.67L692.1,177,410.7,454.37a216,216,0,0,0-22.54,5.74Z"/><path class="cls-5" d="M692.1,177,656.26,487.24C555.3,433,454.35,445.05,410.7,454.37Z"/><path class="cls-2" d="M78.5,57S285-61.35,404.68,112.76c-3,2.69-6,5.49-9,8.38l-1.75,17.09L378.57,152l1.88-14.59C289.39-11.3,113.51,79.08,113.51,79.08L72.38,417.8c4.25-1.12,8.43-2.15,12.66-3.05L21.78,471.32Z"/><path class="cls-2" d="M404.68,112.76q3.35,4.8,6.62,10l-17.36,15.5,1.75-17.09C398.67,118.25,401.64,115.45,404.68,112.76Z"/><path class="cls-2" d="M411.3,122.73l-2.46,18.11L360,502.67a15.53,15.53,0,0,0-1.57.76c-.41-.42-1-.83-1.67-1.4l37.14-363.8Z"/><path class="cls-2" d="M408.84,140.84l13.42,1.81-34.1,317.46a216,216,0,0,1,22.54-5.74l-47.68,47-3,1.34Z"/><path class="cls-3" d="M393.94,138.23,356.8,502c-21.34-16.73-152.88-110.59-335-30.71L85,414.75c141.35-31.43,254.39,39.3,254.39,39.3l39.14-302Z"/><path class="cls-4" d="M113.51,79.08S289.39-11.3,380.45,137.42L378.57,152,85,414.75c-4.23.9-8.41,1.93-12.66,3.05Z"/><path class="cls-5" d="M378.57,152l-39.14,302s-113-70.73-254.39-39.3Z"/><path class="cls-3" d="M360,502.67l-.22,1.82s-.45-.38-1.35-1.06A15.53,15.53,0,0,1,360,502.67Z"/><path class="cls-3" d="M356.8,502c.68.57,1.26,1,1.67,1.4-1.25.57-1.93.92-1.93.92Z"/></g></g></svg>