<svg xmlns="http://www.w3.org/2000/svg" viewBox="0 0 96.87 98.81"><defs><style>.cls-1{fill:#c1c1c1;}.cls-2{fill:#d9d9d9;}.cls-3{fill:none;stroke:#fff;stroke-miterlimit:10;stroke-width:3px;}</style></defs><title>paper_1</title><g id="Camada_2" data-name="Camada 2"><g id="Camada_16" data-name="Camada 16"><polygon class="cls-1" points="93.04 28.83 76.48 35.31 88.72 50.07 75.4 50.07 80.08 62.67 72.52 67.71 70.72 79.95 46.24 94.71 52 83.91 62.44 76.35 44.44 72.39 50.2 51.87 37.24 42.87 46.24 24.15 37.24 4.71 67.84 1.83 58.84 12.63 78.64 12.63 71.08 18.75 93.04 28.83"/><polygon class="cls-2" points="62.44 76.35 52 83.91 22.48 87.87 32.2 79.59 4.48 74.91 24.64 63.75 16.36 33.15 26.08 36.75 26.44 4.71 37.24 9.03 37.24 4.71 46.24 24.15 37.24 42.87 50.2 51.87 44.44 72.39 62.44 76.35"/><polygon class="cls-3" points="52 83.91 22.48 87.87 32.2 79.59 4.48 74.91 24.64 63.75 16.36 33.15 26.08 36.75 26.44 4.71 37.24 9.03 37.24 4.71 67.84 1.83 58.84 12.63 78.64 12.63 71.08 18.75 93.04 28.83 76.48 35.31 88.72 50.07 75.4 50.07 80.08 62.67 72.52 67.71 70.72 79.95 46.24 94.71 52 83.91"/></g></g></svg>