<svg xmlns="http://www.w3.org/2000/svg" viewBox="0 0 121.78 143.15"><defs><style>.cls-1{fill:#d9d9d9;stroke:#fff;stroke-miterlimit:10;stroke-width:3px;}.cls-2{fill:#ffcb53;}.cls-3{fill:none;stroke:#895f47;stroke-linecap:round;stroke-linejoin:round;stroke-width:2px;}</style></defs><title>paper_2</title><g id="Camada_2" data-name="Camada 2"><g id="Camada_4" data-name="Camada 4"><path class="cls-1" d="M60.33,139.91s14.4-31,59-36.36L62.13,1.67s-50,9-60.48,37.08Z"/><path class="cls-2" d="M26.73,66,13.17,42.83a25.78,25.78,0,0,1,21.36-15.6L49.05,52S37.89,52.43,26.73,66Z"/><path class="cls-3" d="M43.77,29.15s9-9.36,21.24-8"/><path class="cls-3" d="M47.2,37.92s9-9.36,21.24-8"/><path class="cls-3" d="M52.18,46.09s9-9.36,21.24-8"/><path class="cls-3" d="M31.11,75.23s19-25.2,49.5-25.92"/><path class="cls-3" d="M35.76,83.75s19-25.2,49.5-25.92"/><path class="cls-3" d="M42.22,93.56s19-25.2,49.5-25.92"/><path class="cls-3" d="M47.2,103.34s19-25.2,49.5-25.92"/><path class="cls-3" d="M52.18,113s19-25.2,49.5-25.92"/><path class="cls-3" d="M57.82,122.36s19-25.2,49.5-25.92"/></g></g></svg>