<svg xmlns="http://www.w3.org/2000/svg" viewBox="0 0 530.08 553.15"><defs><style>.cls-1{fill:#c1c1c1;}.cls-2{fill:#d9d9d9;}.cls-3{fill:none;stroke:#fff;stroke-miterlimit:10;stroke-width:3px;}</style></defs><title>papel_3</title><g id="Camada_2" data-name="Camada 2"><g id="Camada_16" data-name="Camada 16"><polygon class="cls-1" points="526.25 160.91 428.68 199.09 500.8 286.05 422.32 286.05 449.89 360.29 405.35 389.98 394.75 462.09 250.52 549.05 284.45 485.43 345.96 440.88 239.91 417.55 273.85 296.65 197.49 243.63 250.52 133.34 197.49 18.8 377.78 1.83 324.75 65.47 441.41 65.47 396.87 101.52 526.25 160.91"/><polygon class="cls-2" points="345.96 440.88 284.45 485.43 110.53 508.76 167.8 459.97 4.48 432.4 123.26 366.65 74.47 186.36 131.74 207.57 133.86 18.8 197.49 44.25 197.49 18.8 250.52 133.34 197.49 243.63 273.85 296.65 239.91 417.55 345.96 440.88"/><polygon class="cls-3" points="284.45 485.43 110.53 508.76 167.8 459.97 4.48 432.4 123.26 366.65 74.47 186.36 131.74 207.57 133.86 18.8 197.49 44.25 197.49 18.8 377.78 1.83 324.75 65.47 441.41 65.47 396.87 101.52 526.25 160.91 428.68 199.09 500.8 286.05 422.32 286.05 449.89 360.29 405.35 389.98 394.75 462.09 250.52 549.05 284.45 485.43"/></g></g></svg>