<svg xmlns="http://www.w3.org/2000/svg" viewBox="0 0 326.04 769.27"><defs><style>.cls-1{fill:#fff;}.cls-2{fill:#0198e7;}.cls-3{fill:#0179c7;}.cls-4{fill:#0378c5;}.cls-5{fill:#1d85cc;}.cls-6{fill:#19a2e6;}.cls-7{fill:#1e84cc;}</style></defs><title>plastico_2</title><g id="Camada_2" data-name="Camada 2"><g id="Camada_11" data-name="Camada 11"><path class="cls-1" d="M194.25,769.27c-15.57,0-25.61-1.32-31.23-2.42-5.63,1.1-15.66,2.42-31.23,2.42-21.52,0-47.2-2.48-76.33-7.37l-3.3-.55-2.87-1.72c-43-25.82-57.84-135.08-44-324.76a140.81,140.81,0,0,1,21.41-64.61l.74-1.19a25.33,25.33,0,0,0-2.6-29.69C-4,306.32-1.62,249.89,2.38,219.2,8,176.45,31.44,137,68.51,108c5.27-4.11,9.31-10.09,12.29-16.11H73.23V0H252.81V91.91h-7.57c3,6,7,12,12.28,16.11,37.08,29,60.56,68.44,66.13,111.18,4,30.69,6.42,87.13-22.42,120.18a25.35,25.35,0,0,0-2.62,29.69l.76,1.21a140.91,140.91,0,0,1,21.4,64.58c13.82,189.69-1,298.95-44,324.77l-2.86,1.72-3.3.55c-29.13,4.89-54.81,7.37-76.33,7.37Z"/><path class="cls-2" d="M306.13,221.5c5.24,40,2.18,82.9-18.21,106.29-42.48,12.84-86.07,16.67-124.67,16.14l.12-269.72H221s4.78,31.46,25.63,47.72C278.38,146.74,300.94,181.56,306.13,221.5Z"/><path class="cls-2" d="M303.12,436.14c5.95,81.48,14.79,278.2-35.46,308.31-77.36,13-104.64,4.24-104.64,4.24L163.2,401c36.47.53,78.3-4.59,121.19-21.27A122.16,122.16,0,0,1,303.12,436.14Z"/><path class="cls-3" d="M283.56,378.34c.3.47.53.88.83,1.35C241.5,396.37,199.67,401.49,163.2,401l.05-57c38.6.53,82.19-3.3,124.67-16.14A42.86,42.86,0,0,0,283.56,378.34Z"/><polygon class="cls-4" points="235.13 17.65 235.13 74.21 220.99 74.21 163.37 74.21 163.43 17.65 235.13 17.65"/><polygon class="cls-5" points="163.43 17.65 163.37 74.21 105.05 74.21 90.91 74.21 90.91 17.65 163.43 17.65"/><path class="cls-6" d="M163.37,74.21l-.12,269.72c-70.87-.88-125.13-16.14-125.13-16.14C17.73,304.4,14.67,261.51,19.91,221.5s27.75-74.76,59.51-99.57C100.27,105.67,105,74.21,105,74.21Z"/><path class="cls-7" d="M163.25,343.93l-.05,57C93,400,42.47,378.34,42.47,378.34a42.84,42.84,0,0,0-4.35-50.55S92.38,343.05,163.25,343.93Z"/><path class="cls-6" d="M163.2,401,163,748.69s-27.28,8.78-104.64-4.24C8.13,714.34,17,517.62,22.91,436.14a122.29,122.29,0,0,1,18.74-56.45l.82-1.35S93,400,163.2,401Z"/></g></g></svg>