<svg xmlns="http://www.w3.org/2000/svg" viewBox="0 0 55.34 130.57"><defs><style>.cls-1{fill:#fff;}.cls-2{fill:#0198e7;}.cls-3{fill:#19a2e6;}.cls-4{fill:#0378c5;}.cls-5{fill:#1d85cc;}.cls-6{fill:#1e84cc;}.cls-7{fill:#0179c7;}</style></defs><title>plastic_2</title><g id="Camada_2" data-name="Camada 2"><g id="Camada_11" data-name="Camada 11"><path class="cls-1" d="M33,130.57a28.78,28.78,0,0,1-5.3-.41,28.87,28.87,0,0,1-5.3.41,80.2,80.2,0,0,1-13-1.25l-.56-.1-.48-.29C1.06,124.55-1.45,106,.89,73.81a23.9,23.9,0,0,1,3.64-11l.12-.2a4.28,4.28,0,0,0-.44-5C-.68,52-.28,42.41.4,37.2A28.87,28.87,0,0,1,11.63,18.33a7.79,7.79,0,0,0,2.08-2.73H12.43V0H42.91V15.6H41.62a7.94,7.94,0,0,0,2.09,2.73A28.82,28.82,0,0,1,54.93,37.2C55.61,42.41,56,52,51.13,57.6a4.3,4.3,0,0,0-.45,5l.13.21a23.81,23.81,0,0,1,3.63,11c2.35,32.19-.16,50.74-7.47,55.12l-.48.29-.57.1a80,80,0,0,1-13,1.25Z"/><path class="cls-2" d="M52,37.6c.89,6.79.37,14.07-3.09,18a70.38,70.38,0,0,1-21.16,2.74l0-45.78h9.78s.81,5.34,4.35,8.1A25.87,25.87,0,0,1,52,37.6Z"/><path class="cls-3" d="M27.73,12.6l0,45.78A91.07,91.07,0,0,1,6.47,55.64c-3.46-4-4-11.25-3.09-18a25.87,25.87,0,0,1,10.1-16.9c3.54-2.76,4.35-8.1,4.35-8.1Z"/><polygon class="cls-4" points="39.91 3 39.91 12.6 37.51 12.6 27.73 12.6 27.74 3 39.91 3"/><polygon class="cls-5" points="27.74 3 27.73 12.6 17.83 12.6 15.43 12.6 15.43 3 27.74 3"/><path class="cls-6" d="M27.71,58.38v9.68A58.65,58.65,0,0,1,7.21,64.22a7.27,7.27,0,0,0-.74-8.58A91.07,91.07,0,0,0,27.71,58.38Z"/><path class="cls-3" d="M7.21,64.22A58.65,58.65,0,0,0,27.7,68.06l0,59s-4.63,1.49-17.76-.72c-8.53-5.11-7-38.5-6-52.33a20.73,20.73,0,0,1,3.18-9.58Z"/><path class="cls-7" d="M48.13,64.22l.14.23A54.43,54.43,0,0,1,27.7,68.06V58.38a70.38,70.38,0,0,0,21.16-2.74A7.27,7.27,0,0,0,48.13,64.22Z"/><path class="cls-2" d="M51.45,74c1,13.83,2.51,47.22-6,52.33-13.13,2.21-17.76.72-17.76.72l0-59a54.43,54.43,0,0,0,20.57-3.61A20.73,20.73,0,0,1,51.45,74Z"/></g></g></svg>