<svg xmlns="http://www.w3.org/2000/svg" viewBox="0 0 447.06 649.03"><defs><style>.cls-1{fill:#fff;}.cls-2{fill:#99aaba;}.cls-3{fill:#a2b3c3;}</style></defs><title>plastico_1</title><g id="Camada_2" data-name="Camada 2"><g id="Camada_10" data-name="Camada 10"><path class="cls-1" d="M80.72,649A80.81,80.81,0,0,1,0,568.31V0H161.43V212.1h1.38a63.27,63.27,0,0,1,121.44,0h1.38V0H447.06V568.31A80.81,80.81,0,0,1,366.35,649Z"/><path class="cls-2" d="M429.39,17.67V568.31a63.27,63.27,0,0,1-63,63H223.53V229.77h24.81a24.79,24.79,0,0,0-24.81-24.68v-20.8a45.57,45.57,0,0,1,45.6,45.48h34.18V17.67Z"/><path class="cls-3" d="M223.53,229.77V631.35H80.72a63.23,63.23,0,0,1-63-63V17.67H143.76v212.1h34.17a45.58,45.58,0,0,1,45.6-45.48v20.8a24.78,24.78,0,0,0-24.8,24.68Z"/></g></g></svg>