<svg xmlns="http://www.w3.org/2000/svg" viewBox="0 0 75.88 110.16"><defs><style>.cls-1{fill:#fff;}.cls-2{fill:#99aaba;}.cls-3{fill:#a2b3c3;}</style></defs><title>plastic_3</title><g id="Camada_2" data-name="Camada 2"><g id="Camada_10" data-name="Camada 10"><path class="cls-1" d="M13.7,110.16A13.72,13.72,0,0,1,0,96.46V0H27.4V36h.23a10.74,10.74,0,0,1,20.62,0h.23V0h27.4V96.46a13.72,13.72,0,0,1-13.7,13.7Z"/><path class="cls-2" d="M72.88,3V96.46a10.74,10.74,0,0,1-10.7,10.7H37.94V39h4.21a4.21,4.21,0,0,0-4.21-4.19V31.28A7.74,7.74,0,0,1,45.68,39h5.8V3Z"/><path class="cls-3" d="M37.94,39v68.16H13.7A10.73,10.73,0,0,1,3,96.46V3H24.4V39h5.8a7.74,7.74,0,0,1,7.74-7.72v3.53A4.21,4.21,0,0,0,33.73,39Z"/></g></g></svg>