<svg xmlns="http://www.w3.org/2000/svg" viewBox="0 0 82.06 112.79"><defs><style>.cls-1{fill:#fff;}.cls-2{fill:#ffc027;}.cls-3{fill:#25374d;}.cls-4{fill:#f25532;}.cls-5{fill:#feca50;}.cls-6{fill:#495a6a;}.cls-7{fill:#ff7062;}</style></defs><title>plastic_1</title><g id="Camada_2" data-name="Camada 2"><g id="Camada_12" data-name="Camada 12"><polygon class="cls-1" points="41.12 112.79 5.2 41.01 7.2 27.73 0 13.34 26.65 0 33.64 14.43 46.1 20.46 82.06 92.3 41.12 112.79"/><rect class="cls-2" x="51.06" y="60.97" width="19.89" height="36.36" transform="translate(-28.98 35.67) rotate(-26.59)"/><rect class="cls-3" x="38.93" y="46.02" width="19.89" height="17.82" transform="translate(-19.42 27.69) rotate(-26.59)"/><polygon class="cls-2" points="43.88 22.71 53.78 42.51 36 51.41 19 17.45 29.27 12.31 31.4 16.68 43.88 22.71"/><polygon class="cls-4" points="25.27 4.04 29.27 12.31 19 17.45 14.89 9.24 25.27 4.04"/><rect class="cls-5" x="33.27" y="69.88" width="19.89" height="36.36" transform="translate(-34.84 28.65) rotate(-26.59)"/><rect class="cls-6" x="21.15" y="54.92" width="19.89" height="17.82" transform="translate(-25.28 20.67) rotate(-26.59)"/><polygon class="cls-5" points="19 17.45 36 51.41 18.21 60.31 8.3 40.52 10.31 27.23 8.13 22.89 19 17.45"/><rect class="cls-7" x="5.44" y="11.47" width="12.15" height="9.18" transform="translate(-5.97 6.85) rotate(-26.59)"/></g></g></svg>