<svg xmlns="http://www.w3.org/2000/svg" viewBox="0 0 483.47 664.52"><defs><style>.cls-1{fill:#fff;}.cls-2{fill:#ffc027;}.cls-3{fill:#25374d;}.cls-4{fill:#f25532;}.cls-5{fill:#feca50;}.cls-6{fill:#495a6a;}.cls-7{fill:#ff7062;}</style></defs><title>plastico_3</title><g id="Camada_2" data-name="Camada 2"><g id="Camada_12" data-name="Camada 12"><polygon class="cls-1" points="242.27 664.52 30.61 241.61 42.42 163.35 0 78.58 157 0 198.2 85.03 271.61 120.52 483.47 543.81 242.27 664.52"/><rect class="cls-2" x="300.82" y="359.24" width="117.19" height="214.22" transform="translate(-170.72 210.18) rotate(-26.59)"/><rect class="cls-3" x="229.39" y="271.13" width="117.19" height="104.99" transform="translate(-114.39 163.12) rotate(-26.59)"/><polygon class="cls-2" points="258.5 133.81 316.88 250.46 212.09 302.91 111.94 102.8 172.48 72.5 184.98 98.27 258.5 133.81"/><polygon class="cls-4" points="148.9 23.82 172.48 72.5 111.94 102.8 87.73 54.44 148.9 23.82"/><rect class="cls-5" x="196.03" y="411.69" width="117.19" height="214.22" transform="translate(-205.27 168.83) rotate(-26.59)"/><rect class="cls-6" x="124.6" y="323.58" width="117.19" height="104.99" transform="translate(-148.95 121.76) rotate(-26.59)"/><polygon class="cls-5" points="111.94 102.8 212.09 302.91 107.3 355.36 48.92 238.71 60.74 160.45 47.93 134.84 111.94 102.8"/><rect class="cls-7" x="32.04" y="67.6" width="71.58" height="54.09" transform="translate(-35.18 40.37) rotate(-26.59)"/></g></g></svg>