<svg xmlns="http://www.w3.org/2000/svg" viewBox="0 0 279.93 657.92"><defs><style>.cls-1{fill:#c1c1c1;}.cls-2{fill:#cdcdcd;}.cls-3{fill:none;stroke:#fff;stroke-miterlimit:10;stroke-width:3px;}</style></defs><title>vidro_1</title><g id="Camada_2" data-name="Camada 2"><g id="Camada_5" data-name="Camada 5"><path class="cls-1" d="M173.9,9.69C154.81,122.1,288.44,240.88,277.83,565.39c-2.77,81.13-59.92,92.74-99.74,90.85H140V24.53l19.09,14.85Z"/><path class="cls-2" d="M140,24.53V656.24H101.85c-39.83,1.89-97-9.72-99.75-90.85C-8.5,240.88,125.12,122.1,106,9.69l14.85,29.69Z"/><path class="cls-3" d="M140,656.24h38.12c39.82,1.89,97-9.72,99.74-90.85,10.61-324.51-123-443.29-103.93-555.7L159.06,39.38,140,24.53,120.88,39.38,106,9.69C125.12,122.1-8.5,240.88,2.1,565.39c2.77,81.13,59.92,92.74,99.75,90.85Z"/></g></g></svg>