<svg xmlns="http://www.w3.org/2000/svg" viewBox="0 0 281.41 498.43"><defs><style>.cls-1{fill:#ffbe24;}.cls-2,.cls-7{fill:none;stroke-miterlimit:10;stroke-width:3px;}.cls-2{stroke:#f0a71d;}.cls-3{fill:#f29303;}.cls-4{fill:#e68503;}.cls-5{fill:#f29e18;}.cls-6{fill:#e58f18;}.cls-7{stroke:#fff;}</style></defs><title>vidro_3</title><g id="Camada_2" data-name="Camada 2"><g id="Camada_7" data-name="Camada 7"><path class="cls-1" d="M274.33,102.36C246.75,26,178.88-.5,140.7,1.62,102.53-.5,34.65,26,7.08,102.36S64.35,335.68,40,379.22H241.45C217.06,335.68,301.9,178.72,274.33,102.36Z"/><path class="cls-2" d="M69.65,156.45c-18,84.84,47.72,228,47.72,228H140.7V216.9c-29.69-43.48,0-85.9,0-85.9S87.68,71.61,69.65,156.45Z"/><path class="cls-2" d="M218.32,156.45c-18-84.84-71.06-25.45-71.06-25.45s29.7,42.42,0,85.9V384.46h23.33S236.35,241.29,218.32,156.45Z"/><path class="cls-3" d="M262.13,455.51v38.71a2.74,2.74,0,0,1-2.71,2.71H140.7V455.51Z"/><rect class="cls-4" x="140.7" y="422.64" width="121.43" height="32.88"/><path class="cls-3" d="M262.13,381.93v40.71H140.7V379.22H259.42A2.74,2.74,0,0,1,262.13,381.93Z"/><path class="cls-5" d="M140.7,455.51v41.42H22a2.74,2.74,0,0,1-2.71-2.71V455.51Z"/><rect class="cls-6" x="19.28" y="422.64" width="121.43" height="32.88"/><path class="cls-5" d="M140.7,379.22v43.42H19.28V381.93A2.73,2.73,0,0,1,22,379.22Z"/><path class="cls-7" d="M246.22,379.22h-4.77c-24.39-43.54,60.45-200.5,32.88-276.86S178.88-.5,140.7,1.62C102.53-.5,34.65,26,7.08,102.36S64.35,335.68,40,379.22H35.18a15.94,15.94,0,0,0-15.9,15.9V481a16,16,0,0,0,15.9,15.91h211A16,16,0,0,0,262.13,481v-85.9A16,16,0,0,0,246.22,379.22Z"/></g></g></svg>