<svg xmlns="http://www.w3.org/2000/svg" viewBox="0 0 267.4 692.83"><defs><style>.cls-1{fill:#fff;}.cls-2{fill:#47510a;}.cls-3{fill:#098c24;}.cls-4{fill:#1a9b37;}</style></defs><title>vidro_4</title><g id="Camada_2" data-name="Camada 2"><g id="Camada_9" data-name="Camada 9"><path class="cls-1" d="M138.11,692.83c-1.45,0-2.93,0-4.42-.07s-3,.07-4.42.07c-30.46,0-56.12-10.78-76.26-32.05C-9.91,594.37-1.6,440.87,3.36,349.16c1.07-19.89,2-37.06,1.78-47.55-.59-28,11.14-57.27,35.88-89.34C80.55,161,84.71,88.87,84.21,55c-14.87-6.56-18.4-16-18.4-23.51C65.81,3.07,113.28,0,133.69,0s67.88,3.07,67.88,31.46c0,7.49-3.52,16.95-18.4,23.51-.5,33.9,3.66,106.06,43.19,157.3,24.74,32.06,36.48,61.29,35.88,89.34-.21,10.49.71,27.67,1.79,47.56,5,91.72,13.28,245.22-49.64,311.62-20.14,21.26-45.8,32-76.25,32Z"/><path class="cls-2" d="M244.57,301.24c.61-28.65-14.7-55.48-32.2-78.17-48.7-63.11-48-153.21-46.44-181,11-2.53,18-6.32,18-10.56,0-7.61-22.48-13.79-50.21-13.79s-50.2,6.18-50.2,13.79c0,4.24,7,8,18,10.56C103,69.86,103.71,160,55,223.07c-17.51,22.69-32.82,49.52-32.21,78.17,1.51,71.07-43.95,379.85,110.88,373.83C288.53,681.09,243.07,372.31,244.57,301.24Z"/><path class="cls-3" d="M212.35,223.06c17.5,22.68,32.81,49.55,32.22,78.18-1.53,71.06,44,379.84-110.88,373.83V38.77l32.88-5.31S154.14,147.59,212.35,223.06Z"/><path class="cls-4" d="M133.69,38.77v636.3c-154.83,6-109.35-302.77-110.88-373.83-.59-28.63,14.73-55.5,32.23-78.18,58.21-75.47,45.78-189.6,45.78-189.6Z"/><ellipse class="cls-2" cx="133.69" cy="31.46" rx="50.21" ry="13.79"/></g></g></svg>