<svg xmlns="http://www.w3.org/2000/svg" viewBox="0 0 327.14 315.14"><defs><style>.cls-1{fill:none;stroke:#054c48;stroke-miterlimit:10;stroke-width:5px;}.cls-2{fill:#057c79;}.cls-3{fill:#00d2d3;}.cls-4{fill:#01a3a4;}.cls-5{fill:#fff;}</style></defs><title>Ativo 1</title><g id="Camada_2" data-name="Camada 2"><g id="Camada_2-2" data-name="Camada 2"><path class="cls-1" d="M53.45,217.37A27.53,27.53,0,0,1,57,209.89C71.91,188,88,173,104.42,163.22c2,9.61,8.89,19.12,24,27.15a29.75,29.75,0,0,0,10.72,1.92,8.84,8.84,0,0,0,8.64-10.07,99.21,99.21,0,0,1,1.08-33.93c60.11-6.58,114.39,36.57,120,44,8.18,10.9,15.06,26.53,31.64,30.21.94.21,1.91.38,2.92.51,18.72,2.4,20.16-28.8,14.88-38.88s-1-24-1-24c38.52-121.52-85-159.8-115-157.54a84.2,84.2,0,0,1-8.55.26c-6.56-.16-17.91.76-37.37,8.06C98.83-3,39.83,16.13,39.83,16.13L75.34,53.9c-85.78,55.26-55.67,182.19-55.67,182.19.8,3.84,3.94,45.22-15.48,62.37a5.14,5.14,0,0,0-.36,7.27c17.55,19.58,40.83-8.46,41.28-10.72s-.48-18.72,5.28-13.92c15.77,18.77,38.29,5.83,47.35-.7a10.12,10.12,0,0,0,4.18-9.56,15.62,15.62,0,0,0-.33-1.8,10.17,10.17,0,0,0-10.82-7.62c-16.88,1.29-31.7-11.21-37.18-27.9a26.79,26.79,0,0,1-.14-16.14"/><path class="cls-2" d="M78.15,56.9,39.83,16.13s63.33-20.52,122.73-3.6Z"/><path class="cls-3" d="M300.43,222.5c-16.58-3.68-23.46-19.31-31.64-30.21C260.34,181,140,87.68,57,209.89a27.53,27.53,0,0,0-3.58,7.48c-18.48-39.71,24-84.8,72-100.64C195,93.83,247.32,143.42,300.43,222.5Z"/><path class="cls-4" d="M317.27,160.13C355.82,38.52,232,.27,202.2,2.6a82.73,82.73,0,0,1-8.48.25c-12.8-.32-43.83,3.51-117.89,50.72-86.4,55.08-56.16,182.52-56.16,182.52.78,3.74,3.78,43-14,61a7.41,7.41,0,0,0,.18,10.72C23.12,323.21,44.68,297.18,45.11,295c.48-2.4-.48-18.72,5.28-13.92,15.77,18.77,38.29,5.83,47.35-.7a10.12,10.12,0,0,0,4.18-9.56,15.62,15.62,0,0,0-.33-1.8,10.17,10.17,0,0,0-10.82-7.62c-16.88,1.29-31.7-11.21-37.18-27.9a26.79,26.79,0,0,1-.14-16.14c-18-38.68,21.84-82.47,68.34-99.35-12.83,14.64-36.28,49.52,6.6,72.35a29.91,29.91,0,0,0,11.16,1.92,8.51,8.51,0,0,0,8.25-9.73c-2.1-14.81-3.3-47.59,21.11-70.89C218,117,259,160.77,300.43,222.5c.94.21,1.91.38,2.92.51,18.72,2.4,20.16-28.8,14.88-38.88S317.27,160.13,317.27,160.13Z"/><circle class="cls-5" cx="265.89" cy="87.48" r="23.64"/><circle cx="272.95" cy="89.38" r="11.52"/><circle class="cls-5" cx="271.67" cy="84.82" r="2.64"/></g></g></svg>