<svg xmlns="http://www.w3.org/2000/svg" viewBox="0 0 1482.7 2008.46"><defs><style>.cls-1{fill:#e74c3c;}.cls-1,.cls-2,.cls-3,.cls-4{stroke:#fff;stroke-miterlimit:10;stroke-width:3px;}.cls-2{fill:#2ecc71;}.cls-3{fill:#3498db;}.cls-4{fill:#f1c40f;}</style></defs><title>Ativo 39</title><g id="Camada_2" data-name="Camada 2"><g id="Camada_13" data-name="Camada 13"><circle class="cls-1" cx="972.07" cy="142.92" r="104.62"/><circle class="cls-2" cx="972.07" cy="415.83" r="104.62"/><circle class="cls-3" cx="1247.63" cy="415.83" r="104.62"/><circle class="cls-4" cx="1247.63" cy="142.92" r="104.62"/><rect class="cls-3" x="1.5" y="1.5" width="369.17" height="225.71" rx="21.7"/><rect class="cls-1" x="1.5" y="263.05" width="369.17" height="225.71" rx="21.7"/><rect class="cls-4" x="406.46" y="263.05" width="369.17" height="225.71" rx="21.7"/><rect class="cls-2" x="392.61" y="6.07" width="369.17" height="225.71" rx="21.7"/><polygon class="cls-1" points="186.09 655.69 40.02 908.69 332.15 908.69 186.09 655.69 40.02 908.69 332.15 908.69 186.09 655.69"/><polygon class="cls-2" points="186.09 928.25 40.02 1181.25 332.15 1181.25 186.09 928.25 40.02 1181.25 332.15 1181.25 186.09 928.25"/><polygon class="cls-3" points="491.68 928.25 345.61 1181.25 637.75 1181.25 491.68 928.25 345.61 1181.25 637.75 1181.25 491.68 928.25"/><polygon class="cls-4" points="538.68 555.65 392.61 808.65 684.75 808.65 538.68 555.65 392.61 808.65 684.75 808.65 538.68 555.65"/><polygon class="cls-3" points="958.59 574.75 1010.58 680.09 1126.83 696.98 1042.71 778.97 1062.57 894.75 958.59 840.09 854.62 894.75 874.48 778.97 790.36 696.98 906.61 680.09 958.59 574.75"/><polygon class="cls-2" points="958.59 861.25 1010.58 966.59 1126.83 983.48 1042.71 1065.47 1062.57 1181.25 958.59 1126.59 854.62 1181.25 874.48 1065.47 790.36 983.48 906.61 966.59 958.59 861.25"/><polygon class="cls-1" points="1311.24 861.25 1363.23 966.59 1479.48 983.48 1395.36 1065.47 1415.22 1181.25 1311.24 1126.59 1207.27 1181.25 1227.13 1065.47 1143.01 983.48 1259.26 966.59 1311.24 861.25"/><polygon class="cls-4" points="1311.24 574.75 1363.23 680.09 1479.48 696.98 1395.36 778.97 1415.22 894.75 1311.24 840.09 1207.27 894.75 1227.13 778.97 1143.01 696.98 1259.26 680.09 1311.24 574.75"/><polygon class="cls-1" points="328.09 1352.37 164.22 1352.37 82.29 1494.29 164.22 1636.2 328.09 1636.2 410.03 1494.29 328.09 1352.37"/><polygon class="cls-3" points="328.09 1723.13 164.22 1723.13 82.29 1865.04 164.22 2006.96 328.09 2006.96 410.03 1865.04 328.09 1723.13"/><polygon class="cls-2" points="719.69 1723.13 555.82 1723.13 473.88 1865.04 555.82 2006.96 719.69 2006.96 801.62 1865.04 719.69 1723.13"/><polygon class="cls-4" points="719.69 1352.37 555.82 1352.37 473.88 1494.29 555.82 1636.2 719.69 1636.2 801.62 1494.29 719.69 1352.37"/><circle class="cls-1" cx="972.07" cy="142.92" r="104.62"/></g></g></svg>