<svg xmlns="http://www.w3.org/2000/svg" viewBox="0 0 928.9 1034.33"><defs><style>.cls-1{fill:#c1c1c1;}.cls-2,.cls-42{fill:#d9d9d9;}.cls-3,.cls-35,.cls-44,.cls-6,.cls-7{fill:none;}.cls-3,.cls-42{stroke:#fff;}.cls-3,.cls-35,.cls-42,.cls-7{stroke-miterlimit:10;}.cls-3,.cls-35,.cls-42{stroke-width:3px;}.cls-4{fill:#fff;}.cls-5{fill:#737b86;}.cls-7{stroke:#98a5ae;}.cls-8{fill:#a2b4c2;}.cls-9{fill:#7b8891;}.cls-10{fill:#99aaba;}.cls-11{fill:#fe4a39;}.cls-12{fill:#a3b7c2;}.cls-13{fill:#fd5b4e;}.cls-14{fill:#d88b01;}.cls-15{fill:#f6a822;}.cls-16{fill:#fdcb50;}.cls-17{fill:#febf26;}.cls-18{fill:#ffc027;}.cls-19{fill:#25374d;}.cls-20{fill:#f25532;}.cls-21{fill:#feca50;}.cls-22{fill:#495a6a;}.cls-23{fill:#ff7062;}.cls-24{fill:#0198e7;}.cls-25{fill:#0179c7;}.cls-26{fill:#0378c5;}.cls-27{fill:#1d85cc;}.cls-28{fill:#19a2e6;}.cls-29{fill:#1e84cc;}.cls-30{fill:#a2b3c3;}.cls-31{fill:#47510a;}.cls-32{fill:#098c24;}.cls-33{fill:#1a9b37;}.cls-34{fill:#ffbe24;}.cls-35{stroke:#f0a71d;}.cls-36{fill:#e68503;}.cls-37{fill:#f29303;}.cls-38{fill:#f29e18;}.cls-39{fill:#e58f18;}.cls-40{fill:#cdcdcb;}.cls-41{fill:#cdcdcd;}.cls-43{fill:#ffcb53;}.cls-44{stroke:#895f47;stroke-linecap:round;stroke-linejoin:round;stroke-width:2px;}.cls-45{fill:#36b86e;}.cls-46{fill:#03a943;}.cls-47{fill:#e6e6e6;}.cls-48{fill:#e0e0e0;}</style></defs><title>Ativo 36</title><g id="Camada_2" data-name="Camada 2"><g id="Camada_16" data-name="Camada 16"><polygon class="cls-1" points="168.83 874.45 138.1 886.48 160.81 913.87 136.09 913.87 144.78 937.25 130.75 946.61 127.41 969.32 81.98 996.72 92.67 976.67 112.04 962.64 78.64 955.29 89.33 917.21 65.28 900.51 81.98 865.77 65.28 829.69 122.06 824.35 105.36 844.39 142.11 844.39 128.08 855.75 168.83 874.45"/><polygon class="cls-2" points="112.04 962.64 92.67 976.67 37.88 984.02 55.92 968.66 4.48 959.97 41.89 939.26 26.53 882.47 44.56 889.15 45.23 829.69 65.28 837.71 65.28 829.69 81.98 865.77 65.28 900.51 89.33 917.21 78.64 955.29 112.04 962.64"/><polygon class="cls-3" points="92.67 976.67 37.88 984.02 55.92 968.66 4.48 959.97 41.89 939.26 26.53 882.47 44.56 889.15 45.23 829.69 65.28 837.71 65.28 829.69 122.06 824.35 105.36 844.39 142.11 844.39 128.08 855.75 168.83 874.45 138.1 886.48 160.81 913.87 136.09 913.87 144.78 937.25 130.75 946.61 127.41 969.32 81.98 996.72 92.67 976.67"/></g><g id="Camada_15" data-name="Camada 15"><polygon class="cls-4" points="811.75 957.59 811.75 801.77 797.79 790.73 815.75 781.64 799.38 761.65 818.68 751.87 811.58 729.08 841.01 734.33 852.17 711.66 866.63 729.85 884.47 710.89 890.02 731.81 920.63 725.28 906.47 751.63 928.9 759.58 912.11 773.34 927.95 784.24 913.15 793.32 928.28 801.25 915.53 810.48 915.53 957.59 811.75 957.59"/><polygon class="cls-5" points="909.9 788.78 901.87 793.71 907.6 796.7 917.74 802.01 900.9 814.2 836.45 814.2 808.08 791.76 824.44 783.47 808.08 763.48 825.39 754.71 819.62 736.16 844.15 740.54 853.28 722 866.05 738.08 866.27 738.36 866.53 738.08 881.66 722 886 738.36 910.03 733.23 899.77 752.33 898.49 754.71 902.87 756.26 917.74 761.53 908.9 768.77 902.83 773.73 910.61 779.07 917.74 783.97 909.9 788.78"/><path class="cls-6" d="M902.87,756.26l-4.38-1.56,1.28-2.37A40.55,40.55,0,0,1,902.87,756.26Z"/><polygon class="cls-5" points="909.9 788.78 901.87 793.71 907.6 796.7 917.74 802.01 900.9 814.2 836.45 814.2 808.08 791.76 824.44 783.47 808.08 763.48 825.39 754.71 819.62 736.16 844.15 740.54 853.28 722 866.05 738.08 866.27 738.36 866.53 738.08 881.66 722 886 738.36 910.03 733.23 899.77 752.33 898.49 754.71 902.87 756.26 917.74 761.53 908.9 768.77 902.83 773.73 910.61 779.07 917.74 783.97 909.9 788.78"/><circle class="cls-7" cx="867.85" cy="780.85" r="21.97"/><circle class="cls-7" cx="867.85" cy="780.85" r="14.32"/><path class="cls-7" d="M907.6,796.7a42.79,42.79,0,1,1-41.55-58.62,3.84,3.84,0,0,1,.48,0c.45,0,.88,0,1.32,0a42.68,42.68,0,0,1,31.92,14.29"/><path class="cls-7" d="M910.61,779.07c0,.6,0,1.19,0,1.78a42.22,42.22,0,0,1-.75,7.93"/><path class="cls-7" d="M902.87,756.26a41.87,41.87,0,0,1,6,12.51"/><circle class="cls-7" cx="867.85" cy="780.85" r="33.45"/><rect class="cls-8" x="817.32" y="802.82" width="92.64" height="149.21"/><rect class="cls-9" x="817.32" y="820.72" width="91.79" height="9.93"/><rect class="cls-9" x="817.32" y="845.9" width="91.79" height="9.93"/><rect class="cls-9" x="817.32" y="871.65" width="91.79" height="9.93"/><rect class="cls-9" x="817.32" y="897.41" width="91.79" height="9.93"/><rect class="cls-9" x="817.32" y="926.28" width="91.79" height="9.93"/></g><g id="Camada_14" data-name="Camada 14"><path class="cls-10" d="M771.23,676.2a15.36,15.36,0,0,1-1.8,14.25l-22.81,32.72-12.4-8.52,31.72-46.88A25.19,25.19,0,0,1,771.23,676.2Z"/><path class="cls-11" d="M765.94,667.77l-31.72,46.88L605.47,626.09l32.47-46.38c15.52,5.55,21.14,26.56,28.64,38.14a12.27,12.27,0,0,0,9.65,5.53c34.57,2.1,40.9,16.15,47.62,26.58a21.06,21.06,0,0,0,18.31,9.78C754.1,659.33,761.45,663.06,765.94,667.77Z"/><path class="cls-12" d="M746.62,723.17,725.13,754a16.08,16.08,0,0,1-13.9,6.94,30,30,0,0,1-7.46-1.31l30.45-45Z"/><path class="cls-13" d="M605.47,626.09l128.75,88.56-30.45,45c-17.84-5.44-28.95-26.25-33.3-37.44a9.69,9.69,0,0,0-8.92-6.21c-46.23-.63-52.6-41.52-63-39.38-10.82,4.71-18.65,0-23.57-7Z"/><path class="cls-10" d="M637.94,579.71l-32.47,46.38L590.82,616c7.07-10.17,14.24-20.28,19-26.93a24.85,24.85,0,0,1,23.1-10.59A23,23,0,0,1,637.94,579.71Z"/><path class="cls-12" d="M605.47,626.09,575,669.61a36.32,36.32,0,0,1-5.9-15.31,12.89,12.89,0,0,1,1.77-8.3c3.89-6.53,11.87-18.28,20-30Z"/><path class="cls-3" d="M637.94,579.71a23,23,0,0,0-5.05-1.2,24.85,24.85,0,0,0-23.1,10.59c-4.73,6.65-11.9,16.76-19,26.93-8.11,11.69-16.09,23.44-20,30a12.89,12.89,0,0,0-1.77,8.3,36.32,36.32,0,0,0,5.9,15.31c4.92,7,12.75,11.71,23.57,7,10.41-2.14,16.78,38.75,63,39.38a9.69,9.69,0,0,1,8.92,6.21c4.35,11.19,15.46,32,33.3,37.44a30,30,0,0,0,7.46,1.31,16.08,16.08,0,0,0,13.9-6.94l21.49-30.84,22.81-32.72a15.36,15.36,0,0,0,1.8-14.25,25.19,25.19,0,0,0-5.29-8.43c-4.49-4.71-11.84-8.44-23.78-8A21.06,21.06,0,0,1,723.85,650c-6.72-10.43-13.05-24.48-47.62-26.58a12.27,12.27,0,0,1-9.65-5.53C659.08,606.27,653.46,585.26,637.94,579.71Z"/></g><g id="Camada_13" data-name="Camada 13"><path class="cls-4" d="M760.85,995.37l-1.06,0L579.58,987.3a23.63,23.63,0,0,1-22.52-24.64L559,920a23.57,23.57,0,0,1,23.58-22.55c.35,0,.71,0,1.06,0l54.91,2.45c25.85-5.43,84.45-21.71,92.87-58.76-5-12.83-17.77-48-11.62-60.73a10.39,10.39,0,0,1,6.45-5.68l1.94-.6c3.91-1.22,8.79-2.75,13.67-2.75a17.34,17.34,0,0,1,13.82,6.09c7.5,8.78,8.78,26.86,4,56.9l0,.28-.13.5c1.85,18.69-5.86,46.1-32.14,68.72l36.44,1.63a23.65,23.65,0,0,1,22.53,24.63l-1.9,42.72a23.57,23.57,0,0,1-23.58,22.55ZM738.28,787.82c-3.31,0-5.34,1.73-5.34,2.67s2,2.68,5.34,2.68,5.35-1.73,5.35-2.68S741.6,787.82,738.28,787.82Z"/><path class="cls-14" d="M727.81,780c-13.36,4,9.36,60.57,9.36,60.57s7.12,30.29,17-7.12C765,765.33,741.18,776,727.81,780Zm10.47,18.7c-6,0-10.91-3.68-10.91-8.24s4.88-8.24,10.91-8.24,10.91,3.69,10.91,8.24S744.31,798.73,738.28,798.73Z"/><path class="cls-15" d="M622.7,908.3s104.22-12.91,114.47-67.7,45,25.83-29.84,70.82Z"/><path class="cls-16" d="M781.15,921.53l-1.3,29.1L563.48,943.4l1.41-31.52A9.76,9.76,0,0,1,575,902.6l196.83,8.8A9.77,9.77,0,0,1,781.15,921.53Z"/><path class="cls-17" d="M768.35,990.16l-196.83-8.79a9.78,9.78,0,0,1-9.28-10.14l1.24-27.83,216.37,7.23-1.35,30.25A9.75,9.75,0,0,1,768.35,990.16Z"/></g><g id="Camada_12" data-name="Camada 12"><polygon class="cls-4" points="839.4 216.2 772.72 82.98 776.45 58.33 763.08 31.63 812.54 6.88 825.51 33.66 848.64 44.84 915.37 178.17 839.4 216.2"/><rect class="cls-18" x="857.84" y="120.04" width="36.91" height="67.48" transform="translate(23.84 408.46) rotate(-26.59)"/><rect class="cls-19" x="835.34" y="92.28" width="36.91" height="33.07" transform="translate(41.58 393.64) rotate(-26.59)"/><polygon class="cls-18" points="844.51 49.03 862.9 85.77 829.89 102.29 798.34 39.26 817.41 29.72 821.35 37.84 844.51 49.03"/><polygon class="cls-20" points="809.99 14.38 817.41 29.72 798.34 39.26 790.72 24.03 809.99 14.38"/><rect class="cls-21" x="824.83" y="136.56" width="36.91" height="67.48" transform="translate(12.96 395.44) rotate(-26.59)"/><rect class="cls-22" x="802.33" y="108.81" width="36.91" height="33.07" transform="translate(30.7 380.61) rotate(-26.59)"/><polygon class="cls-21" points="798.34 39.26 829.89 102.29 796.88 118.81 778.49 82.07 782.22 57.42 778.18 49.35 798.34 39.26"/><rect class="cls-23" x="773.18" y="28.17" width="22.55" height="17.04" transform="translate(66.53 354.98) rotate(-26.59)"/></g><g id="Camada_11" data-name="Camada 11"><path class="cls-4" d="M642.2,299.79a52.91,52.91,0,0,1-9.84-.76,53.09,53.09,0,0,1-9.84.76,148.52,148.52,0,0,1-24-2.32l-1-.18-.91-.54c-13.55-8.13-18.21-42.55-13.86-102.29a44.37,44.37,0,0,1,6.74-20.35l.24-.38a8,8,0,0,0-.82-9.35c-9.09-10.41-8.33-28.19-7.07-37.86,1.76-13.46,9.15-25.89,20.83-35a14.79,14.79,0,0,0,3.87-5.08h-2.39v-29h56.57v29h-2.38a14.79,14.79,0,0,0,3.86,5.08c11.68,9.11,19.08,21.55,20.84,35,1.26,9.67,2,27.45-7.07,37.86a8,8,0,0,0-.82,9.35l.24.38a44.49,44.49,0,0,1,6.74,20.35c4.35,59.74-.31,94.16-13.87,102.29l-.9.54-1,.18a148.72,148.72,0,0,1-24,2.32Z"/><path class="cls-24" d="M677.44,127.25c1.65,12.6.68,26.11-5.74,33.48a130.67,130.67,0,0,1-39.27,5.08l0-85h18.15s1.5,9.91,8.07,15C668.69,103.7,675.8,114.67,677.44,127.25Z"/><path class="cls-24" d="M676.49,194.86c1.87,25.66,4.66,87.63-11.17,97.11-24.37,4.1-33,1.34-33,1.34l0-109.53a101.2,101.2,0,0,0,38.18-6.7A38.6,38.6,0,0,1,676.49,194.86Z"/><path class="cls-25" d="M670.33,176.65c.09.15.16.28.26.43a101.2,101.2,0,0,1-38.18,6.7l0-18a130.67,130.67,0,0,0,39.27-5.08A13.49,13.49,0,0,0,670.33,176.65Z"/><polygon class="cls-26" points="655.07 63.04 655.07 80.85 650.62 80.85 632.47 80.85 632.49 63.04 655.07 63.04"/><polygon class="cls-27" points="632.49 63.04 632.47 80.85 614.1 80.85 609.64 80.85 609.64 63.04 632.49 63.04"/><path class="cls-28" d="M632.47,80.85l0,85A168.74,168.74,0,0,1,593,160.73c-6.42-7.37-7.38-20.88-5.73-33.48S596,103.7,606,95.89c6.57-5.13,8.08-15,8.08-15Z"/><path class="cls-29" d="M632.43,165.81l0,18c-22.12-.3-38-7.13-38-7.13A13.5,13.5,0,0,0,593,160.73,168.74,168.74,0,0,0,632.43,165.81Z"/><path class="cls-28" d="M632.41,183.78l0,109.53s-8.59,2.76-33-1.34c-15.83-9.48-13-71.45-11.17-97.11a38.37,38.37,0,0,1,5.9-17.78c.09-.15.16-.28.26-.43C594.39,176.65,610.29,183.48,632.41,183.78Z"/></g><g id="Camada_10" data-name="Camada 10"><path class="cls-4" d="M725.57,431.42A25.45,25.45,0,0,1,700.15,406V227H751v66.81h.43a19.93,19.93,0,0,1,38.25,0h.44V227H841V406a25.45,25.45,0,0,1-25.42,25.43Z"/><path class="cls-10" d="M835.4,232.55V406a19.93,19.93,0,0,1-19.86,19.86h-45V299.36h7.81a7.81,7.81,0,0,0-7.81-7.78V285a14.35,14.35,0,0,1,14.36,14.33h10.76V232.55Z"/><path class="cls-30" d="M770.56,299.36V425.85h-45A19.92,19.92,0,0,1,705.71,406V232.55h39.72v66.81h10.76A14.36,14.36,0,0,1,770.56,285v6.55a7.81,7.81,0,0,0-7.82,7.78Z"/></g><g id="Camada_9" data-name="Camada 9"><path class="cls-4" d="M233.35,396.87l-1.39,0-1.39,0a31.83,31.83,0,0,1-24-10.1c-19.82-20.91-17.2-69.27-15.64-98.15.34-6.27.63-11.68.56-15-.19-8.84,3.51-18,11.3-28.14,12.45-16.14,13.76-38.87,13.61-49.55-4.69-2.07-5.8-5-5.8-7.41,0-8.94,14.95-9.91,21.38-9.91s21.38,1,21.38,9.91c0,2.36-1.11,5.34-5.79,7.41-.16,10.68,1.15,33.41,13.6,49.55,7.79,10.1,11.49,19.3,11.3,28.14-.06,3.3.23,8.71.57,15,1.56,28.89,4.18,77.24-15.64,98.16a31.85,31.85,0,0,1-24,10.09Z"/><path class="cls-31" d="M266.89,273.52c.19-9-4.63-17.47-10.15-24.62-15.33-19.88-15.11-48.26-14.62-57,3.46-.8,5.66-2,5.66-3.33,0-2.39-7.08-4.34-15.82-4.34s-15.81,2-15.81,4.34c0,1.34,2.2,2.53,5.66,3.33.48,8.77.71,37.15-14.63,57-5.51,7.15-10.34,15.6-10.14,24.62.47,22.39-13.85,119.65,34.92,117.75C280.73,393.17,266.42,295.91,266.89,273.52Z"/><path class="cls-32" d="M256.74,248.9c5.51,7.14,10.33,15.6,10.15,24.62-.48,22.38,13.84,119.65-34.93,117.75V190.85l10.36-1.67S238.4,225.12,256.74,248.9Z"/><path class="cls-33" d="M232,190.85V391.27c-48.77,1.9-34.44-95.37-34.92-117.75-.19-9,4.64-17.48,10.15-24.62,18.33-23.78,14.42-59.72,14.42-59.72Z"/><ellipse class="cls-31" cx="231.96" cy="188.54" rx="15.81" ry="4.34"/></g><g id="Camada_7" data-name="Camada 7"><path class="cls-34" d="M140.43,242c-8.68-24.05-30.06-32.41-42.09-31.74-12-.67-33.4,7.69-42.09,31.74s18,73.49,10.36,87.2h63.47C122.39,315.49,149.12,266.05,140.43,242Z"/><path class="cls-35" d="M76,259c-5.68,26.73,15,71.82,15,71.82h7.35V278.07c-9.35-13.69,0-27,0-27S81.64,232.31,76,259Z"/><path class="cls-35" d="M122.79,259c-5.68-26.72-22.38-8-22.38-8s9.35,13.36,0,27v52.78h7.35S128.47,285.76,122.79,259Z"/><rect class="cls-36" x="98.34" y="342.88" width="38.25" height="10.36"/><path class="cls-37" d="M98.34,329.2H133.9a2.7,2.7,0,0,1,2.69,2.69v11H98.34Z"/><path class="cls-37" d="M98.34,366.28v-13h38.25v10.36a2.7,2.7,0,0,1-2.69,2.69Z"/><path class="cls-38" d="M60.09,342.88v-11a2.7,2.7,0,0,1,2.69-2.69H98.34v13.68Z"/><path class="cls-38" d="M62.78,366.28a2.7,2.7,0,0,1-2.69-2.69V353.23H98.34v13Z"/><rect class="cls-39" x="60.09" y="342.88" width="38.25" height="10.36"/><path class="cls-3" d="M131.58,329.2h-1.5c-7.69-13.71,19-63.15,10.35-87.2s-30.06-32.41-42.09-31.74c-12-.67-33.4,7.69-42.09,31.74s18,73.49,10.36,87.2H65.1a5,5,0,0,0-5,5v27.06a5,5,0,0,0,5,5h66.48a5,5,0,0,0,5-5V334.21A5,5,0,0,0,131.58,329.2Z"/></g><g id="Camada_6" data-name="Camada 6"><polygon class="cls-1" points="145.11 74.36 132.64 166.11 106.58 166.11 106.58 67.12 127.29 59.77 130.97 73.47 145.11 74.36"/><polygon class="cls-40" points="106.58 67.12 106.58 166.11 72.95 166.11 51.58 38.73 80.86 37.06 85.87 55.76 102.57 51.42 106.58 67.12"/><polygon class="cls-3" points="106.58 67.12 102.57 51.42 85.87 55.76 80.86 37.06 51.58 38.73 72.95 166.11 106.58 166.11 132.64 166.11 145.11 74.36 130.97 73.47 127.29 59.77 106.58 67.12"/></g><g id="Camada_5" data-name="Camada 5"><path class="cls-1" d="M361.68,9.69c-6,35.41,36.08,72.82,32.74,175-.87,25.55-18.87,29.21-31.42,28.61H351v-199L357,19Z"/><path class="cls-41" d="M351,14.36v199H339c-12.55.6-30.55-3.06-31.42-28.61-3.34-102.22,38.75-139.63,32.74-175L345,19Z"/><path class="cls-3" d="M351,213.34h12c12.55.6,30.55-3.06,31.42-28.61,3.34-102.22-38.75-139.63-32.74-175L357,19l-6-4.68L345,19l-4.67-9.35c6,35.41-36.08,72.82-32.74,175,.87,25.55,18.87,29.21,31.42,28.61Z"/></g><g id="Camada_4" data-name="Camada 4"><path class="cls-42" d="M277.39,1031.08S304.11,973.63,387,963.61L280.73,774.54s-92.87,16.7-112.24,68.81Z"/><path class="cls-43" d="M215,893.9l-25.16-43s9.57-26,39.64-28.95l26.94,45.88S235.74,868.74,215,893.9Z"/><path class="cls-44" d="M246.65,825.53s16.71-17.37,39.42-14.92"/><path class="cls-44" d="M253,841.82s16.7-17.37,39.42-14.92"/><path class="cls-44" d="M262.25,857s16.7-17.37,39.42-14.92"/><path class="cls-44" d="M223.16,911.05S258.46,864.28,315,863"/><path class="cls-44" d="M231.79,926.86s35.3-46.76,91.86-48.1"/><path class="cls-44" d="M243.76,945.08s35.3-46.76,91.87-48.1"/><path class="cls-44" d="M253,963.23s35.3-46.76,91.86-48.1"/><path class="cls-44" d="M262.25,981.2s35.3-46.77,91.86-48.1"/><path class="cls-44" d="M272.72,998.52s35.3-46.77,91.86-48.11"/></g><g id="Camada_3" data-name="Camada 3"><path class="cls-4" d="M327.74,768C308.46,753.37,287.49,746,265.42,746c-22.36,0-37.56,7.76-37.71,7.84l-9.16,4.76,13.58-133,1.45-1.41c15.14-14.79,32.37-22.29,51.2-22.29,34.69,0,62.12,25.5,63.27,26.59l2,1.87L335.66,774Z"/><path class="cls-4" d="M247.1,625.66C232.42,602.31,210.83,590,184.68,590c-26.7,0-49,12.57-49.89,13.11l-2.38,1.36L112.83,747.51l9.1-4A107.8,107.8,0,0,1,165.27,734c34.52,0,56.86,18.76,57.26,19.09l7.78,6.76,17.86-132.47Z"/><path class="cls-45" d="M240.3,625.49c49.45-44.36,103.93,7,103.93,7l-13.4,13.2,1.05-9s-47.21-40.63-86-1.78l-4.23-.57.78-5.71C241.7,627.55,241,626.5,240.3,625.49Z"/><path class="cls-46" d="M344.23,632.51,331.11,763.57c-48.2-36.57-93.88-20.05-103.93-15.68l15-14.79c13.75-2.94,45.54-6.74,77.34,10.35l11.29-97.74Z"/><path class="cls-47" d="M245.84,634.91c38.83-38.85,86,1.78,86,1.78l-1.05,9L242.2,733.1a68.74,68.74,0,0,0-7.1,1.8Z"/><path class="cls-48" d="M330.83,645.71l-11.29,97.74c-31.8-17.09-63.59-13.29-77.34-10.35Z"/><path class="cls-45" d="M137.56,607.93s65-37.28,102.74,17.56c-1,.85-1.89,1.73-2.83,2.64l-.55,5.39-4.85,4.34.6-4.6c-28.68-46.84-84.08-18.38-84.08-18.38l-13,106.7c1.34-.36,2.65-.68,4-1l-19.93,17.82Z"/><path class="cls-45" d="M240.3,625.49c.7,1,1.4,2.06,2.09,3.14l-5.47,4.89.55-5.39C238.41,627.22,239.34,626.34,240.3,625.49Z"/><path class="cls-45" d="M242.39,628.63l-.78,5.71-15.37,114a4.73,4.73,0,0,0-.5.24c-.13-.13-.31-.26-.52-.44l11.7-114.59Z"/><path class="cls-45" d="M241.61,634.34l4.23.57-10.74,100a68.74,68.74,0,0,1,7.1-1.8l-15,14.79-.94.42Z"/><path class="cls-46" d="M236.92,633.52l-11.7,114.59c-6.72-5.27-48.16-34.84-105.53-9.67l19.93-17.82c44.52-9.9,80.13,12.38,80.13,12.38l12.32-95.14Z"/><path class="cls-47" d="M148.59,614.88s55.4-28.46,84.08,18.38l-.6,4.6-92.45,82.76c-1.34.28-2.65.6-4,1Z"/><path class="cls-48" d="M232.07,637.86,219.75,733s-35.61-22.28-80.13-12.38Z"/><path class="cls-46" d="M226.24,748.31l-.07.57s-.14-.12-.43-.33A4.73,4.73,0,0,1,226.24,748.31Z"/><path class="cls-46" d="M225.22,748.11c.21.18.39.31.52.44l-.6.29Z"/></g></g></svg>