<svg xmlns="http://www.w3.org/2000/svg" xmlns:xlink="http://www.w3.org/1999/xlink" viewBox="0 0 785.3 395.7"><defs><style>.cls-1{fill:url(#Gradiente_sem_nome_61);}</style><linearGradient id="Gradiente_sem_nome_61" x1="143.49" y1="440.36" x2="737.19" y2="-13.88" gradientUnits="userSpaceOnUse"><stop offset="0" stop-color="#ff416c"/><stop offset="1" stop-color="#ff4b2b"/></linearGradient></defs><title>design_bubble_two_right_bottom</title><g id="Camada_2" data-name="Camada 2"><g id="Camada_8" data-name="Camada 8"><path class="cls-1" d="M728.19,246.12a135.44,135.44,0,0,1-120.72,18.35,91.62,91.62,0,0,0-28.41-4.53,89.18,89.18,0,0,0-87.22,108.34,244.66,244.66,0,0,1,4.36,27.42H0A249.15,249.15,0,0,1,105,216.86c83.49-58.38,190.5-58.57,272.53-8.79a89.75,89.75,0,0,0,98.61-3.3l.18-.13A89.3,89.3,0,0,0,514,133.36,135.5,135.5,0,0,1,572,24.28C633.38-18.58,718.7-3.15,761.26,58.44A135.66,135.66,0,0,1,728.19,246.12Z"/></g></g></svg>