<svg xmlns="http://www.w3.org/2000/svg" viewBox="0 0 90.7 159.06"><defs><style>.cls-1{fill:#ffbe24;}.cls-2,.cls-7{fill:none;stroke-miterlimit:10;stroke-width:3px;}.cls-2{stroke:#f0a71d;}.cls-3{fill:#e68503;}.cls-4{fill:#f29303;}.cls-5{fill:#f29e18;}.cls-6{fill:#e58f18;}.cls-7{stroke:#fff;}</style></defs><title>glass_2</title><g id="Camada_2" data-name="Camada 2"><g id="Camada_7" data-name="Camada 7"><path class="cls-1" d="M87.44,33.27C78.75,9.22,57.37.87,45.35,1.54,33.32.87,11.94,9.22,3.26,33.27s18,73.49,10.35,87.21H77.08C69.4,106.76,96.12,57.32,87.44,33.27Z"/><path class="cls-2" d="M23,50.31C17.29,77,38,122.13,38,122.13h7.35V69.35c-9.36-13.7,0-27.06,0-27.06S28.65,23.58,23,50.31Z"/><path class="cls-2" d="M69.79,50.31c-5.67-26.73-22.38-8-22.38-8s9.36,13.36,0,27.06v52.78h7.35S75.47,77,69.79,50.31Z"/><rect class="cls-3" x="45.35" y="134.15" width="38.25" height="10.36"/><path class="cls-4" d="M45.35,120.48H80.91a2.69,2.69,0,0,1,2.69,2.69v11H45.35Z"/><path class="cls-4" d="M45.35,157.56V144.51H83.6v10.35a2.7,2.7,0,0,1-2.69,2.7Z"/><path class="cls-5" d="M7.1,134.15v-11a2.69,2.69,0,0,1,2.69-2.69H45.35v13.67Z"/><path class="cls-5" d="M9.79,157.56a2.7,2.7,0,0,1-2.69-2.7V144.51H45.35v13.05Z"/><rect class="cls-6" x="7.1" y="134.15" width="38.25" height="10.36"/><path class="cls-7" d="M78.59,120.48H77.08c-7.68-13.72,19-63.16,10.36-87.21S57.37.87,45.35,1.54C33.32.87,11.94,9.22,3.26,33.27s18,73.49,10.35,87.21h-1.5a5,5,0,0,0-5,5v27.05a5,5,0,0,0,5,5H78.59a5,5,0,0,0,5-5v-27A5,5,0,0,0,78.59,120.48Z"/></g></g></svg>