<svg xmlns="http://www.w3.org/2000/svg" viewBox="0 0 90.23 214.9"><defs><style>.cls-1{fill:#c1c1c1;}.cls-2{fill:#cdcdcd;}.cls-3{fill:none;stroke:#fff;stroke-miterlimit:10;stroke-width:3px;}</style></defs><title>glass_4</title><g id="Camada_2" data-name="Camada 2"><g id="Camada_5" data-name="Camada 5"><path class="cls-1" d="M55.8,9.69c-6,35.41,36.08,72.82,32.74,175-.87,25.55-18.87,29.21-31.42,28.61h-12v-199l6,4.68Z"/><path class="cls-2" d="M45.12,14.36v199h-12c-12.55.6-30.55-3.06-31.42-28.61C-1.65,82.51,40.44,45.1,34.43,9.69L39.1,19Z"/><path class="cls-3" d="M45.12,213.34h12c12.55.6,30.55-3.06,31.42-28.61C91.88,82.51,49.79,45.1,55.8,9.69L51.13,19l-6-4.68L39.1,19,34.43,9.69c6,35.41-36.08,72.82-32.74,175,.87,25.55,18.87,29.21,31.42,28.61Z"/></g></g></svg>