<svg xmlns="http://www.w3.org/2000/svg" viewBox="0 0 84.23 218.23"><defs><style>.cls-1{fill:#fff;}.cls-2{fill:#47510a;}.cls-3{fill:#098c24;}.cls-4{fill:#1a9b37;}</style></defs><title>glass_1</title><g id="Camada_2" data-name="Camada 2"><g id="Camada_9" data-name="Camada 9"><path class="cls-1" d="M43.5,218.23c-.45,0-.92,0-1.39,0s-.93,0-1.39,0a31.82,31.82,0,0,1-24-10.09C-3.12,187.22-.51,138.87,1.06,110c.34-6.26.63-11.67.56-15-.19-8.83,3.51-18,11.3-28.14C25.37,50.72,26.68,28,26.53,17.32c-4.69-2.07-5.8-5.05-5.8-7.41C20.73,1,35.68,0,42.11,0S63.49,1,63.49,9.91c0,2.36-1.11,5.34-5.79,7.41C57.54,28,58.85,50.72,71.3,66.86,79.09,77,82.79,86.17,82.6,95c-.06,3.31.23,8.72.57,15,1.56,28.89,4.18,77.24-15.64,98.15a31.82,31.82,0,0,1-24,10.09Z"/><path class="cls-2" d="M77,94.89c.19-9-4.63-17.48-10.15-24.63C51.56,50.38,51.78,22,52.27,13.24c3.45-.8,5.66-2,5.66-3.33,0-2.4-7.08-4.34-15.82-4.34S26.3,7.51,26.3,9.91c0,1.34,2.2,2.53,5.66,3.33.48,8.76.71,37.14-14.63,57C11.82,77.41,7,85.86,7.19,94.89c.47,22.38-13.85,119.64,34.92,117.75C90.88,214.53,76.56,117.27,77,94.89Z"/><path class="cls-3" d="M66.89,70.26C72.4,77.41,77.22,85.87,77,94.89c-.48,22.38,13.84,119.64-34.93,117.75V12.21l10.36-1.67S48.55,46.49,66.89,70.26Z"/><path class="cls-4" d="M42.11,12.21V212.64C-6.66,214.53,7.67,117.27,7.19,94.89c-.19-9,4.63-17.48,10.15-24.63C35.67,46.49,31.76,10.54,31.76,10.54Z"/><ellipse class="cls-2" cx="42.11" cy="9.91" rx="15.81" ry="4.34"/></g></g></svg>