<svg xmlns="http://www.w3.org/2000/svg" viewBox="0 0 206.26 185.64"><defs><style>.cls-1{fill:#99aaba;}.cls-2{fill:#fe4a39;}.cls-3{fill:#a3b7c2;}.cls-4{fill:#fd5b4e;}.cls-5{fill:none;stroke:#fff;stroke-miterlimit:10;stroke-width:3px;}</style></defs><title>metal_2</title><g id="Camada_2" data-name="Camada 2"><g id="Camada_14" data-name="Camada 14"><path class="cls-1" d="M203.76,99.36a15.32,15.32,0,0,1-1.8,14.26l-22.8,32.72-12.4-8.52,31.71-46.88A25.09,25.09,0,0,1,203.76,99.36Z"/><path class="cls-2" d="M198.47,90.94l-31.71,46.88L38,49.26,70.48,2.88C86,8.43,91.62,29.44,99.11,41a12.3,12.3,0,0,0,9.65,5.53c34.58,2.09,40.91,16.14,47.62,26.57A21.05,21.05,0,0,0,174.7,82.9C186.63,82.49,194,86.23,198.47,90.94Z"/><path class="cls-3" d="M179.16,146.34l-21.5,30.84a16.06,16.06,0,0,1-13.9,6.94,30.14,30.14,0,0,1-7.46-1.32l30.46-45Z"/><path class="cls-4" d="M38,49.26l128.76,88.56-30.46,45c-17.83-5.44-29-26.24-33.29-37.43a9.73,9.73,0,0,0-8.93-6.22c-46.22-.63-52.59-41.51-63-39.38-10.82,4.72-18.65,0-23.57-7Z"/><path class="cls-1" d="M70.48,2.88,38,49.26,23.36,39.2c7.07-10.17,14.23-20.29,19-26.93a24.88,24.88,0,0,1,23.1-10.6A23.6,23.6,0,0,1,70.48,2.88Z"/><path class="cls-3" d="M38,49.26,7.51,92.78a36.37,36.37,0,0,1-5.9-15.31,13,13,0,0,1,1.76-8.3c3.9-6.53,11.88-18.28,20-30Z"/><path class="cls-5" d="M70.48,2.88a23.6,23.6,0,0,0-5-1.21,24.88,24.88,0,0,0-23.1,10.6c-4.74,6.64-11.9,16.76-19,26.93-8.11,11.69-16.09,23.44-20,30a13,13,0,0,0-1.76,8.3,36.37,36.37,0,0,0,5.9,15.31c4.92,7,12.75,11.71,23.57,7,10.41-2.13,16.78,38.75,63,39.38a9.73,9.73,0,0,1,8.93,6.22c4.34,11.19,15.46,32,33.29,37.43a30.14,30.14,0,0,0,7.46,1.32,16.06,16.06,0,0,0,13.9-6.94l21.5-30.84L202,113.62a15.32,15.32,0,0,0,1.8-14.26,25.09,25.09,0,0,0-5.29-8.42c-4.49-4.71-11.84-8.45-23.77-8a21.05,21.05,0,0,1-18.32-9.78c-6.71-10.43-13-24.48-47.62-26.57A12.3,12.3,0,0,1,99.11,41C91.62,29.44,86,8.43,70.48,2.88Z"/></g></g></svg>