<svg xmlns="http://www.w3.org/2000/svg" viewBox="0 0 131.1 246.7"><defs><style>.cls-1{fill:#fff;}.cls-2{fill:#737b86;}.cls-3,.cls-4{fill:none;}.cls-4{stroke:#98a5ae;stroke-miterlimit:10;}.cls-5{fill:#a2b4c2;}.cls-6{fill:#7b8891;}</style></defs><title>metal_1</title><g id="Camada_2" data-name="Camada 2"><g id="Camada_15" data-name="Camada 15"><polygon class="cls-1" points="13.96 246.7 13.96 90.88 0 79.84 17.95 70.74 1.58 50.76 20.88 40.97 13.79 18.18 43.22 23.43 54.38 0.76 68.83 18.96 86.68 0 92.23 20.91 122.83 14.39 108.67 40.74 131.1 48.69 114.31 62.45 130.15 73.34 115.35 82.42 130.48 90.35 117.74 99.59 117.74 246.7 13.96 246.7"/><polygon class="cls-2" points="112.11 77.88 104.07 82.82 109.81 85.81 119.94 91.11 103.11 103.31 38.66 103.31 10.28 80.87 26.65 72.57 10.28 52.59 27.6 43.81 21.82 25.27 46.36 29.65 55.49 11.11 68.26 27.18 68.48 27.46 68.74 27.18 83.86 11.11 88.21 27.46 112.24 22.34 101.98 41.43 100.7 43.81 105.08 45.37 119.94 50.64 111.11 57.88 105.04 62.83 112.81 68.18 119.94 73.08 112.11 77.88"/><path class="cls-3" d="M105.08,45.37l-4.38-1.56L102,41.43A40.68,40.68,0,0,1,105.08,45.37Z"/><polygon class="cls-2" points="112.11 77.88 104.07 82.82 109.81 85.81 119.94 91.11 103.11 103.31 38.66 103.31 10.28 80.87 26.65 72.57 10.28 52.59 27.6 43.81 21.82 25.27 46.36 29.65 55.49 11.11 68.26 27.18 68.48 27.46 68.74 27.18 83.86 11.11 88.21 27.46 112.24 22.34 101.98 41.43 100.7 43.81 105.08 45.37 119.94 50.64 111.11 57.88 105.04 62.83 112.81 68.18 119.94 73.08 112.11 77.88"/><circle class="cls-4" cx="70.06" cy="69.95" r="21.97"/><circle class="cls-4" cx="70.06" cy="69.95" r="14.32"/><path class="cls-4" d="M109.81,85.81A42.8,42.8,0,1,1,68.26,27.18a3.84,3.84,0,0,1,.48,0c.44,0,.87,0,1.32,0A42.73,42.73,0,0,1,102,41.43"/><path class="cls-4" d="M112.82,68.18c0,.59,0,1.18,0,1.78a43,43,0,0,1-.74,7.92"/><path class="cls-4" d="M105.08,45.37a41.87,41.87,0,0,1,6,12.51"/><circle class="cls-4" cx="70.06" cy="69.95" r="33.45"/><rect class="cls-5" x="19.53" y="91.92" width="92.64" height="149.21"/><rect class="cls-6" x="19.53" y="109.83" width="91.79" height="9.93"/><rect class="cls-6" x="19.53" y="135.01" width="91.79" height="9.93"/><rect class="cls-6" x="19.53" y="160.76" width="91.79" height="9.93"/><rect class="cls-6" x="19.53" y="186.51" width="91.79" height="9.93"/><rect class="cls-6" x="19.53" y="215.39" width="91.79" height="9.93"/></g></g></svg>