<svg xmlns="http://www.w3.org/2000/svg" viewBox="0 0 229.33 224.02"><defs><style>.cls-1{fill:#fff;}.cls-2{fill:#d88b01;}.cls-3{fill:#f6a822;}.cls-4{fill:#fdcb50;}.cls-5{fill:#febf26;}</style></defs><title>metal_3</title><g id="Camada_2" data-name="Camada 2"><g id="Camada_13" data-name="Camada 13"><path class="cls-1" d="M203.82,224c-.35,0-.71,0-1.06,0L22.55,216A23.64,23.64,0,0,1,0,191.31L1.93,148.6A23.56,23.56,0,0,1,25.51,126l1.06,0,54.91,2.46c25.85-5.43,84.45-21.72,92.87-58.77-5-12.82-17.77-48-11.62-60.72a10.36,10.36,0,0,1,6.45-5.69c.63-.18,1.27-.39,1.93-.59C175,1.52,179.91,0,184.79,0a17.35,17.35,0,0,1,13.82,6.09c7.5,8.78,8.78,26.86,4,56.9l0,.28-.14.5c1.86,18.68-5.85,46.1-32.14,68.71l36.45,1.63a23.67,23.67,0,0,1,22.53,24.64l-1.91,42.71A23.56,23.56,0,0,1,203.82,224ZM181.25,16.47c-3.32,0-5.35,1.73-5.35,2.67s2,2.67,5.35,2.67,5.34-1.73,5.34-2.67S184.56,16.47,181.25,16.47Z"/><path class="cls-2" d="M170.78,8.67c-13.36,4,9.36,60.58,9.36,60.58s7.12,30.28,17-7.13C207.91-6,184.14,4.67,170.78,8.67Zm10.47,18.71c-6,0-10.91-3.69-10.91-8.24s4.88-8.24,10.91-8.24,10.91,3.69,10.91,8.24S187.28,27.38,181.25,27.38Z"/><path class="cls-3" d="M65.67,137S169.89,124,180.14,69.25s45,25.83-29.85,70.82Z"/><path class="cls-4" d="M224.12,150.18l-1.3,29.1L6.45,172l1.41-31.51A9.75,9.75,0,0,1,18,131.25l196.83,8.8A9.77,9.77,0,0,1,224.12,150.18Z"/><path class="cls-5" d="M211.31,218.81,14.49,210a9.77,9.77,0,0,1-9.28-10.13L6.45,172l216.37,7.24-1.36,30.25A9.75,9.75,0,0,1,211.31,218.81Z"/></g></g></svg>