<svg xmlns="http://www.w3.org/2000/svg" viewBox="0 0 237.21 184.04"><defs><style>.cls-1{fill:#fff;}.cls-2{fill:#36b86e;}.cls-3{fill:#03a943;}.cls-4{fill:#e6e6e6;}.cls-5{fill:#e0e0e0;}</style></defs><title>papel_3</title><g id="Camada_2" data-name="Camada 2"><g id="Camada_3" data-name="Camada 3"><path class="cls-1" d="M214.91,178C195.63,163.4,174.66,156,152.59,156c-22.36,0-37.56,7.76-37.71,7.84l-9.16,4.75,13.58-133,1.45-1.41c15.14-14.79,32.37-22.29,51.2-22.29,34.69,0,62.12,25.5,63.27,26.59l2,1.88L222.83,184Z"/><path class="cls-1" d="M134.27,35.68C119.59,12.34,98,0,71.85,0,45.15,0,22.9,12.58,22,13.11l-2.38,1.37L0,157.54l9.1-4A107.65,107.65,0,0,1,52.44,144c34.52,0,56.86,18.76,57.26,19.1l7.78,6.75L135.34,37.39Z"/><path class="cls-2" d="M127.47,35.52c49.45-44.37,103.93,7,103.93,7L218,55.74l1.05-9s-47.21-40.63-86-1.79l-4.23-.57.78-5.7C128.87,37.57,128.17,36.52,127.47,35.52Z"/><path class="cls-3" d="M231.4,42.54,218.28,173.6c-48.2-36.57-93.88-20.06-103.93-15.69l15-14.79c13.75-2.93,45.54-6.73,77.34,10.36L218,55.74Z"/><path class="cls-4" d="M133,44.93c38.83-38.84,86,1.79,86,1.79l-1.05,9-88.63,87.38a66.79,66.79,0,0,0-7.1,1.81Z"/><path class="cls-5" d="M218,55.74l-11.29,97.74c-31.8-17.09-63.59-13.29-77.34-10.36Z"/><path class="cls-2" d="M24.73,18s65-37.28,102.74,17.57c-1,.84-1.89,1.73-2.83,2.64l-.55,5.38-4.84,4.34.59-4.59C91.16-3.56,35.76,24.91,35.76,24.91L22.8,131.6c1.34-.35,2.65-.67,4-1L6.86,148.46Z"/><path class="cls-2" d="M127.47,35.52c.7,1,1.4,2,2.09,3.14l-5.47,4.88.55-5.38C125.58,37.25,126.51,36.36,127.47,35.52Z"/><path class="cls-2" d="M129.56,38.66l-.78,5.7-15.37,114-.5.24c-.13-.13-.31-.26-.52-.44l11.7-114.59Z"/><path class="cls-2" d="M128.78,44.36l4.23.57-10.74,100a66.79,66.79,0,0,1,7.1-1.81l-15,14.79-.94.42Z"/><path class="cls-3" d="M124.09,43.54l-11.7,114.59c-6.72-5.27-48.16-34.83-105.53-9.67l19.93-17.82c44.52-9.9,80.13,12.38,80.13,12.38l12.33-95.14Z"/><path class="cls-4" d="M35.76,24.91s55.4-28.47,84.08,18.38l-.59,4.59L26.79,130.64c-1.34.29-2.65.61-4,1Z"/><path class="cls-5" d="M119.25,47.88,106.92,143s-35.61-22.28-80.13-12.38Z"/><path class="cls-3" d="M113.41,158.33l-.07.58-.43-.34Z"/><path class="cls-3" d="M112.39,158.13c.21.18.39.31.52.44l-.6.29Z"/></g></g></svg>