<svg xmlns="http://www.w3.org/2000/svg" viewBox="0 0 172.67 178.3"><defs><style>.cls-1{fill:#c1c1c1;}.cls-2{fill:#d9d9d9;}.cls-3{fill:none;stroke:#fff;stroke-miterlimit:10;stroke-width:3px;}</style></defs><title>paper_1</title><g id="Camada_2" data-name="Camada 2"><g id="Camada_16" data-name="Camada 16"><polygon class="cls-1" points="168.83 51.94 138.1 63.97 160.81 91.36 136.09 91.36 144.78 114.74 130.75 124.09 127.41 146.81 81.98 174.2 92.67 154.16 112.04 140.13 78.64 132.78 89.33 94.7 65.28 78 81.98 43.26 65.28 7.18 122.06 1.83 105.36 21.88 142.11 21.88 128.08 33.23 168.83 51.94"/><polygon class="cls-2" points="112.04 140.13 92.67 154.16 37.88 161.51 55.92 146.14 4.48 137.46 41.89 116.75 26.53 59.96 44.56 66.64 45.23 7.18 65.28 15.2 65.28 7.18 81.98 43.26 65.28 78 89.33 94.7 78.64 132.78 112.04 140.13"/><polygon class="cls-3" points="92.67 154.16 37.88 161.51 55.92 146.14 4.48 137.46 41.89 116.75 26.53 59.96 44.56 66.64 45.23 7.18 65.28 15.2 65.28 7.18 122.06 1.83 105.36 21.88 142.11 21.88 128.08 33.23 168.83 51.94 138.1 63.97 160.81 91.36 136.09 91.36 144.78 114.74 130.75 124.09 127.41 146.81 81.98 174.2 92.67 154.16"/></g></g></svg>