<svg xmlns="http://www.w3.org/2000/svg" viewBox="0 0 222.53 261.46"><defs><style>.cls-1{fill:#d9d9d9;stroke:#fff;stroke-miterlimit:10;stroke-width:3px;}.cls-2{fill:#ffcb53;}.cls-3{fill:none;stroke:#895f47;stroke-linecap:round;stroke-linejoin:round;stroke-width:2px;}</style></defs><title>paper_2</title><g id="Camada_2" data-name="Camada 2"><g id="Camada_4" data-name="Camada 4"><path class="cls-1" d="M110.55,258.21s26.73-57.45,109.57-67.47L113.89,1.67S21,18.37,1.65,70.48Z"/><path class="cls-2" d="M48.2,121,23,78.05S32.61,52,62.67,49.1L89.62,95S68.91,95.87,48.2,121Z"/><path class="cls-3" d="M79.82,52.66s16.7-17.37,39.42-14.92"/><path class="cls-3" d="M86.18,69S102.88,51.58,125.59,54"/><path class="cls-3" d="M95.42,84.11s16.7-17.37,39.41-14.92"/><path class="cls-3" d="M56.32,138.18s35.3-46.77,91.87-48.1"/><path class="cls-3" d="M65,154s35.3-46.77,91.87-48.1"/><path class="cls-3" d="M76.93,172.21s35.3-46.77,91.86-48.1"/><path class="cls-3" d="M86.18,190.36s35.29-46.77,91.86-48.1"/><path class="cls-3" d="M95.42,208.33s35.29-46.77,91.86-48.11"/><path class="cls-3" d="M105.89,225.64s35.29-46.76,91.86-48.1"/></g></g></svg>