<svg xmlns="http://www.w3.org/2000/svg" viewBox="0 0 102.7 242.31"><defs><style>.cls-1{fill:#fff;}.cls-2{fill:#0198e7;}.cls-3{fill:#0179c7;}.cls-4{fill:#0378c5;}.cls-5{fill:#1d85cc;}.cls-6{fill:#19a2e6;}.cls-7{fill:#1e84cc;}</style></defs><title>plastic_2</title><g id="Camada_2" data-name="Camada 2"><g id="Camada_11" data-name="Camada 11"><path class="cls-1" d="M61.19,242.31a52.91,52.91,0,0,1-9.84-.76,52.91,52.91,0,0,1-9.84.76,148.52,148.52,0,0,1-24-2.32l-1-.17-.91-.55C2,231.14-2.69,196.73,1.66,137A44.37,44.37,0,0,1,8.4,116.63l.24-.38a8,8,0,0,0-.82-9.35C-1.27,96.49-.51,78.71.75,69,2.51,55.58,9.9,43.15,21.58,34A14.69,14.69,0,0,0,25.45,29H23.07V0H79.63V29H77.25A14.69,14.69,0,0,0,81.12,34C92.79,43.14,100.19,55.58,102,69c1.26,9.67,2,27.45-7.07,37.86a8,8,0,0,0-.82,9.35l.24.38A44.49,44.49,0,0,1,101,137c4.35,59.75-.31,94.16-13.87,102.29l-.9.55-1,.17a148.62,148.62,0,0,1-24,2.32Z"/><path class="cls-2" d="M96.43,69.77c1.65,12.6.68,26.11-5.74,33.48a130.35,130.35,0,0,1-39.27,5.08l0-84.95H69.61s1.5,9.91,8.07,15C87.69,46.22,94.79,57.19,96.43,69.77Z"/><path class="cls-2" d="M95.48,137.38C97.35,163,100.14,225,84.31,234.49c-24.37,4.1-33,1.34-33,1.34l0-109.53a101,101,0,0,0,38.18-6.7A38.37,38.37,0,0,1,95.48,137.38Z"/><path class="cls-3" d="M89.32,119.17l.26.43a101,101,0,0,1-38.18,6.7l0-18a130.35,130.35,0,0,0,39.27-5.08A13.49,13.49,0,0,0,89.32,119.17Z"/><polygon class="cls-4" points="74.06 5.56 74.06 23.38 69.61 23.38 51.46 23.38 51.48 5.56 74.06 5.56"/><polygon class="cls-5" points="51.48 5.56 51.46 23.38 33.09 23.38 28.63 23.38 28.63 5.56 51.48 5.56"/><path class="cls-6" d="M51.46,23.38l0,85A168.59,168.59,0,0,1,12,103.25C5.58,95.88,4.62,82.37,6.27,69.77S15,46.22,25,38.41c6.56-5.12,8.07-15,8.07-15Z"/><path class="cls-7" d="M51.42,108.33l0,18c-22.12-.3-38-7.13-38-7.13A13.51,13.51,0,0,0,12,103.25,168.59,168.59,0,0,0,51.42,108.33Z"/><path class="cls-6" d="M51.4,126.3l0,109.53s-8.59,2.76-33-1.34C2.56,225,5.34,163,7.22,137.38a38.37,38.37,0,0,1,5.9-17.78l.26-.43S29.28,126,51.4,126.3Z"/></g></g></svg>