<svg xmlns="http://www.w3.org/2000/svg" viewBox="0 0 140.82 204.44"><defs><style>.cls-1{fill:#fff;}.cls-2{fill:#99aaba;}.cls-3{fill:#a2b3c3;}</style></defs><title>plastic_3</title><g id="Camada_2" data-name="Camada 2"><g id="Camada_10" data-name="Camada 10"><path class="cls-1" d="M25.43,204.44A25.46,25.46,0,0,1,0,179V0H50.85V66.81h.43a19.93,19.93,0,0,1,38.26,0H90V0h50.85V179a25.46,25.46,0,0,1-25.42,25.43Z"/><path class="cls-2" d="M135.25,5.57V179a19.93,19.93,0,0,1-19.85,19.86h-45V72.38h7.81a7.8,7.8,0,0,0-7.81-7.78V58.05A14.35,14.35,0,0,1,84.77,72.38H95.54V5.57Z"/><path class="cls-3" d="M70.41,72.38V198.87h-45A19.92,19.92,0,0,1,5.57,179V5.57H45.28V72.38H56.05A14.35,14.35,0,0,1,70.41,58.05V64.6a7.8,7.8,0,0,0-7.81,7.78Z"/></g></g></svg>