<svg xmlns="http://www.w3.org/2000/svg" viewBox="0 0 152.29 209.32"><defs><style>.cls-1{fill:#fff;}.cls-2{fill:#ffc027;}.cls-3{fill:#25374d;}.cls-4{fill:#f25532;}.cls-5{fill:#feca50;}.cls-6{fill:#495a6a;}.cls-7{fill:#ff7062;}</style></defs><title>plastic_1</title><g id="Camada_2" data-name="Camada 2"><g id="Camada_12" data-name="Camada 12"><polygon class="cls-1" points="76.31 209.32 9.64 76.1 13.36 51.45 0 24.75 49.45 0 62.43 26.78 85.56 37.96 152.29 171.29 76.31 209.32"/><rect class="cls-2" x="94.76" y="113.16" width="36.91" height="67.48" transform="translate(-53.77 66.2) rotate(-26.59)"/><rect class="cls-3" x="72.26" y="85.4" width="36.91" height="33.07" transform="translate(-36.03 51.38) rotate(-26.59)"/><polygon class="cls-2" points="81.42 42.15 99.81 78.89 66.81 95.41 35.26 32.38 54.33 22.84 58.27 30.95 81.42 42.15"/><polygon class="cls-4" points="46.9 7.5 54.33 22.84 35.26 32.38 27.64 17.15 46.9 7.5"/><rect class="cls-5" x="61.75" y="129.68" width="36.91" height="67.48" transform="translate(-64.66 53.18) rotate(-26.59)"/><rect class="cls-6" x="39.25" y="101.92" width="36.91" height="33.07" transform="translate(-46.92 38.35) rotate(-26.59)"/><polygon class="cls-5" points="35.26 32.38 66.81 95.41 33.8 111.93 15.41 75.19 19.13 50.54 15.1 42.47 35.26 32.38"/><rect class="cls-7" x="10.09" y="21.29" width="22.55" height="17.04" transform="translate(-11.08 12.72) rotate(-26.59)"/></g></g></svg>