<svg xmlns="http://www.w3.org/2000/svg" viewBox="0 0 783.85 765.69"><defs><style>.cls-1{fill:#fff;}.cls-2{fill:#d88b01;}.cls-3{fill:#f6a822;}.cls-4{fill:#fdcb50;}.cls-5{fill:#febf26;}</style></defs><title>metal_3_1</title><g id="Camada_2" data-name="Camada 2"><g id="Camada_13" data-name="Camada 13"><path class="cls-1" d="M696.66,765.69c-1.21,0-2.41,0-3.62-.08L77.09,738.12a80.79,80.79,0,0,1-77-84.21l6.52-146a80.53,80.53,0,0,1,80.6-77.09c1.19,0,2.4,0,3.61.08l187.69,8.38c88.34-18.57,288.66-74.23,317.43-200.86-17.21-43.83-60.75-163.95-39.7-207.56,6-12.39,15.28-17.41,22-19.44,2.13-.64,4.34-1.33,6.61-2C598.26,5.2,614.93,0,631.63,0c19.53,0,35.42,7,47.22,20.81,25.64,30,30,91.81,13.79,194.5l-.15.94L692,218c6.34,63.86-20,157.57-109.86,234.88l124.58,5.56a80.86,80.86,0,0,1,77,84.21l-6.52,146a80.52,80.52,0,0,1-80.58,77.08ZM619.52,56.29c-11.33,0-18.27,5.91-18.27,9.13s6.94,9.14,18.27,9.14,18.26-5.92,18.26-9.14S630.85,56.29,619.52,56.29Z"/><path class="cls-2" d="M583.74,29.65c-45.67,13.7,32,207,32,207s24.36,103.52,58.13-24.36C710.66-20.59,629.41,16,583.74,29.65Zm35.78,63.94c-20.6,0-37.3-12.61-37.3-28.17s16.7-28.16,37.3-28.16,37.3,12.61,37.3,28.16S640.12,93.59,619.52,93.59Z"/><path class="cls-3" d="M224.46,468.09s356.24-44.15,391.25-231.4,153.76,88.3-102,242.06Z"/><path class="cls-4" d="M38.09,447.61,757.8,479.7a9.75,9.75,0,0,1,9.26,10.15l-5.52,122.93L22.11,588,28,456.87A9.66,9.66,0,0,1,38.09,447.61Z"/><path class="cls-5" d="M761.54,612.78,755.9,739.65a9.68,9.68,0,0,1-10.15,9.26L26,716.81a9.75,9.75,0,0,1-9.26-10.15L22.11,588Z"/></g></g></svg>