<svg xmlns="http://www.w3.org/2000/svg" xmlns:xlink="http://www.w3.org/1999/xlink" viewBox="0 0 412.05 547.89"><defs><style>.cls-1{fill:#f79f1f;}.cls-1,.cls-11,.cls-14,.cls-2,.cls-3,.cls-4,.cls-5{stroke:#6f1e51;}.cls-1,.cls-11,.cls-14,.cls-2,.cls-3,.cls-4,.cls-5,.cls-7{stroke-miterlimit:10;}.cls-1,.cls-11,.cls-2,.cls-3,.cls-4,.cls-5{stroke-width:5px;}.cls-2{fill:url(#Gradiente_sem_nome_7);}.cls-3{fill:url(#Gradiente_sem_nome_7-2);}.cls-10,.cls-4{fill:#fff;}.cls-5{fill:#fcfcfc;}.cls-6{fill:#d980fa;}.cls-14,.cls-7{fill:none;stroke-width:3px;}.cls-7{stroke:#722691;}.cls-8{fill:#6f1e51;}.cls-9{fill:#33072e;}.cls-11{fill:url(#Gradiente_sem_nome_7-3);}.cls-12{fill:#d05aa6;}.cls-13{fill:#dd92b9;}.cls-15{fill:#9c55a5;}.cls-16{fill:#bfa6ce;}</style><linearGradient id="Gradiente_sem_nome_7" x1="-36.81" y1="368.25" x2="107.91" y2="290.49" gradientUnits="userSpaceOnUse"><stop offset="0" stop-color="#f23c5a"/><stop offset="1" stop-color="#f252a4"/></linearGradient><linearGradient id="Gradiente_sem_nome_7-2" x1="190.8" y1="536.01" x2="195.12" y2="158.01" xlink:href="#Gradiente_sem_nome_7"/><linearGradient id="Gradiente_sem_nome_7-3" x1="431.6" y1="415.76" x2="284.72" y2="271.04" xlink:href="#Gradiente_sem_nome_7"/></defs><title>Ativo 1</title><g id="Camada_2" data-name="Camada 2"><g id="Camada_1-2" data-name="Camada 1"><g id="u..."><path class="cls-1" d="M246.25,469.85s43.49,6.31,61,23.63a3.26,3.26,0,0,1-1.57,5.45,54.08,54.08,0,0,1-8,1.11,3.28,3.28,0,0,0-2.77,4.57c2.25,5.16,5.83,13.89,7.15,20a3.27,3.27,0,0,1-4.4,3.74c-3.39-1.32-8.1-3.22-12.35-5.15a3.28,3.28,0,0,0-4.63,2.79l-.91,15a3.22,3.22,0,0,1-5.07,2.47l-.07-.06c-2.29-1.86-18.56-28.74-19.59-30.45l-.1-.16C253.45,510.7,222.61,466.28,246.25,469.85Z"/><path class="cls-1" d="M139.29,471.12s-43.5,6.32-61,23.63a3.27,3.27,0,0,0,1.57,5.46,55.6,55.6,0,0,0,8,1.1,3.28,3.28,0,0,1,2.78,4.57c-2.25,5.16-5.84,13.89-7.15,20a3.27,3.27,0,0,0,4.39,3.74c3.39-1.33,8.11-3.23,12.36-5.15a3.27,3.27,0,0,1,4.62,2.78l.92,15a3.2,3.2,0,0,0,5.06,2.47l.07,0c2.29-1.86,18.56-28.75,19.59-30.45l.11-.17C132.08,512,162.93,467.56,139.29,471.12Z"/><path id="mao_esq" data-name="mao esq" class="cls-2" d="M60.75,353c49.49-16.53,97-69.85,55.42-87.62-36.9-15.78-80,33.33-90.73,43.18C25.44,308.54-44.9,388.27,60.75,353Z"/><path class="cls-3" d="M292.38,244.68a134.94,134.94,0,0,0,31.05-86.58c0-53-30.07-98.81-73.53-120.08,3.29-5.05,7.32-15.09,7.32-33.87C250.37,7.78,243,14.47,238,26.68c-5-12.21-12.36-18.9-19.2-22.53,0,10.58,1.28,18.37,3,24.07a124.84,124.84,0,0,0-26.68-2.88c-70.87,0-128.31,59.44-128.31,132.76a134.72,134.72,0,0,0,36,92.2,78.81,78.81,0,0,0-30.1,49.37C65,346,60,434.47,120.42,481.68c25.49,19.92,49.74,26.7,71.16,26.47,21.43.23,45.68-6.55,71.17-26.47,59.59-46.58,55.51-133.29,48-180.12C310.76,301.56,311.88,258.28,292.38,244.68Z"/><ellipse id="branco_barriga" data-name="branco barriga" class="cls-4" cx="192.77" cy="353.97" rx="92.25" ry="120.87"/><g id="face"><path class="cls-5" d="M323.43,158.1a132.74,132.74,0,0,0-6.21-40.24c-3.69-11.6-13.61-20.36-25.69-21.81-20.54-2.47-50.37,14.57-63.42,123-2.45,24.5-5.69,38.58-22.89,43.56a36.32,36.32,0,0,1-20.2,0c-17.2-5-20.44-19.06-22.89-43.56-13-108.45-42.88-125.49-63.42-123-12.08,1.45-22,10.21-25.69,21.81a132.85,132.85,0,0,0,121.79,172.9v0h.62v0A132.75,132.75,0,0,0,323.43,158.1Z"/><g id="bico"><path class="cls-6" d="M226,233.63a30.85,30.85,0,0,1-61.7,0c0-17,13.81-43.12,30.85-43.12S226,216.59,226,233.63Z"/><path class="cls-7" d="M164.34,231.54s30.08,15,61.56,0"/><path class="cls-8" d="M195.12,267a33.39,33.39,0,0,1-33.35-33.35c0-17.95,14.32-45.62,33.35-45.62s33.35,27.67,33.35,45.62A33.39,33.39,0,0,1,195.12,267Zm0-74c-15.38,0-28.35,25-28.35,40.62a28.35,28.35,0,0,0,56.7,0C223.47,218,210.49,193,195.12,193Z"/></g><g id="olho_dir" data-name="olho dir"><rect class="cls-9" x="271.7" y="116.47" width="36.72" height="62.08" rx="18.36"/><rect class="cls-10" x="279.97" y="125.23" width="10.09" height="20.16" rx="5.05"/></g><g id="olho_esq" data-name="olho esq"><rect class="cls-9" x="86.7" y="116.47" width="36.72" height="62.08" rx="18.36" transform="translate(210.13 295.01) rotate(180)"/><rect class="cls-10" x="105.06" y="125.23" width="10.09" height="20.16" rx="5.05" transform="translate(220.22 270.62) rotate(-180)"/></g></g><path id="mao_esq-2" data-name="mao esq" class="cls-11" d="M351.3,366.63c-49.49-16.53-97-69.85-55.42-87.62,36.9-15.78,80,33.34,90.72,43.19C386.6,322.2,456.94,401.92,351.3,366.63Z"/><g id="cachecol"><g id="b"><path class="cls-12" d="M257.32,323.83A110.84,110.84,0,0,1,255,341.18a16,16,0,0,1-14.1,12.26c-13,1.23-21.82-1.42-26.92-3.84a5.64,5.64,0,0,1-2.33-8.09,161.84,161.84,0,0,0,8.92-16.14Z"/><path class="cls-13" d="M257.32,323.83l-36.78,1.54c12.48-26.19,11.14-44.54,6.67-53.61a5.68,5.68,0,0,1,2.73-7.73,37.43,37.43,0,0,1,9.76-2.9,5.54,5.54,0,0,1,4.62,1.42C255.64,273.25,258.76,301.66,257.32,323.83Z"/><path class="cls-14" d="M244.32,262.55a5.54,5.54,0,0,0-4.62-1.42,37.43,37.43,0,0,0-9.76,2.9,5.68,5.68,0,0,0-2.73,7.73c4.47,9.07,5.81,27.42-6.67,53.61a161.84,161.84,0,0,1-8.92,16.14A5.64,5.64,0,0,0,214,349.6c5.1,2.42,13.92,5.07,26.92,3.84A16,16,0,0,0,255,341.18a110.84,110.84,0,0,0,2.35-17.35C258.76,301.66,255.64,273.25,244.32,262.55Z"/></g><g id="base"><path class="cls-12" d="M112.77,250.46v46.11c-18.6-3.28-30.81-5.87-32.15-6.78-13.81-9.39-12-22.23-5.52-33.64s12.23-12.09,29-7.69C104.41,248.54,107.5,249.33,112.77,250.46Z"/><path class="cls-13" d="M167.34,258.85v44.6c-21.06-1.58-39.88-4.29-54.57-6.88V250.46A473.48,473.48,0,0,0,167.34,258.85Z"/><path class="cls-15" d="M228.47,259.64V304.1c-8.43.52-16.78.75-25,.75-12.52,0-24.67-.53-36.15-1.4v-44.6C186.19,260.62,207.45,261.4,228.47,259.64Z"/><path class="cls-16" d="M280,248.87V297a319.87,319.87,0,0,1-51.5,7.11V259.64c17.08-1.41,34-4.49,49.36-10.06C278.54,249.32,279.25,249.09,280,248.87Z"/><path class="cls-12" d="M308.49,288.68A241.57,241.57,0,0,1,280,297V248.87c15.46-4.66,18.79-7,26.87,3.33C315.31,263,324.36,282.92,308.49,288.68Z"/><path class="cls-14" d="M306.84,252.2c-8.08-10.31-11.41-8-26.87-3.33-.72.22-1.43.45-2.14.71-15.35,5.57-32.28,8.65-49.36,10.06-21,1.76-42.28,1-61.13-.79a473.48,473.48,0,0,1-54.57-8.39c-5.27-1.13-8.36-1.92-8.67-2-16.77-4.4-22.51-3.71-29,7.69s-8.29,24.25,5.52,33.64c1.34.91,13.55,3.5,32.15,6.78,14.69,2.59,33.51,5.3,54.57,6.88,11.48.87,23.63,1.4,36.15,1.4,8.2,0,16.55-.23,25-.75A319.87,319.87,0,0,0,280,297a241.57,241.57,0,0,0,28.52-8.31C324.36,282.92,315.31,263,306.84,252.2Z"/></g><g id="a"><path class="cls-12" d="M267.71,290.54,235.13,299c-.27-15.56-4.34-26.3-9-32.42a6.94,6.94,0,0,1,1.45-9.91,45.43,45.43,0,0,1,11-5.78,6.77,6.77,0,0,1,5.86.62C254.5,257.83,262.37,273.27,267.71,290.54Z"/><path class="cls-15" d="M229.58,336.79c4.2-14.8,5.73-27.39,5.55-37.82l32.58-8.43a189.55,189.55,0,0,1,7.82,41.73Z"/><path class="cls-13" d="M275.76,343.11a19.56,19.56,0,0,1-14,18c-15.28,4.54-26.47,3.46-33.15,1.77a6.9,6.9,0,0,1-4.71-9.14c2.27-5.95,4.14-11.6,5.66-17l45.95-4.52C275.79,336.19,275.87,339.84,275.76,343.11Z"/><path class="cls-14" d="M275.53,332.27a189.55,189.55,0,0,0-7.82-41.73c-5.34-17.27-13.21-32.71-23.3-39.06a6.77,6.77,0,0,0-5.86-.62,45.43,45.43,0,0,0-11,5.78,6.94,6.94,0,0,0-1.45,9.91c4.69,6.12,8.76,16.86,9,32.42.18,10.43-1.35,23-5.55,37.82-1.52,5.37-3.39,11-5.66,17a6.9,6.9,0,0,0,4.71,9.14c6.68,1.69,17.87,2.77,33.15-1.77a19.56,19.56,0,0,0,14-18C275.87,339.84,275.79,336.19,275.53,332.27Z"/></g></g></g></g></g></svg>